{"glyphs":{"0":{"ha":667,"x_min":10,"x_max":657,"o":"m 35 292 l 106 693 q 146 814 118 760 q 215 906 174 868 q 308 965 256 944 q 422 985 361 985 q 601 907 544 985 q 633 693 657 829 l 563 292 q 453 67 538 149 q 246 -14 368 -14 q 66 67 122 -14 q 35 292 10 149 m 308 817 l 192 154 q 190 33 176 71 q 247 -6 203 -6 q 316 31 290 -6 q 357 154 342 68 l 474 817 q 476 940 489 903 q 421 976 464 976 q 350 938 376 976 q 308 817 324 900 z "},"1":{"ha":393,"x_min":56,"x_max":393,"o":"m 56 0 l 217 910 l 111 860 l 108 867 l 326 971 l 393 971 l 222 0 l 56 0 z "},"2":{"ha":590,"x_min":-43,"x_max":572,"o":"m 133 894 q 242 961 181 938 q 369 985 304 985 q 518 936 464 985 q 572 800 572 888 q 525 642 572 721 q 389 496 478 563 l 215 365 q 85 258 131 301 q 15 172 39 214 l 465 172 l 435 0 l -43 0 q 41 251 -19 131 q 210 497 101 371 l 246 540 q 325 639 293 594 q 377 720 357 683 q 406 789 397 757 q 415 851 415 821 q 390 937 415 908 q 317 965 364 965 q 224 944 274 965 q 138 889 175 924 l 133 894 z "},"3":{"ha":540,"x_min":-90,"x_max":513,"o":"m 108 -14 q -4 3 47 -14 q -90 50 -56 19 l -85 57 q 54 6 -21 6 q 254 254 210 6 l 260 285 q 253 451 281 401 q 144 500 226 500 l 146 508 q 213 519 185 508 q 263 553 242 529 q 297 616 283 578 q 321 710 311 654 l 328 750 q 324 909 347 854 q 239 964 301 964 q 83 889 165 964 l 78 894 q 181 961 122 938 q 301 985 239 985 q 397 967 356 985 q 465 919 439 950 q 502 844 492 888 q 503 749 513 801 l 497 718 q 424 571 481 625 q 281 510 368 517 l 251 507 l 251 501 l 278 499 q 410 430 369 489 q 432 271 450 371 l 431 263 q 322 60 407 133 q 108 -14 236 -14 z "},"4":{"ha":657,"x_min":-12,"x_max":592,"o":"m -12 175 l -1 242 l 525 971 l 592 971 l 476 314 l 557 314 l 532 175 l 451 175 l 421 0 l 254 0 l 285 175 l -12 175 m 388 756 l 383 756 l 67 317 l 67 314 l 308 314 l 379 714 l 388 756 z "},"5":{"ha":594,"x_min":-35,"x_max":589,"o":"m -26 136 q -8 83 -22 108 q 29 40 7 58 q 79 10 51 21 q 138 0 107 0 q 236 40 196 0 q 289 151 276 81 l 318 317 q 319 394 325 358 q 298 458 314 431 q 256 500 282 485 q 199 515 231 515 q 83 454 133 515 l 68 454 l 158 971 l 589 971 l 535 817 l 140 817 l 78 463 l 81 463 q 160 528 113 506 q 269 551 208 551 q 369 531 325 551 q 444 476 414 511 q 486 394 474 442 q 489 293 499 347 l 478 226 q 440 132 468 176 q 370 56 411 88 q 278 5 329 24 q 172 -14 226 -14 q 33 26 89 -14 q -35 133 -24 67 l -26 136 z "},"6":{"ha":671,"x_min":19,"x_max":629,"o":"m 31 264 l 108 707 q 148 821 119 769 q 219 909 176 872 q 315 966 261 946 q 428 986 368 986 q 551 961 497 986 q 629 893 604 936 l 621 889 q 555 948 600 925 q 461 971 510 971 q 358 934 399 971 q 306 831 317 897 l 257 553 q 331 597 286 581 q 422 614 375 614 q 558 553 514 614 q 583 392 601 493 l 561 264 q 522 152 550 203 q 451 65 493 101 q 358 7 410 28 q 247 -14 306 -14 q 144 7 189 -14 q 70 65 99 28 q 31 153 42 101 q 31 264 19 204 m 254 539 l 181 122 q 189 30 169 65 q 247 -6 208 -6 q 319 31 288 -6 q 361 122 351 67 l 421 465 q 413 556 432 522 q 354 589 394 589 q 303 576 329 589 q 254 539 276 563 z "},"7":{"ha":547,"x_min":44,"x_max":617,"o":"m 51 39 q 100 226 72 153 q 163 352 128 300 q 238 444 197 404 q 324 533 279 485 q 419 647 369 581 q 519 817 468 714 l 72 817 l 99 971 l 617 971 l 554 857 q 435 631 485 732 q 350 434 386 529 q 290 244 314 339 q 246 39 265 150 l 239 0 l 44 0 l 51 39 z "},"8":{"ha":732,"x_min":15,"x_max":706,"o":"m 278 493 l 307 496 l 307 500 l 281 503 q 210 525 242 507 q 156 572 178 543 q 126 636 135 600 q 124 711 117 672 l 133 763 q 172 847 142 807 q 247 918 203 888 q 347 967 292 949 q 460 985 403 985 q 564 967 517 985 q 643 919 611 950 q 690 849 675 889 q 697 763 706 808 l 688 711 q 658 638 681 674 q 603 573 636 601 q 531 526 571 544 q 450 503 492 507 l 422 500 l 421 496 l 449 493 q 527 469 492 489 q 587 420 563 450 q 621 351 611 390 q 624 271 631 313 l 615 222 q 576 131 607 174 q 501 56 546 88 q 399 5 456 24 q 283 -14 343 -14 q 172 6 224 -14 q 85 57 121 25 q 32 132 49 89 q 24 222 15 175 l 32 271 q 62 351 39 313 q 118 420 85 390 q 193 469 151 450 q 278 493 235 489 m 376 503 q 453 533 429 503 q 492 640 478 563 l 526 840 q 524 945 540 914 q 460 976 508 976 q 329 840 354 976 l 294 640 q 301 535 282 567 q 376 503 319 503 m 288 -6 q 363 24 339 -6 q 401 132 388 54 l 442 358 q 439 463 454 432 q 375 494 424 494 q 244 358 269 494 l 204 132 q 210 26 192 58 q 288 -6 229 -6 z "},"9":{"ha":671,"x_min":19,"x_max":650,"o":"m 639 708 l 561 265 q 522 151 550 203 q 451 63 493 100 q 355 6 408 26 q 242 -14 301 -14 q 95 26 156 -14 q 19 133 35 67 l 29 138 q 52 83 35 108 q 94 38 69 57 q 151 9 119 19 q 217 -1 182 -1 q 312 30 275 -1 q 360 118 349 61 l 413 419 q 339 375 383 392 q 246 358 294 358 q 112 419 156 358 q 86 581 68 479 l 108 708 q 148 820 119 769 q 218 908 176 871 q 312 965 260 944 q 422 986 364 986 q 526 965 481 986 q 599 908 571 944 q 639 820 628 871 q 639 708 650 769 m 415 431 l 489 850 q 481 942 500 907 q 422 978 461 978 q 350 942 382 978 q 308 850 318 906 l 250 519 q 255 419 239 454 q 311 383 271 383 q 365 397 336 383 q 415 431 393 410 z "},"\u0000":{"ha":0,"x_min":0,"x_max":0,"o":""},"\r":{"ha":347,"x_min":0,"x_max":0,"o":""}," ":{"ha":278,"x_min":0,"x_max":0,"o":""},"H":{"ha":668,"x_min":-22,"x_max":689,"o":"m 329 971 l 244 489 l 424 489 l 508 971 l 689 971 l 518 0 l 339 0 l 422 481 l 243 481 l 158 0 l -22 0 l 149 971 l 329 971 z "},"I":{"ha":307,"x_min":-24,"x_max":329,"o":"m 329 971 l 157 0 l -24 0 l 149 971 l 329 971 z "},"J":{"ha":442,"x_min":-89,"x_max":464,"o":"m -89 53 l -82 60 q -28 18 -60 33 q 35 3 3 3 q 97 31 72 3 q 132 107 122 58 l 283 971 l 464 971 l 338 250 q 302 145 328 193 q 240 62 276 97 q 160 6 204 26 q 67 -14 115 -14 q -89 53 -25 -14 z "},"K":{"ha":635,"x_min":-22,"x_max":644,"o":"m 158 0 l -22 0 l 149 971 l 331 971 l 158 0 m 290 494 l 290 500 l 631 971 l 644 971 l 426 672 l 564 0 l 375 0 l 290 494 z "},"L":{"ha":428,"x_min":-22,"x_max":357,"o":"m 329 971 l 160 8 l 357 8 l 356 0 l -22 0 l 149 971 l 329 971 z "},"M":{"ha":767,"x_min":-29,"x_max":789,"o":"m 618 0 l 438 0 l 597 907 l 594 907 l 269 0 l 228 0 l 142 907 l 139 907 l -21 0 l -29 0 l 142 971 l 324 971 l 382 353 l 385 353 l 607 971 l 789 971 l 618 0 z "},"N":{"ha":569,"x_min":-29,"x_max":597,"o":"m 479 361 l 482 361 l 589 971 l 597 971 l 426 0 l 385 0 l 140 897 l 138 897 l -21 0 l -29 0 l 142 971 l 315 971 l 479 361 z "},"Q":{"ha":660,"x_min":-1,"x_max":651,"o":"m 218 -12 l 218 -10 l 193 -11 q 46 86 93 4 q 21 292 -1 168 l 92 693 q 133 812 103 758 q 205 904 163 865 q 302 964 247 943 q 418 985 357 985 q 527 964 481 985 q 603 905 574 943 q 642 813 632 867 q 640 693 651 760 l 569 292 q 528 166 557 222 q 456 69 499 110 q 358 8 413 29 q 242 -14 304 -14 q 178 -29 217 -14 q 111 -67 140 -44 q 164 -56 136 -56 q 231 -67 193 -56 q 303 -96 269 -78 l 313 -101 q 366 -128 346 -121 q 404 -135 386 -135 q 497 -71 454 -135 l 503 -74 q 413 -161 464 -131 q 307 -192 361 -192 q 207 -169 260 -192 l 201 -167 q 97 -140 139 -140 q 4 -176 44 -140 l -1 -172 q 46 -114 24 -139 q 91 -71 68 -89 q 138 -40 114 -53 q 193 -17 163 -28 l 218 -12 m 178 154 q 178 32 163 69 q 243 -6 194 -6 q 320 31 292 -6 q 364 154 349 68 l 481 817 q 481 940 496 904 q 417 976 467 976 q 339 939 368 976 q 294 817 310 901 l 178 154 z "},"S":{"ha":536,"x_min":-21,"x_max":558,"o":"m 269 150 q 263 219 269 183 q 242 300 257 256 l 129 642 q 115 732 115 685 q 135 831 115 785 q 188 912 154 878 q 269 965 222 946 q 368 985 315 985 q 478 961 428 985 q 558 894 529 938 l 553 889 q 490 944 531 922 q 414 967 450 967 q 332 922 363 967 q 301 807 301 878 q 324 678 301 746 l 444 292 q 457 215 457 253 q 435 125 457 167 q 376 52 414 83 q 287 3 338 21 q 178 -14 236 -14 q -21 50 64 -14 l -14 57 q 65 15 19 31 q 149 -1 110 -1 q 238 37 207 -1 q 269 150 269 75 z "},"T":{"ha":515,"x_min":71,"x_max":614,"o":"m 613 963 l 432 963 l 261 0 l 81 0 l 251 963 l 71 963 l 72 971 l 614 971 l 613 963 z "},"U":{"ha":600,"x_min":17,"x_max":629,"o":"m 329 971 l 188 165 q 200 51 175 94 q 285 7 225 7 q 354 24 321 7 q 415 72 388 40 q 463 147 443 103 q 493 244 483 190 l 621 971 l 629 971 l 503 250 q 409 55 479 124 q 233 -14 339 -14 q 131 8 175 -14 q 60 69 86 29 q 25 165 33 108 q 29 290 17 221 l 149 971 l 329 971 z "},"X":{"ha":515,"x_min":-100,"x_max":585,"o":"m 331 633 l 339 581 l 342 581 l 572 971 l 585 971 l 343 563 l 442 0 l 253 0 l 174 442 l 172 442 l -87 0 l -100 0 l 171 461 l 79 971 l 271 971 l 331 633 z "},"Y":{"ha":503,"x_min":72,"x_max":603,"o":"m 356 489 l 358 489 l 590 971 l 603 971 l 358 465 l 276 0 l 94 0 l 174 447 l 72 971 l 261 971 l 356 489 z "},"Z":{"ha":608,"x_min":-56,"x_max":643,"o":"m 167 963 l 168 971 l 643 971 l 642 963 l 136 8 l 493 8 l 492 0 l -56 0 l -53 8 l 453 963 l 167 963 z "},"i":{"ha":297,"x_min":-22,"x_max":321,"o":"m 121 867 q 160 934 128 907 q 233 961 192 961 q 298 934 275 961 q 314 867 321 907 q 274 799 307 826 q 200 771 242 771 q 136 799 158 771 q 121 867 114 826 m 268 688 l 147 0 l -22 0 l 99 688 l 268 688 z "},"j":{"ha":336,"x_min":-79,"x_max":361,"o":"m 164 867 q 203 934 171 907 q 275 961 235 961 q 338 934 315 961 q 354 867 361 907 q 314 799 347 826 q 240 771 281 771 q 178 799 200 771 q 164 867 157 826 m 201 67 q 174 -22 193 19 q 122 -99 154 -62 q 40 -172 89 -136 q -75 -243 -8 -207 l -79 -237 q -51 -213 -64 -225 q -26 -185 -37 -201 q -7 -146 -15 -169 q 8 -86 1 -122 l 144 688 l 311 688 l 201 67 z "},"k":{"ha":575,"x_min":-33,"x_max":511,"o":"m 135 0 l -33 0 l 138 971 l 306 971 l 135 0 m 361 531 l 496 0 l 321 0 l 238 410 l 239 417 l 499 688 l 511 688 l 361 531 z "},"l":{"ha":263,"x_min":-33,"x_max":306,"o":"m 139 971 l 306 971 l 133 0 l -33 0 l 139 971 z "},"m":{"ha":806,"x_min":-36,"x_max":779,"o":"m 500 585 q 556 667 519 633 q 649 701 593 701 q 706 690 681 701 q 748 658 731 678 q 772 611 765 638 q 774 554 779 585 l 676 0 l 507 0 l 614 607 q 597 679 626 679 q 569 669 585 679 q 540 644 554 660 q 515 608 526 628 q 501 565 504 588 l 400 0 l 231 0 l 343 632 q 326 676 351 676 q 300 664 315 676 q 270 633 285 651 q 244 591 256 614 q 229 547 233 568 l 133 0 l -36 0 l 85 688 l 254 688 l 238 594 l 240 594 q 296 670 264 639 q 378 701 328 701 q 466 669 431 701 q 497 585 501 636 l 500 585 z "},"p":{"ha":549,"x_min":-74,"x_max":515,"o":"m 247 624 l 250 624 q 300 684 274 667 q 363 701 326 701 q 430 685 400 701 q 480 642 460 669 q 508 578 500 615 q 508 501 515 542 l 456 201 q 426 119 447 158 q 373 50 404 79 q 305 3 342 21 q 231 -14 268 -14 q 177 3 197 -14 q 150 60 157 19 l 147 60 l 96 -233 l -74 -233 l 89 688 l 258 688 l 247 624 m 157 111 q 165 35 150 69 q 204 1 179 1 q 237 19 222 1 q 257 65 251 38 l 354 617 q 351 664 360 644 q 324 683 342 683 q 298 674 311 683 q 273 649 285 664 q 252 616 261 635 q 239 579 243 597 l 157 111 z "},"q":{"ha":544,"x_min":-17,"x_max":531,"o":"m 361 688 l 531 688 l 368 -233 l 199 -233 l 250 60 l 247 60 q 200 3 226 19 q 140 -14 174 -14 q 72 3 103 -14 q 21 50 42 21 q -8 119 0 79 q -8 201 -17 158 l 44 501 q 72 578 51 542 q 123 642 93 615 q 188 685 153 669 q 261 701 224 701 q 318 684 297 701 q 347 624 339 667 l 350 624 l 361 688 m 342 579 q 342 616 344 597 q 333 649 340 635 q 317 674 326 664 q 294 683 307 683 q 261 664 276 683 q 240 617 246 644 l 143 65 q 146 19 138 38 q 174 1 154 1 q 200 10 186 1 q 226 35 214 19 q 247 71 238 51 q 260 111 256 90 l 342 579 z "},"r":{"ha":383,"x_min":-37,"x_max":413,"o":"m 250 688 l 226 547 l 231 547 q 260 608 242 579 q 303 657 279 636 q 356 690 328 678 q 413 701 385 701 l 388 558 q 325 571 361 571 q 270 562 297 571 q 224 538 243 553 l 129 0 l -37 0 l 83 688 l 250 688 z "},"s":{"ha":422,"x_min":-47,"x_max":414,"o":"m 407 636 q 356 673 385 660 q 300 686 328 686 q 235 660 260 686 q 210 594 210 635 q 224 531 210 564 l 339 228 q 350 171 350 197 q 331 101 350 135 q 278 42 311 68 q 202 1 244 17 q 114 -14 160 -14 q 22 5 63 -14 q -47 58 -19 24 l -42 64 q 17 16 -18 33 q 86 -1 51 -1 q 149 23 126 -1 q 171 92 171 47 q 149 192 171 135 l 54 432 q 38 511 38 476 q 56 585 38 550 q 105 645 74 619 q 177 686 136 671 q 264 701 218 701 q 414 642 357 701 l 407 636 z "},"t":{"ha":336,"x_min":-6,"x_max":396,"o":"m 107 -14 q 21 30 47 -14 q 8 150 -6 74 l 101 679 l 33 679 l 35 688 l 104 688 l 132 846 l 310 903 l 272 688 l 396 688 l 394 679 l 271 679 l 165 79 q 194 19 154 19 q 278 64 229 19 l 282 58 q 197 6 246 26 q 107 -14 147 -14 z "},"v":{"ha":481,"x_min":53,"x_max":499,"o":"m 176 0 l 143 0 l 53 688 l 231 688 l 286 265 l 289 265 l 488 688 l 499 688 l 176 0 z "},"x":{"ha":539,"x_min":-69,"x_max":483,"o":"m 231 688 l 306 435 l 308 435 l 471 688 l 483 688 l 311 418 l 435 0 l 258 0 l 169 299 l 157 336 l 154 336 l -57 0 l -69 0 l 153 354 l 54 688 l 231 688 z "},"z":{"ha":515,"x_min":-44,"x_max":521,"o":"m -44 0 l -43 8 l 329 679 l 129 679 l 132 688 l 521 688 l 519 679 l 149 8 l 397 8 l 396 0 l -44 0 z "},"$":{"ha":536,"x_min":-21,"x_max":558,"o":"m 101 -6 q -21 50 36 8 l -14 57 q 42 24 11 38 q 104 3 74 10 l 225 349 l 129 642 q 115 732 115 685 q 135 831 115 785 q 188 912 154 878 q 269 965 222 946 q 368 985 315 985 q 444 974 407 985 l 481 1076 l 492 1076 l 454 971 q 513 940 486 960 q 558 894 540 921 l 553 889 q 508 933 536 914 q 451 961 481 953 l 338 635 l 444 292 q 457 215 457 253 q 435 125 457 167 q 376 52 414 83 q 287 3 338 21 q 178 -14 236 -14 q 144 -12 161 -14 q 113 -8 128 -11 l 74 -119 l 63 -119 l 101 -6 m 442 964 q 428 967 435 967 q 414 967 421 967 q 332 922 363 967 q 301 807 301 878 q 324 678 301 746 l 332 651 l 442 964 m 269 150 q 263 219 269 183 q 242 300 257 256 l 231 332 l 115 1 q 132 -1 124 0 q 149 -1 140 -1 q 238 37 207 -1 q 269 150 269 75 z "},"D":{"ha":625,"x_min":-24,"x_max":617,"o":"m 149 971 l 419 971 q 512 950 472 971 q 576 892 551 929 q 608 802 600 854 q 606 688 617 750 l 533 281 q 497 169 524 221 q 433 81 471 118 q 351 22 396 43 q 257 0 306 0 l -24 0 l 149 971 m 160 8 l 229 8 q 292 49 265 8 q 332 168 318 90 l 444 806 q 442 921 458 879 q 383 963 425 963 l 329 963 l 160 8 z "},"…":{"ha":849,"x_min":-43,"x_max":750,"o":"m -36 88 q 3 155 -29 128 q 75 182 35 182 q 138 155 115 182 q 154 88 161 128 q 115 19 147 47 q 42 -8 82 -8 q -21 19 1 -8 q -36 88 -43 47 m 258 88 q 297 155 265 128 q 369 182 329 182 q 433 155 410 182 q 449 88 456 128 q 409 19 442 47 q 336 -8 376 -8 q 274 19 296 -8 q 258 88 251 47 m 553 88 q 592 155 560 128 q 664 182 624 182 q 727 155 704 182 q 743 88 750 128 q 703 19 736 47 q 631 -8 671 -8 q 568 19 590 -8 q 553 88 546 47 z "},"!":{"ha":476,"x_min":67,"x_max":429,"o":"m 193 207 l 185 207 l 218 971 l 429 971 l 193 207 m 74 82 q 113 149 81 122 q 185 176 144 176 q 248 149 225 176 q 264 82 271 122 q 224 14 257 42 q 151 -14 192 -14 q 89 14 111 -14 q 74 82 67 42 z "},".":{"ha":263,"x_min":-43,"x_max":161,"o":"m -36 82 q 3 149 -29 122 q 75 176 35 176 q 138 149 115 176 q 154 82 161 122 q 115 14 147 42 q 42 -14 82 -14 q -21 14 1 -14 q -36 82 -43 42 z "},",":{"ha":272,"x_min":-37,"x_max":160,"o":"m 107 6 q 38 -14 69 -14 q -17 6 3 -14 q -37 63 -37 26 q -4 142 -37 108 q 76 176 29 176 q 138 149 117 176 q 160 71 160 122 q 145 -8 160 29 q 105 -75 131 -46 q 43 -123 79 -104 q -36 -146 7 -142 l -36 -136 q 28 -118 -1 -132 q 77 -85 57 -104 q 106 -42 97 -65 q 107 6 114 -18 z "},":":{"ha":263,"x_min":-42,"x_max":236,"o":"m 39 503 q 77 573 46 546 q 150 600 108 600 q 213 574 190 600 q 229 507 236 547 q 189 438 222 465 q 115 410 156 410 q 53 436 75 410 q 39 503 32 463 m -35 89 q 4 156 -28 129 q 76 183 36 183 q 140 156 117 183 q 156 89 163 129 q 115 21 149 49 q 42 -7 82 -7 q -20 21 1 -7 q -35 89 -42 49 z "},";":{"ha":272,"x_min":-37,"x_max":242,"o":"m 44 506 q 83 573 51 546 q 156 600 115 600 q 219 573 196 600 q 235 506 242 546 q 195 438 228 465 q 122 410 163 410 q 60 438 82 410 q 44 506 38 465 m 107 6 q 38 -14 69 -14 q -17 6 3 -14 q -37 63 -37 26 q -4 142 -37 108 q 76 176 29 176 q 138 149 117 176 q 160 71 160 122 q 145 -8 160 29 q 105 -75 131 -46 q 43 -123 79 -104 q -36 -146 7 -142 l -36 -136 q 28 -118 -1 -132 q 77 -85 57 -104 q 106 -42 97 -65 q 107 6 114 -18 z "},"”":{"ha":529,"x_min":106,"x_max":560,"o":"m 250 814 q 181 794 213 794 q 126 815 146 794 q 106 871 106 835 q 139 951 106 917 q 219 985 172 985 q 281 958 260 985 q 303 879 303 931 q 288 800 303 838 q 248 733 274 763 q 186 685 222 704 q 107 663 150 667 l 107 672 q 171 690 142 676 q 220 724 200 704 q 249 767 240 743 q 250 814 257 790 m 507 814 q 438 794 469 794 q 383 815 403 794 q 363 871 363 835 q 396 951 363 917 q 476 985 429 985 q 538 958 517 985 q 560 879 560 931 q 545 800 560 838 q 505 733 531 763 q 443 685 479 704 q 364 663 407 667 l 364 672 q 428 690 399 676 q 477 724 457 704 q 506 767 497 743 q 507 814 514 790 z "},"“":{"ha":536,"x_min":86,"x_max":549,"o":"m 139 819 q 208 839 176 839 q 264 819 243 839 q 285 763 285 799 q 276 719 285 740 q 251 683 267 699 q 214 658 235 667 q 169 649 193 649 q 108 676 129 649 q 86 754 86 704 q 101 833 86 796 q 142 900 115 871 q 204 948 168 929 q 282 971 240 967 l 282 961 q 218 943 247 957 q 169 910 189 929 q 141 867 150 890 q 139 819 132 843 m 403 819 q 472 839 440 839 q 528 819 507 839 q 549 763 549 799 q 540 719 549 740 q 515 683 531 699 q 478 658 499 667 q 433 649 457 649 q 372 676 393 649 q 350 754 350 704 q 365 833 350 796 q 406 900 379 871 q 468 948 432 929 q 546 971 504 967 l 546 961 q 482 943 511 957 q 433 910 453 929 q 405 867 414 890 q 403 819 396 843 z "},"’":{"ha":272,"x_min":106,"x_max":303,"o":"m 250 814 q 181 794 213 794 q 126 815 146 794 q 106 871 106 835 q 139 951 106 917 q 219 985 172 985 q 281 958 260 985 q 303 879 303 931 q 288 800 303 838 q 248 733 274 763 q 186 685 222 704 q 108 663 150 667 l 107 672 q 171 690 142 676 q 220 724 200 704 q 249 767 240 743 q 250 814 257 790 z "},"‘":{"ha":272,"x_min":86,"x_max":285,"o":"m 139 819 q 208 839 176 839 q 264 819 243 839 q 285 763 285 799 q 276 719 285 740 q 251 683 267 699 q 214 658 235 667 q 169 649 193 649 q 108 676 129 649 q 86 754 86 704 q 101 833 86 796 q 142 900 115 871 q 204 948 168 929 q 282 971 240 967 l 282 961 q 218 943 247 957 q 169 910 189 929 q 141 867 150 890 q 139 819 132 843 z "},"?":{"ha":601,"x_min":31,"x_max":578,"o":"m 150 897 q 250 961 190 938 q 376 985 310 985 q 525 938 472 985 q 578 807 578 890 q 537 664 578 732 q 435 538 496 596 q 306 431 375 479 q 183 346 238 382 l 158 207 l 150 207 l 200 492 q 288 567 249 529 q 353 647 326 604 q 394 740 381 690 q 408 854 408 790 q 318 965 408 965 q 233 945 278 965 q 156 892 188 925 l 150 897 m 38 82 q 76 149 44 122 q 149 176 108 176 q 212 149 189 176 q 228 82 235 122 q 188 14 221 42 q 115 -14 156 -14 q 53 14 75 -14 q 38 82 31 42 z "},"|":{"ha":79,"x_min":-72,"x_max":142,"o":"m 133 1042 l 142 1042 l -64 -124 l -72 -124 l 133 1042 z "},"/":{"ha":365,"x_min":-74,"x_max":428,"o":"m 417 1042 l 428 1042 l -62 -124 l -74 -124 l 417 1042 z "},"\\":{"ha":364,"x_min":132,"x_max":221,"o":"m 211 -124 l 132 1042 l 143 1042 l 221 -124 l 211 -124 z "},"⁄":{"ha":365,"x_min":-74,"x_max":428,"o":"m 417 1042 l 428 1042 l -62 -124 l -74 -124 l 417 1042 z "},"<":{"ha":474,"x_min":26,"x_max":461,"o":"m 396 253 l 26 432 l 26 438 l 461 618 l 458 606 l 50 436 l 49 433 l 399 265 l 396 253 z "},">":{"ha":472,"x_min":-7,"x_max":428,"o":"m 58 618 l 428 439 l 428 433 l -7 253 l -4 265 l 404 435 l 406 438 l 56 606 l 58 618 z "},"%":{"ha":1022,"x_min":65,"x_max":956,"o":"m 74 703 l 83 758 q 117 844 92 804 q 180 915 143 885 q 262 962 217 944 q 356 979 307 979 q 443 963 404 979 q 508 916 482 946 q 545 846 535 886 q 547 758 556 806 l 538 703 q 505 617 529 657 q 444 547 481 576 q 364 501 408 518 q 272 483 319 483 q 184 501 224 483 q 117 548 144 518 q 78 618 90 578 q 74 703 65 658 m 282 893 l 225 568 q 271 492 213 492 q 339 568 326 492 l 396 893 q 392 950 403 929 q 353 971 381 971 q 307 950 325 971 q 282 893 289 929 m 242 0 l 774 971 l 786 971 l 254 0 l 242 0 m 472 213 l 482 268 q 515 354 490 314 q 576 424 540 394 q 658 472 613 454 q 750 489 703 489 q 838 472 799 489 q 905 424 878 454 q 944 353 932 393 q 947 268 956 313 l 938 213 q 905 126 929 167 q 844 57 881 86 q 763 10 807 28 q 671 -7 718 -7 q 583 10 622 -7 q 516 58 543 28 q 476 128 489 88 q 472 213 464 168 m 681 403 l 624 78 q 671 1 611 1 q 739 78 726 1 l 796 403 q 792 460 803 439 q 753 481 781 481 q 706 460 725 481 q 681 403 688 439 z "},"‰":{"ha":1557,"x_min":65,"x_max":1490,"o":"m 74 703 l 83 758 q 117 844 92 804 q 178 915 142 885 q 258 962 214 944 q 350 979 303 979 q 438 962 399 979 q 505 914 478 944 q 544 843 532 883 q 547 758 556 803 l 538 703 q 505 617 529 657 q 444 547 481 576 q 364 501 408 518 q 272 483 319 483 q 184 501 224 483 q 117 548 144 518 q 78 618 90 578 q 74 703 65 658 m 282 893 l 225 568 q 271 492 213 492 q 339 568 326 492 l 396 893 q 392 950 403 929 q 353 971 381 971 q 307 950 325 971 q 282 893 289 929 m 243 0 l 775 971 l 783 971 l 251 0 l 243 0 m 486 213 l 496 268 q 529 354 504 314 q 590 424 554 394 q 672 472 626 454 q 764 489 717 489 q 852 472 813 489 q 919 424 892 454 q 958 353 946 393 q 961 268 969 313 l 951 213 q 919 126 943 167 q 858 57 894 86 q 776 10 821 28 q 685 -7 732 -7 q 597 10 636 -7 q 530 58 557 28 q 490 128 503 88 q 486 213 478 168 m 1007 213 l 1017 268 q 1050 354 1025 314 q 1112 424 1075 394 q 1193 472 1149 454 q 1285 489 1238 489 q 1373 472 1333 489 q 1440 424 1413 454 q 1478 353 1467 393 q 1482 268 1490 313 l 1472 213 q 1440 126 1464 167 q 1378 57 1415 86 q 1297 10 1342 28 q 1206 -7 1253 -7 q 1117 10 1157 -7 q 1051 58 1078 28 q 1011 128 1024 88 q 1007 213 999 168 m 694 403 l 638 78 q 685 1 625 1 q 753 78 740 1 l 810 403 q 803 458 817 435 q 767 481 790 481 q 722 458 743 481 q 694 403 701 435 m 1215 403 l 1158 78 q 1206 1 1146 1 q 1274 78 1261 1 l 1331 403 q 1324 458 1338 435 q 1288 481 1311 481 q 1243 458 1264 481 q 1215 403 1222 435 z "},"^":{"ha":410,"x_min":40,"x_max":379,"o":"m 368 515 l 288 943 l 285 943 l 53 515 l 40 515 l 289 971 l 294 971 l 379 515 l 368 515 z "},"*":{"ha":356,"x_min":88,"x_max":389,"o":"m 104 875 l 160 939 l 235 838 l 225 971 l 303 971 l 244 838 l 357 939 l 389 875 l 250 829 l 372 781 l 318 715 l 242 818 l 253 683 l 175 683 l 232 818 l 121 715 l 88 781 l 228 829 l 104 875 z "},"#":{"ha":475,"x_min":3,"x_max":468,"o":"m 14 360 l 100 360 l 176 644 l 86 644 l 89 653 l 179 653 l 265 971 l 276 971 l 190 653 l 360 653 l 446 971 l 457 971 l 371 653 l 468 653 l 465 644 l 368 644 l 292 360 l 394 360 l 392 351 l 290 351 l 194 0 l 183 0 l 279 351 l 110 351 l 14 0 l 3 0 l 99 351 l 11 351 l 14 360 m 281 360 l 357 644 l 188 644 l 111 360 l 281 360 z "},"[":{"ha":325,"x_min":-64,"x_max":390,"o":"m -64 -71 l 136 1063 l 390 1063 l 389 1054 l 317 1054 l 119 -62 l 193 -62 l 190 -71 l -64 -71 z "},"]":{"ha":325,"x_min":-64,"x_max":390,"o":"m 390 1062 l 190 -71 l -64 -71 l -62 -62 l 10 -62 l 207 1054 l 133 1054 l 136 1062 l 390 1062 z "},"(":{"ha":385,"x_min":19,"x_max":449,"o":"m 440 1063 l 449 1063 q 303 801 363 944 q 217 496 244 657 q 197 191 188 335 q 250 -71 206 47 l 242 -71 q 133 37 179 -25 q 60 172 88 99 q 26 326 33 244 q 33 492 19 407 q 84 657 49 575 q 172 813 119 739 q 293 950 225 886 q 440 1063 361 1014 z "},")":{"ha":385,"x_min":-61,"x_max":365,"o":"m -53 -71 l -61 -71 q 84 191 25 47 q 171 496 143 335 q 191 801 200 657 q 138 1062 182 944 l 146 1062 q 254 955 208 1017 q 327 820 300 893 q 361 666 354 747 q 354 500 368 585 q 303 335 339 417 q 215 179 268 253 q 94 42 163 106 q -53 -71 26 -22 z "},"{":{"ha":468,"x_min":36,"x_max":535,"o":"m 60 500 q 126 519 104 500 q 156 581 149 538 l 204 858 q 269 1017 224 971 q 407 1063 315 1063 l 535 1063 l 533 1054 l 531 1054 q 401 950 419 1054 l 356 690 q 276 544 339 592 q 97 497 213 497 l 97 494 q 288 301 322 494 l 242 42 q 333 -62 224 -62 l 336 -62 l 335 -71 l 207 -71 q 86 -25 115 -71 q 76 133 57 21 l 125 411 q 129 438 128 424 q 125 465 131 453 q 104 484 119 476 q 58 492 89 492 l 36 492 l 38 500 l 60 500 z "},"}":{"ha":468,"x_min":-64,"x_max":435,"o":"m 411 492 q 344 473 367 492 q 315 411 322 454 l 267 133 q 201 -25 247 21 q 64 -71 156 -71 l -64 -71 l -62 -62 l -60 -62 q 69 42 51 -62 l 115 301 q 195 447 132 400 q 374 494 258 494 l 374 497 q 183 690 149 497 l 229 950 q 138 1054 247 1054 l 135 1054 l 136 1062 l 264 1062 q 385 1017 356 1062 q 394 858 414 971 l 346 581 q 342 553 343 568 q 346 527 340 539 q 367 508 351 515 q 413 500 382 500 l 435 500 l 433 492 l 411 492 z "},"&":{"ha":621,"x_min":-29,"x_max":657,"o":"m -10 232 l -8 239 q 70 408 10 342 q 218 488 131 474 l 253 493 l 253 496 l 219 500 q 116 563 146 510 q 101 708 86 617 l 104 726 q 142 825 114 779 q 210 905 169 871 q 303 959 251 939 q 411 979 354 979 q 524 943 482 979 q 593 818 565 907 l 428 793 q 392 971 460 971 q 340 941 363 971 q 308 860 318 911 l 272 654 q 262 575 264 606 q 266 528 260 544 q 287 505 272 511 q 328 499 301 499 l 414 499 l 440 646 l 607 646 l 581 499 l 657 499 l 656 490 l 579 490 l 506 75 q 376 14 451 36 q 225 -8 300 -8 q 33 56 96 -8 q -10 232 -29 119 m 165 119 q 232 0 144 0 q 301 20 271 0 q 338 69 332 40 l 413 490 l 326 490 q 277 483 297 490 q 242 454 257 475 q 218 398 228 433 q 199 307 208 363 l 165 119 z "},"˜":{"ha":358,"x_min":96,"x_max":397,"o":"m 103 828 l 96 831 q 219 922 156 922 q 258 914 240 922 l 301 892 q 338 883 321 883 q 392 917 369 883 l 397 913 q 275 819 339 819 q 232 829 251 819 l 204 843 q 172 858 183 854 q 151 861 161 861 q 126 854 138 861 q 103 828 115 847 z "},"+":{"ha":528,"x_min":26,"x_max":483,"o":"m 26 429 l 28 438 l 250 438 l 292 669 l 300 669 l 260 438 l 483 438 l 482 429 l 258 429 l 217 197 l 208 197 l 249 429 l 26 429 z "},"-":{"ha":404,"x_min":25,"x_max":360,"o":"m 360 438 l 358 429 l 25 429 l 26 438 l 360 438 z "},"–":{"ha":651,"x_min":26,"x_max":607,"o":"m 607 438 l 606 429 l 26 429 l 28 438 l 607 438 z "},"—":{"ha":917,"x_min":26,"x_max":872,"o":"m 872 438 l 871 429 l 26 429 l 28 438 l 872 438 z "},"_":{"ha":500,"x_min":-51,"x_max":381,"o":"m 381 8 l 379 0 l -51 0 l -50 8 l 381 8 z "},"=":{"ha":524,"x_min":8,"x_max":496,"o":"m 496 529 l 494 521 l 42 521 l 43 529 l 496 529 m 463 340 l 461 332 l 8 332 l 10 340 l 463 340 z "},"•":{"ha":394,"x_min":24,"x_max":351,"o":"m 160 267 q 61 306 99 267 q 24 404 24 346 q 40 476 24 442 q 81 535 56 510 q 142 575 107 560 q 214 590 176 590 q 313 552 275 590 q 351 456 351 514 q 335 384 351 418 q 292 324 319 350 q 231 282 265 297 q 160 267 197 267 z "},"¡":{"ha":400,"x_min":-50,"x_max":308,"o":"m 111 606 q 150 674 118 646 q 222 701 182 701 q 285 674 263 701 q 301 606 308 646 q 262 538 294 565 q 189 511 229 511 q 126 538 149 511 q 111 606 104 565 m 186 481 l 161 -239 l -50 -239 l 178 481 l 186 481 z "},"†":{"ha":540,"x_min":78,"x_max":549,"o":"m 332 733 l 549 733 l 547 725 l 331 725 l 150 -229 l 139 -229 l 294 725 l 78 725 l 79 733 l 296 733 l 335 971 l 376 971 l 332 733 z "},"‡":{"ha":540,"x_min":-49,"x_max":549,"o":"m 329 733 l 549 733 l 547 725 l 328 725 l 257 369 l 203 18 l 422 18 l 421 10 l 201 10 l 165 -229 l 124 -229 l 172 10 l -49 10 l -47 18 l 174 18 l 244 369 l 297 725 l 78 725 l 79 733 l 299 733 l 335 971 l 376 971 l 329 733 z "},"ˆ":{"ha":364,"x_min":89,"x_max":382,"o":"m 260 947 l 268 947 l 382 789 l 374 789 l 246 853 l 97 789 l 89 789 l 260 947 z "},"°":{"ha":321,"x_min":67,"x_max":336,"o":"m 179 597 q 97 634 126 597 q 76 724 67 671 q 95 773 81 750 q 129 813 110 796 q 174 839 149 829 q 224 849 199 849 q 306 813 276 849 q 326 724 336 776 q 274 634 317 671 q 179 597 232 597 m 222 840 q 133 806 174 840 q 85 724 93 772 q 104 640 76 675 q 181 606 132 606 q 228 615 206 606 q 270 640 251 624 q 301 677 289 656 q 318 724 314 699 q 299 806 326 771 q 222 840 271 840 z "},"'":{"ha":201,"x_min":121,"x_max":250,"o":"m 121 971 l 250 971 l 142 688 l 133 688 l 121 971 z "},"\"":{"ha":385,"x_min":121,"x_max":433,"o":"m 121 971 l 250 971 l 142 688 l 133 688 l 121 971 m 304 971 l 433 971 l 325 688 l 317 688 l 304 971 z "},"‚":{"ha":272,"x_min":-37,"x_max":160,"o":"m 107 6 q 38 -14 69 -14 q -17 6 3 -14 q -37 63 -37 26 q -4 142 -37 108 q 76 176 29 176 q 138 149 117 176 q 160 71 160 122 q 145 -8 160 29 q 105 -75 131 -46 q 43 -123 79 -104 q -36 -146 7 -142 l -36 -136 q 28 -118 -1 -132 q 77 -85 57 -104 q 106 -42 97 -65 q 107 6 114 -18 z "},"„":{"ha":529,"x_min":-37,"x_max":417,"o":"m 107 6 q 38 -14 69 -14 q -17 6 3 -14 q -37 63 -37 26 q -4 142 -37 108 q 76 176 29 176 q 138 149 117 176 q 160 71 160 122 q 145 -8 160 29 q 105 -75 131 -46 q 43 -123 79 -104 q -36 -146 7 -142 l -36 -136 q 28 -118 -1 -132 q 77 -85 57 -104 q 106 -42 97 -65 q 107 6 114 -18 m 364 6 q 294 -14 326 -14 q 240 6 260 -14 q 219 63 219 26 q 253 142 219 108 q 333 176 286 176 q 395 149 374 176 q 417 71 417 122 q 402 -8 417 29 q 362 -75 388 -46 q 300 -123 336 -104 q 221 -146 264 -142 l 221 -136 q 285 -118 256 -132 q 334 -85 314 -104 q 363 -42 354 -65 q 364 6 371 -18 z "},"~":{"ha":543,"x_min":3,"x_max":501,"o":"m 3 299 q 182 450 79 450 q 225 444 201 450 q 281 426 249 439 l 294 421 q 361 399 336 406 q 406 392 386 392 q 494 451 469 392 l 501 450 q 338 290 439 290 q 297 296 319 290 q 233 317 274 301 q 158 342 186 335 q 106 349 129 349 q 8 296 33 349 l 3 299 z "},"´":{"ha":239,"x_min":89,"x_max":285,"o":"m 89 789 l 160 947 l 285 947 l 97 789 l 89 789 z "},"`":{"ha":239,"x_min":117,"x_max":257,"o":"m 249 789 l 117 947 l 242 947 l 257 789 l 249 789 z "},"ˇ":{"ha":364,"x_min":117,"x_max":410,"o":"m 125 947 l 251 883 l 401 947 l 410 947 l 240 789 l 232 789 l 117 947 l 125 947 z "},"˘":{"ha":325,"x_min":103,"x_max":368,"o":"m 360 931 l 368 931 q 315 831 357 869 q 217 792 272 792 q 132 831 161 792 q 114 931 103 869 l 122 931 q 149 882 117 903 q 229 861 181 861 q 316 881 278 861 q 360 931 354 901 z "},"˝":{"ha":393,"x_min":89,"x_max":439,"o":"m 256 789 l 326 947 l 439 947 l 264 789 l 256 789 m 89 789 l 160 947 l 272 947 l 97 789 l 89 789 z "},"˙":{"ha":188,"x_min":97,"x_max":224,"o":"m 101 865 q 125 906 106 890 q 169 922 144 922 q 210 906 196 922 q 219 865 224 890 q 196 824 215 840 q 150 807 176 807 q 111 823 125 807 q 101 865 97 839 z "},"˛":{"ha":263,"x_min":-72,"x_max":121,"o":"m 121 -114 q 65 -176 97 -154 q 0 -199 33 -199 q -52 -181 -32 -199 q -72 -135 -72 -162 q -59 -92 -72 -112 q -27 -53 -46 -71 q 13 -22 -8 -36 q 53 1 35 -8 l 67 1 q 17 -40 38 -14 q -3 -100 -3 -67 q 11 -146 -3 -128 q 46 -164 25 -164 q 79 -151 61 -164 q 115 -110 97 -139 l 121 -114 z "},"¸":{"ha":288,"x_min":-76,"x_max":144,"o":"m -69 -137 q -39 -165 -60 -154 q 4 -175 -18 -175 q 47 -160 31 -175 q 63 -122 63 -146 q -3 -71 63 -81 l 38 -6 l 46 -6 l 22 -47 q 110 -68 76 -47 q 144 -121 144 -89 q 113 -174 144 -153 q 36 -194 82 -194 q -31 -181 0 -194 q -76 -143 -61 -167 l -69 -137 z "},"B":{"ha":601,"x_min":-22,"x_max":604,"o":"m 590 721 q 563 636 582 674 q 516 571 543 599 q 456 526 489 543 q 390 504 424 508 l 368 501 l 368 497 l 389 494 q 455 468 425 489 q 503 416 485 447 q 530 346 522 385 q 531 265 538 307 l 525 232 q 496 149 518 190 q 440 74 474 107 q 363 21 407 42 q 267 0 319 0 l -22 0 l 149 971 l 415 971 q 498 954 461 971 q 559 908 535 938 q 594 838 583 878 q 596 750 604 797 l 590 721 m 308 504 q 367 542 349 504 q 401 672 385 579 l 424 799 q 435 877 432 846 q 436 927 439 908 q 422 954 433 946 q 389 963 410 963 l 328 963 l 247 504 l 308 504 m 361 325 q 363 458 378 419 q 307 496 347 496 l 246 496 l 160 8 l 235 8 q 298 44 278 8 q 333 172 318 79 l 361 325 z "},"C":{"ha":574,"x_min":-1,"x_max":615,"o":"m 94 690 q 134 812 106 757 q 205 905 163 867 q 301 964 247 943 q 417 985 354 985 q 533 962 482 985 q 615 894 583 939 l 610 889 q 537 951 581 929 q 444 972 493 972 q 347 935 382 972 q 297 818 313 897 l 182 163 q 184 35 167 71 q 264 -1 201 -1 q 338 9 301 -1 q 406 38 374 19 q 465 81 439 56 q 504 136 490 107 l 513 132 q 401 24 472 63 q 243 -14 331 -14 q 57 69 115 -14 q 24 293 -1 151 l 94 690 z "},"A":{"ha":490,"x_min":-100,"x_max":417,"o":"m 279 971 l 321 971 l 417 0 l 229 0 l 200 303 l 29 303 l -89 0 l -100 0 l 279 971 m 33 311 l 199 311 l 165 643 l 163 643 l 33 311 z "},"±":{"ha":526,"x_min":-19,"x_max":493,"o":"m 38 499 l 260 499 l 300 731 l 310 731 l 269 499 l 493 499 l 492 490 l 267 490 l 226 258 l 218 258 l 258 490 l 35 490 l 38 499 m 439 189 l 438 181 l -19 181 l -18 189 l 439 189 z "},"·":{"ha":213,"x_min":22,"x_max":176,"o":"m 28 449 q 57 499 33 479 q 111 519 81 519 q 160 499 143 519 q 171 449 176 479 q 141 397 165 417 q 86 376 117 376 q 39 397 56 376 q 28 449 22 417 z "},"¯":{"ha":342,"x_min":100,"x_max":372,"o":"m 371 860 l 100 860 l 101 868 l 372 868 l 371 860 z "},"F":{"ha":483,"x_min":-24,"x_max":536,"o":"m 326 963 l 243 486 l 422 486 l 421 478 l 242 478 l 157 0 l -24 0 l 147 971 l 536 971 l 535 963 l 326 963 z "},"G":{"ha":644,"x_min":-1,"x_max":629,"o":"m 93 690 q 134 813 106 758 q 205 905 163 867 q 303 964 247 943 q 422 985 358 985 q 544 962 490 985 q 629 896 597 939 l 624 890 q 556 947 599 926 q 464 967 513 967 q 353 928 396 967 q 297 818 310 889 l 179 147 q 274 -4 151 -4 q 306 -2 289 -4 q 338 4 324 0 l 419 468 l 307 468 l 308 476 l 588 476 l 511 43 q 452 20 485 31 q 385 2 419 10 q 317 -10 351 -6 q 253 -14 282 -14 q 58 68 118 -14 q 24 293 -1 150 l 93 690 z "},"¿":{"ha":601,"x_min":-15,"x_max":519,"o":"m 513 606 q 474 538 506 565 q 401 511 442 511 q 338 538 361 511 q 322 606 315 565 q 362 674 329 646 q 435 701 394 701 q 497 674 475 701 q 513 606 519 646 m 413 -147 q 313 -211 372 -187 q 186 -235 253 -235 q 38 -187 92 -235 q -15 -57 -15 -140 q 26 86 -15 18 q 127 213 67 154 q 256 319 188 271 q 379 404 324 368 l 392 481 l 400 481 l 361 258 q 265 173 304 214 q 201 91 225 132 q 165 7 176 50 q 154 -85 154 -36 q 176 -185 154 -156 q 243 -215 199 -215 q 328 -195 283 -215 q 406 -142 374 -175 l 413 -147 z "},"¶":{"ha":508,"x_min":67,"x_max":557,"o":"m 326 971 l 335 971 l 157 -42 l 149 -42 l 254 558 q 113 615 160 558 q 83 765 67 671 q 166 915 100 858 q 326 971 232 971 m 549 971 l 557 971 l 379 -42 l 371 -42 l 549 971 z "},"¬":{"ha":722,"x_min":32,"x_max":696,"o":"m 653 296 l 583 296 l 614 468 l 32 468 l 44 538 l 696 538 l 653 296 z "},"©":{"ha":958,"x_min":15,"x_max":939,"o":"m 33 478 q 102 671 51 581 q 224 828 153 761 q 383 933 296 894 q 564 971 471 971 q 731 933 657 971 q 853 828 806 894 q 920 671 901 761 q 921 478 939 581 q 852 285 903 375 q 730 128 801 194 q 571 23 658 61 q 390 -15 483 -15 q 223 23 297 -15 q 101 128 149 61 q 34 285 53 194 q 33 478 15 375 m 46 478 q 46 288 28 376 q 110 135 64 200 q 229 33 157 71 q 393 -4 301 -4 q 569 33 483 -4 q 724 135 654 71 q 842 288 793 200 q 908 478 890 376 q 909 668 926 581 q 844 821 892 756 q 725 923 797 886 q 563 960 653 960 q 387 922 472 960 q 231 820 301 885 q 113 667 161 756 q 46 478 64 579 m 265 542 q 299 635 274 592 q 361 709 325 678 q 442 758 397 740 q 538 775 488 775 q 635 756 590 775 q 708 701 681 736 l 701 696 q 641 743 681 724 q 564 763 601 763 q 497 740 524 763 q 464 676 471 717 l 396 288 q 410 219 389 246 q 476 193 432 193 q 529 202 501 193 q 583 226 557 211 q 631 262 608 242 q 667 306 653 282 l 672 301 q 575 214 636 246 q 442 182 514 182 q 349 199 390 182 q 282 248 308 217 q 245 322 256 279 q 243 415 235 364 l 265 542 z "},"®":{"ha":456,"x_min":85,"x_max":483,"o":"m 249 607 q 176 623 208 607 q 123 666 144 639 q 93 731 101 693 q 92 810 85 768 q 120 888 99 851 q 173 952 142 925 q 242 995 204 979 q 319 1011 281 1011 q 392 995 360 1011 q 445 952 424 979 q 475 888 467 925 q 476 810 483 851 q 448 731 469 768 q 395 666 426 693 q 326 623 364 639 q 249 607 289 607 m 250 615 q 324 631 288 615 q 390 672 360 646 q 440 734 419 699 q 468 810 461 769 q 467 885 475 850 q 438 946 458 919 q 387 988 418 972 q 318 1003 356 1003 q 244 988 281 1003 q 178 946 208 972 q 128 885 149 919 q 100 810 107 850 q 101 734 93 769 q 130 672 110 699 q 181 631 150 646 q 250 615 213 615 m 314 921 q 356 906 340 921 q 367 868 371 890 l 365 858 q 341 823 361 838 q 297 808 321 808 l 297 806 q 303 805 297 806 q 317 801 310 804 q 331 791 325 799 q 339 771 338 783 l 346 697 l 294 697 l 289 783 q 272 806 288 806 l 268 806 l 249 697 l 200 697 l 239 921 l 314 921 m 269 814 l 292 814 q 314 847 307 814 l 319 879 q 318 903 322 894 q 306 913 314 913 l 288 913 l 269 814 z "},"¢":{"ha":471,"x_min":-14,"x_max":481,"o":"m 407 746 l 418 746 l 149 -68 l 138 -68 l 407 746 m 39 468 q 72 561 47 518 q 134 635 97 604 q 216 684 171 667 q 311 701 261 701 q 408 682 364 701 q 481 628 453 663 l 474 622 q 413 669 453 650 q 338 689 374 689 q 271 666 297 689 q 238 603 244 643 l 147 92 q 162 24 140 49 q 228 -1 183 -1 q 280 7 253 -1 q 333 31 307 15 q 381 66 358 46 q 417 108 403 86 l 424 106 q 328 18 389 50 q 194 -14 267 -14 q 101 3 142 -14 q 33 52 60 21 q -3 126 7 83 q -6 219 -14 168 l 39 468 z "},"÷":{"ha":590,"x_min":25,"x_max":546,"o":"m 225 625 q 264 692 232 665 q 336 719 296 719 q 399 692 376 719 q 415 625 422 665 q 376 557 408 585 q 303 529 343 529 q 240 557 263 529 q 225 625 218 585 m 544 429 l 25 429 l 26 438 l 546 438 l 544 429 m 158 243 q 197 310 165 283 q 269 338 229 338 q 333 310 310 338 q 349 243 356 283 q 308 175 342 203 q 235 147 275 147 q 173 175 194 147 q 158 243 151 203 z "},"¤":{"ha":499,"x_min":1,"x_max":497,"o":"m 429 300 l 406 279 l 357 339 q 288 302 325 315 q 214 289 250 289 q 88 339 138 289 l 18 279 l 1 300 l 72 358 q 44 494 32 417 q 70 566 51 531 q 119 629 89 601 l 71 688 l 93 707 l 142 649 q 211 685 174 672 q 286 699 249 699 q 355 685 322 699 q 411 647 388 672 l 482 707 l 497 688 l 428 628 q 454 494 468 571 q 381 360 442 418 l 429 300 m 72 494 q 75 425 67 457 q 103 369 83 393 q 152 331 122 344 q 218 317 182 317 q 289 331 254 317 q 352 369 324 344 q 401 425 381 393 q 426 494 421 457 q 425 563 433 531 q 397 619 417 596 q 347 657 376 643 q 281 671 317 671 q 210 657 244 671 q 147 619 175 643 q 99 563 118 596 q 72 494 79 531 z "},"£":{"ha":621,"x_min":0,"x_max":661,"o":"m 154 531 l 192 744 q 283 921 211 857 q 463 985 354 985 q 575 965 521 985 q 661 914 629 946 l 654 908 q 590 951 629 935 q 513 967 550 967 q 433 939 464 967 q 393 858 403 911 l 335 531 l 501 531 l 500 522 l 333 522 l 319 442 q 226 224 300 328 q 13 11 151 121 l 11 8 l 475 8 l 474 0 l 0 0 l 1 10 q 42 66 25 38 q 74 135 60 94 q 100 237 88 176 q 129 386 113 297 l 153 522 l 42 522 l 43 531 l 154 531 z "},"×":{"ha":424,"x_min":-6,"x_max":408,"o":"m 404 610 l 408 603 l 208 433 l 349 263 l 342 256 l 201 426 l 0 256 l -6 263 l 196 433 l 56 603 l 63 610 l 203 439 l 404 610 z "},"¦":{"ha":79,"x_min":-58,"x_max":136,"o":"m 136 1013 l 57 567 l 49 567 l 128 1013 l 136 1013 m -58 -42 l 21 407 l 29 407 l -50 -42 l -58 -42 z "},"ª":{"ha":343,"x_min":54,"x_max":383,"o":"m 61 633 l 68 676 q 121 755 78 728 q 256 796 164 782 l 278 922 q 243 971 286 971 q 187 958 218 971 q 139 928 156 944 l 135 933 q 190 966 154 953 q 261 979 225 979 q 351 945 318 979 q 374 858 383 911 l 319 550 l 213 550 l 219 590 l 218 590 q 176 555 200 568 q 128 542 151 542 q 73 568 92 542 q 61 633 54 594 m 222 607 l 254 789 q 203 771 215 782 q 183 724 190 760 l 164 613 q 165 583 161 594 q 179 572 169 572 q 222 607 199 572 z "},"º":{"ha":349,"x_min":65,"x_max":381,"o":"m 258 979 q 310 969 286 979 q 350 940 333 958 q 374 898 367 922 q 376 847 381 874 l 347 683 q 328 633 343 657 q 291 590 313 608 q 242 562 269 572 q 188 551 215 551 q 136 562 160 551 q 96 590 113 572 q 72 633 79 608 q 69 683 65 657 l 99 847 q 118 899 103 875 q 156 940 133 922 q 204 969 178 958 q 258 979 231 979 m 260 971 q 232 958 244 971 q 217 925 219 944 l 160 606 q 165 572 157 585 q 188 560 172 560 q 229 606 221 560 l 286 925 q 282 958 289 946 q 260 971 275 971 z "},"ß":{"ha":539,"x_min":-86,"x_max":547,"o":"m 94 0 l -86 0 l 53 790 q 85 867 60 832 q 147 929 110 903 q 232 970 185 956 q 332 985 279 985 q 425 970 383 985 q 495 929 467 956 q 535 867 524 903 q 540 790 547 832 l 538 775 q 512 703 531 738 q 467 641 493 668 q 408 596 440 614 q 340 574 375 578 l 318 571 l 318 568 l 339 565 q 407 538 378 560 q 455 483 436 517 q 479 408 474 450 q 476 317 485 365 l 474 297 q 435 174 461 229 q 372 81 410 119 q 288 21 335 42 q 189 0 242 0 l 136 0 l 138 8 l 172 8 q 271 175 242 8 l 315 424 q 313 528 326 490 q 263 565 299 565 l 235 565 l 238 574 l 257 574 q 349 729 319 574 l 363 808 q 370 936 378 897 q 329 975 363 975 q 274 936 296 975 q 238 808 253 897 l 94 0 z "},"−":{"ha":526,"x_min":26,"x_max":483,"o":"m 483 438 l 482 429 l 26 429 l 28 438 l 483 438 z "},"V":{"ha":476,"x_min":71,"x_max":574,"o":"m 303 335 l 306 335 l 329 390 l 563 971 l 574 971 l 183 0 l 142 0 l 71 971 l 257 971 l 303 335 z "},"P":{"ha":599,"x_min":-24,"x_max":615,"o":"m 406 971 q 499 951 458 971 q 567 899 540 932 q 604 824 593 867 q 607 733 615 781 l 603 706 q 569 615 594 658 q 506 539 543 572 q 421 486 468 506 q 321 467 374 467 l 239 467 l 157 0 l -24 0 l 147 971 l 406 971 m 435 783 q 440 920 451 878 q 385 963 428 963 l 328 963 l 242 475 l 307 475 q 372 518 347 475 q 413 654 396 561 l 435 783 z "},"b":{"ha":544,"x_min":-36,"x_max":510,"o":"m 133 0 l -36 0 l 135 971 l 304 971 l 243 628 l 246 628 q 294 685 267 668 q 353 701 321 701 q 421 684 390 701 q 472 638 451 667 q 501 569 493 608 q 501 486 510 531 l 449 186 q 421 109 442 146 q 371 45 400 72 q 306 2 342 18 q 232 -14 269 -14 q 175 3 196 -14 q 147 64 154 21 l 144 64 l 133 0 m 151 108 q 151 72 149 90 q 160 38 154 53 q 177 14 167 24 q 199 4 188 4 q 232 24 217 4 q 253 71 247 43 l 351 622 q 347 668 356 650 q 321 686 339 686 q 294 677 308 686 q 268 653 281 668 q 247 617 256 638 q 233 576 238 597 l 151 108 z "},"˚":{"ha":240,"x_min":96,"x_max":279,"o":"m 103 874 q 138 934 110 910 q 203 958 167 958 q 259 934 239 958 q 272 874 279 910 q 237 814 265 839 q 174 789 208 789 q 117 814 138 789 q 103 874 96 839 m 113 874 q 124 819 106 842 q 175 797 143 797 q 233 819 207 797 q 264 874 258 842 q 252 928 271 906 q 201 950 233 950 q 144 928 169 950 q 113 874 118 906 z "},"¨":{"ha":361,"x_min":97,"x_max":397,"o":"m 101 865 q 125 906 106 890 q 169 922 144 922 q 209 906 194 922 q 219 865 224 890 q 195 823 215 839 q 150 807 175 807 q 111 823 125 807 q 101 865 97 839 m 275 865 q 299 906 279 890 q 343 922 319 922 q 383 906 369 922 q 393 865 397 890 q 369 823 389 839 q 324 807 350 807 q 285 823 300 807 q 275 865 271 839 z "},"ð":{"ha":544,"x_min":-15,"x_max":576,"o":"m 303 971 q 397 931 356 958 q 469 863 439 903 l 575 899 l 576 892 l 474 857 q 519 752 506 810 q 521 632 532 694 l 446 206 q 413 120 438 160 q 353 51 389 81 q 274 3 318 21 q 185 -14 231 -14 q 99 3 138 -14 q 34 51 60 21 q -3 121 8 81 q -7 206 -15 161 l 43 486 q 72 569 50 531 q 126 638 94 608 q 195 684 157 667 q 272 701 233 701 q 324 685 307 701 q 347 628 340 668 l 350 628 l 357 669 q 372 822 374 764 l 274 789 l 272 797 l 372 831 q 299 963 368 938 l 303 971 m 294 688 q 262 669 276 688 q 242 624 247 651 l 144 71 q 183 -6 132 -6 q 228 15 210 -6 q 253 71 246 35 l 342 578 q 334 654 349 621 q 294 688 319 688 z "},"R":{"ha":635,"x_min":-24,"x_max":615,"o":"m 406 971 q 499 951 458 971 q 567 899 540 932 q 604 824 593 867 q 607 733 615 781 l 604 719 q 573 634 596 675 q 515 560 550 593 q 437 507 481 528 q 344 482 393 486 l 343 478 q 399 466 372 478 q 447 434 426 454 q 481 388 468 414 q 496 333 494 361 l 507 0 l 321 0 l 311 358 q 308 423 310 399 q 299 460 306 447 q 283 476 293 472 q 254 481 272 481 l 242 481 l 157 0 l -24 0 l 147 971 l 406 971 m 435 783 q 440 920 451 878 q 385 963 428 963 l 328 963 l 243 489 l 308 489 q 374 532 349 489 q 414 668 399 575 l 435 783 z "},"d":{"ha":544,"x_min":-18,"x_max":581,"o":"m 251 64 l 249 64 q 198 3 225 21 q 135 -14 171 -14 q 67 2 97 -14 q 17 45 38 18 q -10 109 -3 72 q -11 186 -18 146 l 43 486 q 72 569 50 531 q 125 638 94 608 q 192 684 156 667 q 267 701 229 701 q 320 685 300 701 q 347 628 340 668 l 350 628 l 411 971 l 581 971 l 408 0 l 239 0 l 251 64 m 342 578 q 334 653 349 619 q 294 688 319 688 q 260 669 275 688 q 242 624 246 651 l 144 71 q 148 24 139 43 q 175 4 157 4 q 199 14 186 4 q 225 38 213 24 q 247 72 238 53 q 258 108 256 90 l 342 578 z "},"½":{"ha":585,"x_min":60,"x_max":524,"o":"m 157 939 l 115 919 l 113 926 l 206 971 l 235 971 l 161 553 l 89 553 l 157 939 m 468 971 l 479 971 l 71 0 l 60 0 l 468 971 m 332 388 q 435 426 375 426 q 499 405 475 426 q 524 346 524 383 q 499 272 524 306 q 443 214 475 238 l 368 157 q 317 114 336 133 q 285 75 297 94 l 476 75 l 464 0 l 256 0 q 292 108 267 57 q 365 214 318 158 l 382 233 q 438 310 422 281 q 454 367 454 339 q 411 414 454 414 q 338 382 374 414 l 332 388 z "},"O":{"ha":661,"x_min":10,"x_max":653,"o":"m 93 693 q 134 812 104 758 q 206 904 164 865 q 303 964 249 943 q 419 985 358 985 q 528 964 481 985 q 604 905 575 943 q 643 813 633 867 q 642 693 653 760 l 571 292 q 528 166 558 222 q 456 69 499 110 q 360 8 414 29 q 243 -14 306 -14 q 134 8 181 -14 q 58 70 88 31 q 19 167 29 110 q 22 292 10 224 l 93 693 m 179 154 q 180 32 164 69 q 244 -6 196 -6 q 322 31 293 -6 q 365 154 350 68 l 482 817 q 483 940 497 904 q 418 976 468 976 q 340 939 368 976 q 296 817 311 901 l 179 154 z "},"¾":{"ha":588,"x_min":50,"x_max":535,"o":"m 122 940 q 221 979 165 979 q 292 952 267 979 q 310 882 317 925 l 308 874 q 211 774 292 786 l 211 771 q 268 738 250 764 q 278 668 286 713 l 275 657 q 229 578 267 608 q 138 549 192 549 q 88 556 111 549 q 50 576 65 564 l 56 583 q 125 558 88 558 q 170 580 151 558 q 200 661 189 601 l 200 664 q 199 745 211 722 q 150 768 186 768 l 151 776 q 204 799 186 776 q 232 874 222 821 l 233 883 q 232 949 242 931 q 200 968 222 968 q 164 959 183 968 q 129 935 144 950 l 122 940 m 272 107 l 475 418 l 506 418 l 454 132 l 489 132 l 479 76 l 444 76 l 432 0 l 358 0 l 371 76 l 267 76 l 272 107 m 408 303 l 299 133 l 299 132 l 381 132 l 411 303 l 408 303 m 524 971 l 535 971 l 126 0 l 115 0 l 524 971 z "},"Þ":{"ha":599,"x_min":-22,"x_max":575,"o":"m 329 971 l 288 738 l 378 738 q 468 721 429 738 q 532 673 507 704 q 566 599 557 642 q 567 504 575 557 l 561 476 q 528 377 551 422 q 469 300 504 332 q 388 251 433 268 q 293 233 343 233 l 199 233 l 158 0 l -22 0 l 149 971 l 329 971 m 400 585 q 400 691 411 653 q 357 729 389 729 l 286 729 l 200 242 l 279 242 q 331 282 310 242 q 367 400 353 322 l 400 585 z "},"þ":{"ha":549,"x_min":-75,"x_max":514,"o":"m 246 624 l 249 624 q 297 684 272 667 q 358 701 322 701 q 427 685 396 701 q 478 642 458 669 q 506 578 499 615 q 507 501 514 542 l 454 201 q 424 119 446 158 q 372 50 403 79 q 303 3 340 21 q 225 -14 265 -14 q 172 3 189 -14 q 149 60 156 19 l 146 60 l 94 -233 l -75 -233 l 138 971 l 307 971 l 246 624 m 156 110 q 163 34 149 68 q 203 0 176 0 q 235 18 221 0 q 256 64 250 36 l 353 617 q 349 664 358 644 q 322 683 340 683 q 297 674 310 683 q 272 649 283 664 q 251 616 260 635 q 238 579 242 597 l 156 110 z "},"ƒ":{"ha":335,"x_min":-229,"x_max":525,"o":"m -87 -232 q -229 -186 -167 -232 l -225 -181 q -125 -218 -171 -218 q -59 -190 -86 -218 q -24 -114 -32 -162 l 63 371 l -62 371 l -61 379 l 64 379 l 132 765 q 163 853 140 813 q 220 922 186 893 q 297 968 254 951 q 385 985 339 985 q 525 939 461 985 l 519 932 q 426 967 472 967 q 356 938 386 967 q 318 864 325 910 l 232 379 l 357 379 l 356 371 l 231 371 l 165 1 q 134 -94 157 -51 q 78 -167 111 -136 q 2 -215 44 -199 q -87 -232 -40 -232 z "},"§":{"ha":571,"x_min":-72,"x_max":613,"o":"m 13 369 q 31 443 13 408 q 79 503 49 478 q 151 544 110 529 q 239 560 193 560 q 280 556 260 560 q 318 546 300 553 l 253 715 q 236 794 236 757 q 254 868 236 833 q 303 928 272 903 q 374 969 333 954 q 461 985 415 985 q 546 969 507 985 q 613 925 585 953 l 606 919 q 555 956 583 943 q 499 969 526 969 q 433 944 458 969 q 408 878 408 918 q 422 814 408 847 l 538 511 q 549 454 549 478 q 529 385 549 418 q 477 326 510 351 q 402 285 444 300 q 313 269 360 269 q 240 281 276 269 l 314 86 q 325 31 325 56 q 306 -40 325 -6 q 253 -99 286 -74 q 178 -140 221 -125 q 89 -156 135 -156 q -3 -137 39 -156 q -72 -83 -44 -118 l -67 -78 q -8 -125 -43 -107 q 61 -143 26 -143 q 124 -119 101 -143 q 146 -51 146 -94 q 140 -4 146 -31 q 124 50 135 22 l 29 290 q 13 369 13 335 m 185 453 q 192 399 185 429 q 214 339 200 368 l 236 290 q 281 282 260 282 q 315 290 299 282 q 343 312 331 299 q 363 343 356 325 q 371 382 371 361 q 364 429 371 401 q 344 485 357 457 l 322 536 q 275 544 300 544 q 210 519 235 544 q 185 453 185 494 z "},"​":{"ha":1389,"x_min":0,"x_max":0,"o":""}," ":{"ha":278,"x_min":0,"x_max":0,"o":""},"­":{"ha":526,"x_min":26,"x_max":483,"o":"m 483 438 l 482 429 l 26 429 l 28 438 l 483 438 z "},"":{"ha":1389,"x_min":0,"x_max":0,"o":""},"∕":{"ha":365,"x_min":-74,"x_max":428,"o":"m 417 1042 l 428 1042 l -62 -124 l -74 -124 l 417 1042 z "},"y":{"ha":481,"x_min":51,"x_max":499,"o":"m 231 688 l 288 265 l 290 265 l 488 688 l 499 688 l 64 -243 l 51 -243 l 165 0 l 144 0 l 53 688 l 231 688 z "},"@":{"ha":1069,"x_min":-4,"x_max":1017,"o":"m 494 71 q 354 -10 449 -10 q 238 42 271 -10 q 229 185 206 94 l 301 449 q 336 520 313 486 q 392 580 360 554 q 461 621 424 606 q 536 636 499 636 q 592 618 574 636 q 614 556 610 600 l 617 556 l 635 622 l 804 622 l 671 118 q 719 13 642 13 q 820 51 769 13 q 913 151 871 90 q 980 290 954 213 q 1006 444 1006 368 q 975 597 1006 526 q 890 718 944 667 q 760 798 835 769 q 596 826 685 826 q 372 777 478 826 q 184 644 265 728 q 55 449 103 560 q 7 217 7 339 q 36 46 7 124 q 119 -87 65 -32 q 247 -172 172 -142 q 413 -203 322 -203 q 569 -181 490 -203 q 719 -114 647 -158 l 722 -124 q 569 -191 649 -168 q 411 -214 490 -214 q 243 -183 319 -214 q 112 -95 167 -151 q 26 40 57 -39 q -4 215 -4 119 q 45 452 -4 339 q 177 651 94 565 q 369 787 260 736 q 597 838 478 838 q 765 808 688 838 q 898 724 842 778 q 985 597 954 671 q 1017 435 1017 522 q 986 265 1017 347 q 903 119 956 182 q 783 17 851 56 q 642 -21 715 -21 q 555 -3 592 -21 q 504 47 518 15 l 496 71 l 494 71 m 385 110 q 374 34 369 57 q 401 11 378 11 q 456 35 429 11 q 492 90 483 58 l 596 474 q 603 576 611 533 q 567 619 594 619 q 528 596 547 619 q 500 536 510 572 l 385 110 z "},"μ":{"ha":547,"x_min":-92,"x_max":539,"o":"m 163 -7 q 148 -11 156 -10 q 133 -12 140 -12 l 89 -265 l -92 -265 l 76 688 l 257 688 l 147 67 q 164 7 138 7 q 194 19 176 7 q 227 51 211 32 q 256 91 243 69 q 272 132 268 113 l 369 688 l 539 688 l 418 0 l 249 0 l 264 92 l 261 92 q 213 26 236 49 q 163 -7 190 3 z "},"a":{"ha":544,"x_min":-18,"x_max":531,"o":"m 251 64 l 249 64 q 198 3 225 21 q 135 -14 171 -14 q 67 2 97 -14 q 18 45 38 18 q -10 109 -1 72 q -11 186 -18 146 l 42 486 q 72 569 50 531 q 124 638 93 608 q 192 684 156 667 q 267 701 229 701 q 320 685 300 701 q 347 628 340 668 l 350 628 l 361 688 l 531 688 l 410 0 l 240 0 l 243 22 l 251 64 m 342 578 q 334 653 349 619 q 294 688 319 688 q 260 669 275 688 q 242 624 246 651 l 144 71 q 148 24 139 43 q 175 4 157 4 q 199 14 186 4 q 225 38 213 24 q 247 72 238 53 q 258 108 256 90 l 342 578 z "},"g":{"ha":544,"x_min":-54,"x_max":531,"o":"m 361 688 l 531 688 l 401 -51 q 369 -128 394 -93 q 306 -188 343 -162 q 220 -228 268 -214 q 119 -243 172 -243 q -54 -171 6 -243 l -47 -165 q 10 -211 -24 -194 q 79 -228 43 -228 q 176 -188 136 -228 q 226 -79 215 -149 l 251 64 l 250 64 q 199 3 226 21 q 136 -14 171 -14 q 69 2 99 -14 q 19 45 39 18 q -9 109 -1 72 q -10 186 -17 146 l 43 486 q 73 569 51 531 q 126 638 94 608 q 194 684 157 667 q 268 701 231 701 q 321 685 300 701 q 349 628 342 668 l 351 628 l 361 688 m 144 71 q 149 24 140 43 q 175 4 158 4 q 201 14 188 4 q 226 38 214 24 q 248 72 239 53 q 260 108 257 90 l 343 578 q 335 654 350 621 q 294 688 321 688 q 262 669 276 688 q 243 624 247 651 l 144 71 z "},"™":{"ha":475,"x_min":119,"x_max":525,"o":"m 525 971 l 475 688 l 422 688 l 467 942 l 465 942 l 372 688 l 347 688 l 325 942 l 322 942 l 278 688 l 269 688 l 319 971 l 383 971 l 399 790 l 401 790 l 468 971 l 525 971 m 286 963 l 229 963 l 181 688 l 128 688 l 176 963 l 119 963 l 121 971 l 288 971 l 286 963 z "},"Á":{"ha":490,"x_min":-100,"x_max":482,"o":"m 279 971 l 321 971 l 417 0 l 229 0 l 200 303 l 29 303 l -89 0 l -100 0 l 279 971 m 33 311 l 199 311 l 165 643 l 163 643 l 33 311 m 286 1026 l 357 1185 l 482 1185 l 294 1026 l 286 1026 z "},"À":{"ha":490,"x_min":-100,"x_max":417,"o":"m 279 971 l 321 971 l 417 0 l 229 0 l 200 303 l 29 303 l -89 0 l -100 0 l 279 971 m 33 311 l 199 311 l 165 643 l 163 643 l 33 311 m 326 1026 l 194 1185 l 319 1185 l 335 1026 l 326 1026 z "},"Â":{"ha":490,"x_min":-100,"x_max":460,"o":"m 279 971 l 321 971 l 417 0 l 229 0 l 200 303 l 29 303 l -89 0 l -100 0 l 279 971 m 33 311 l 199 311 l 165 643 l 163 643 l 33 311 m 338 1185 l 346 1185 l 460 1026 l 451 1026 l 324 1090 l 175 1026 l 167 1026 l 338 1185 z "},"³":{"ha":282,"x_min":50,"x_max":317,"o":"m 122 940 q 221 979 165 979 q 292 952 267 979 q 310 882 317 925 l 308 874 q 211 774 292 786 l 211 771 q 268 738 250 764 q 278 668 286 713 l 275 657 q 229 578 267 608 q 138 549 192 549 q 88 556 111 549 q 50 576 65 564 l 56 583 q 125 558 88 558 q 170 580 151 558 q 200 661 189 601 l 200 664 q 199 745 211 722 q 150 768 186 768 l 151 776 q 204 799 186 776 q 232 874 222 821 l 233 883 q 232 949 242 931 q 200 968 222 968 q 164 959 183 968 q 129 935 144 950 l 122 940 z "},"Ä":{"ha":490,"x_min":-100,"x_max":475,"o":"m 279 971 l 321 971 l 417 0 l 229 0 l 200 303 l 29 303 l -89 0 l -100 0 l 279 971 m 33 311 l 199 311 l 165 643 l 163 643 l 33 311 m 179 1103 q 203 1144 183 1128 q 247 1160 222 1160 q 287 1144 272 1160 q 297 1103 301 1128 q 273 1060 293 1076 q 228 1044 253 1044 q 189 1060 203 1044 q 179 1103 175 1076 m 353 1103 q 377 1144 357 1128 q 421 1160 397 1160 q 461 1144 447 1160 q 471 1103 475 1128 q 447 1060 467 1076 q 401 1044 428 1044 q 363 1060 378 1044 q 353 1103 349 1076 z "},"Ă":{"ha":490,"x_min":-100,"x_max":460,"o":"m 279 971 l 321 971 l 417 0 l 229 0 l 200 303 l 29 303 l -89 0 l -100 0 l 279 971 m 33 311 l 199 311 l 165 643 l 163 643 l 33 311 m 451 1168 l 460 1168 q 406 1068 449 1107 q 308 1029 364 1029 q 224 1068 253 1029 q 206 1168 194 1107 l 214 1168 q 240 1119 208 1140 q 321 1099 272 1099 q 408 1119 369 1099 q 451 1168 446 1139 z "},"Ā":{"ha":490,"x_min":-100,"x_max":460,"o":"m 279 971 l 321 971 l 417 0 l 229 0 l 200 303 l 29 303 l -89 0 l -100 0 l 279 971 m 33 311 l 199 311 l 165 643 l 163 643 l 33 311 m 458 1097 l 188 1097 l 189 1106 l 460 1106 l 458 1097 z "},"Ą":{"ha":490,"x_min":-100,"x_max":417,"o":"m 279 971 l 321 971 l 417 0 l 229 0 l 200 303 l 29 303 l -89 0 l -100 0 l 279 971 m 33 311 l 199 311 l 165 643 l 163 643 l 33 311 m 303 -112 q 247 -175 279 -153 q 182 -197 215 -197 q 130 -179 150 -197 q 110 -133 110 -161 q 123 -90 110 -111 q 155 -52 136 -69 q 195 -21 174 -35 q 235 3 217 -7 l 249 3 q 199 -39 219 -12 q 179 -99 179 -65 q 193 -144 179 -126 q 228 -162 207 -162 q 261 -150 243 -162 q 297 -108 279 -137 l 303 -112 z "},"Å":{"ha":490,"x_min":-100,"x_max":418,"o":"m 279 971 l 321 971 l 417 0 l 229 0 l 200 303 l 29 303 l -89 0 l -100 0 l 279 971 m 33 311 l 199 311 l 165 643 l 163 643 l 33 311 m 242 1111 q 277 1172 249 1147 q 342 1196 306 1196 q 398 1172 378 1196 q 411 1111 418 1147 q 376 1051 404 1076 q 313 1026 347 1026 q 256 1051 276 1026 q 242 1111 235 1076 m 251 1111 q 263 1057 244 1079 q 314 1035 282 1035 q 372 1057 346 1035 q 403 1111 397 1079 q 391 1165 410 1143 q 340 1188 372 1188 q 283 1165 308 1188 q 251 1111 257 1143 z "},"Ã":{"ha":490,"x_min":-100,"x_max":476,"o":"m 279 971 l 321 971 l 417 0 l 229 0 l 200 303 l 29 303 l -89 0 l -100 0 l 279 971 m 33 311 l 199 311 l 165 643 l 163 643 l 33 311 m 182 1065 l 175 1068 q 299 1160 235 1160 q 338 1151 319 1160 l 381 1129 q 417 1121 400 1121 q 471 1154 449 1121 l 476 1150 q 354 1057 418 1057 q 311 1067 331 1057 l 283 1081 q 251 1095 263 1092 q 231 1099 240 1099 q 206 1092 217 1099 q 182 1065 194 1085 z "},"Æ":{"ha":681,"x_min":-128,"x_max":733,"o":"m 733 971 l 732 963 l 526 963 l 444 500 l 621 500 l 619 492 l 443 492 l 358 8 l 564 8 l 563 0 l 176 0 l 229 301 l 24 301 l -117 0 l -128 0 l 324 971 l 733 971 m 28 310 l 231 310 l 346 961 l 332 961 l 28 310 z "},"Ǽ":{"ha":681,"x_min":-128,"x_max":733,"o":"m 733 971 l 732 963 l 526 963 l 444 500 l 621 500 l 619 492 l 443 492 l 358 8 l 564 8 l 563 0 l 176 0 l 229 301 l 24 301 l -117 0 l -128 0 l 324 971 l 733 971 m 28 310 l 231 310 l 346 961 l 332 961 l 28 310 m 507 1026 l 578 1185 l 703 1185 l 515 1026 l 507 1026 z "},"Ć":{"ha":574,"x_min":-1,"x_max":615,"o":"m 94 690 q 134 812 106 757 q 205 905 163 867 q 301 964 247 943 q 417 985 354 985 q 533 962 482 985 q 615 894 583 939 l 610 889 q 537 951 581 929 q 444 972 493 972 q 347 935 382 972 q 297 818 313 897 l 182 163 q 184 35 167 71 q 264 -1 201 -1 q 338 9 301 -1 q 406 38 374 19 q 465 81 439 56 q 504 136 490 107 l 513 132 q 401 24 472 63 q 243 -14 331 -14 q 57 69 115 -14 q 24 293 -1 151 l 94 690 m 392 1026 l 463 1185 l 588 1185 l 400 1026 l 392 1026 z "},"Č":{"ha":574,"x_min":-1,"x_max":615,"o":"m 94 690 q 134 812 106 757 q 205 905 163 867 q 301 964 247 943 q 417 985 354 985 q 533 962 482 985 q 615 894 583 939 l 610 889 q 537 951 581 929 q 444 972 493 972 q 347 935 382 972 q 297 818 313 897 l 182 163 q 184 35 167 71 q 264 -1 201 -1 q 338 9 301 -1 q 406 38 374 19 q 465 81 439 56 q 504 136 490 107 l 513 132 q 401 24 472 63 q 243 -14 331 -14 q 57 69 115 -14 q 24 293 -1 151 l 94 690 m 307 1185 l 433 1121 l 583 1185 l 592 1185 l 422 1026 l 414 1026 l 299 1185 l 307 1185 z "},"Ĉ":{"ha":574,"x_min":-1,"x_max":615,"o":"m 94 690 q 134 812 106 757 q 205 905 163 867 q 301 964 247 943 q 417 985 354 985 q 533 962 482 985 q 615 894 583 939 l 610 889 q 537 951 581 929 q 444 972 493 972 q 347 935 382 972 q 297 818 313 897 l 182 163 q 184 35 167 71 q 264 -1 201 -1 q 338 9 301 -1 q 406 38 374 19 q 465 81 439 56 q 504 136 490 107 l 513 132 q 401 24 472 63 q 243 -14 331 -14 q 57 69 115 -14 q 24 293 -1 151 l 94 690 m 443 1185 l 451 1185 l 565 1026 l 557 1026 l 429 1090 l 281 1026 l 272 1026 l 443 1185 z "},"Ď":{"ha":625,"x_min":-24,"x_max":617,"o":"m 149 971 l 419 971 q 512 950 472 971 q 576 892 551 929 q 608 802 600 854 q 606 688 617 750 l 533 281 q 497 169 524 221 q 433 81 471 118 q 351 22 396 43 q 257 0 306 0 l -24 0 l 149 971 m 160 8 l 229 8 q 292 49 265 8 q 332 168 318 90 l 444 806 q 442 921 458 879 q 383 963 425 963 l 329 963 l 160 8 m 281 1185 l 407 1121 l 557 1185 l 565 1185 l 396 1026 l 388 1026 l 272 1185 l 281 1185 z "},"Đ":{"ha":625,"x_min":-24,"x_max":617,"o":"m 149 971 l 419 971 q 512 950 472 971 q 576 892 551 929 q 608 802 600 854 q 606 688 617 750 l 533 281 q 497 169 524 221 q 433 81 471 118 q 351 22 396 43 q 257 0 306 0 l -24 0 l 149 971 m 160 8 l 229 8 q 292 49 265 8 q 332 168 318 90 l 444 806 q 442 921 458 879 q 383 963 425 963 l 329 963 l 160 8 m 3 490 l 325 490 l 324 482 l 1 482 l 3 490 z "},"Ð":{"ha":625,"x_min":-24,"x_max":617,"o":"m 149 971 l 419 971 q 512 950 472 971 q 576 892 551 929 q 608 802 600 854 q 606 688 617 750 l 533 281 q 497 169 524 221 q 433 81 471 118 q 351 22 396 43 q 257 0 306 0 l -24 0 l 149 971 m 160 8 l 229 8 q 292 49 265 8 q 332 168 318 90 l 444 806 q 442 921 458 879 q 383 963 425 963 l 329 963 l 160 8 m 3 490 l 325 490 l 324 482 l 1 482 l 3 490 z "},"É":{"ha":481,"x_min":-22,"x_max":535,"o":"m 535 971 l 533 963 l 328 963 l 246 500 l 422 500 l 421 492 l 244 492 l 160 8 l 365 8 l 364 0 l -22 0 l 149 971 l 535 971 m 329 1026 l 400 1185 l 525 1185 l 338 1026 l 329 1026 z "},"Ĕ":{"ha":481,"x_min":-22,"x_max":535,"o":"m 535 971 l 533 963 l 328 963 l 246 500 l 422 500 l 421 492 l 244 492 l 160 8 l 365 8 l 364 0 l -22 0 l 149 971 l 535 971 m 494 1168 l 503 1168 q 449 1068 492 1107 q 351 1029 407 1029 q 267 1068 296 1029 q 249 1168 238 1107 l 257 1168 q 283 1119 251 1140 q 364 1099 315 1099 q 451 1119 413 1099 q 494 1168 489 1139 z "},"Ě":{"ha":481,"x_min":-22,"x_max":535,"o":"m 535 971 l 533 963 l 328 963 l 246 500 l 422 500 l 421 492 l 244 492 l 160 8 l 365 8 l 364 0 l -22 0 l 149 971 l 535 971 m 244 1185 l 371 1121 l 521 1185 l 529 1185 l 360 1026 l 351 1026 l 236 1185 l 244 1185 z "},"Ê":{"ha":481,"x_min":-22,"x_max":535,"o":"m 535 971 l 533 963 l 328 963 l 246 500 l 422 500 l 421 492 l 244 492 l 160 8 l 365 8 l 364 0 l -22 0 l 149 971 l 535 971 m 381 1185 l 389 1185 l 503 1026 l 494 1026 l 367 1090 l 218 1026 l 210 1026 l 381 1185 z "},"Ë":{"ha":481,"x_min":-22,"x_max":535,"o":"m 535 971 l 533 963 l 328 963 l 246 500 l 422 500 l 421 492 l 244 492 l 160 8 l 365 8 l 364 0 l -22 0 l 149 971 l 535 971 m 222 1103 q 246 1144 226 1128 q 290 1160 265 1160 q 330 1144 315 1160 q 340 1103 344 1128 q 316 1060 336 1076 q 271 1044 296 1044 q 232 1060 246 1044 q 222 1103 218 1076 m 396 1103 q 420 1144 400 1128 q 464 1160 440 1160 q 504 1144 490 1160 q 514 1103 518 1128 q 490 1060 510 1076 q 444 1044 471 1044 q 406 1060 421 1044 q 396 1103 392 1076 z "},"È":{"ha":481,"x_min":-22,"x_max":535,"o":"m 535 971 l 533 963 l 328 963 l 246 500 l 422 500 l 421 492 l 244 492 l 160 8 l 365 8 l 364 0 l -22 0 l 149 971 l 535 971 m 369 1026 l 238 1185 l 363 1185 l 378 1026 l 369 1026 z "},"Ē":{"ha":481,"x_min":-22,"x_max":535,"o":"m 535 971 l 533 963 l 328 963 l 246 500 l 422 500 l 421 492 l 244 492 l 160 8 l 365 8 l 364 0 l -22 0 l 149 971 l 535 971 m 501 1097 l 231 1097 l 232 1106 l 503 1106 l 501 1097 z "},"Ę":{"ha":481,"x_min":-22,"x_max":535,"o":"m 535 971 l 533 963 l 328 963 l 246 500 l 422 500 l 421 492 l 244 492 l 160 8 l 365 8 l 364 0 l -22 0 l 149 971 l 535 971 m 343 -112 q 288 -175 319 -153 q 222 -197 256 -197 q 170 -179 190 -197 q 150 -133 150 -161 q 163 -90 150 -111 q 195 -52 176 -69 q 235 -21 214 -35 q 275 3 257 -7 l 289 3 q 240 -39 260 -12 q 219 -99 219 -65 q 233 -144 219 -126 q 268 -162 247 -162 q 301 -150 283 -162 q 338 -108 319 -137 l 343 -112 z "},"Ğ":{"ha":644,"x_min":-1,"x_max":629,"o":"m 93 690 q 134 813 106 758 q 205 905 163 867 q 303 964 247 943 q 422 985 358 985 q 544 962 490 985 q 629 896 597 939 l 624 890 q 556 947 599 926 q 464 967 513 967 q 353 928 396 967 q 297 818 310 889 l 179 147 q 274 -4 151 -4 q 306 -2 289 -4 q 338 4 324 0 l 419 468 l 307 468 l 308 476 l 588 476 l 511 43 q 452 20 485 31 q 385 2 419 10 q 317 -10 351 -6 q 253 -14 282 -14 q 58 68 118 -14 q 24 293 -1 150 l 93 690 m 569 1168 l 578 1168 q 524 1068 567 1107 q 426 1029 482 1029 q 342 1068 371 1029 q 324 1168 313 1107 l 332 1168 q 358 1119 326 1140 q 439 1099 390 1099 q 526 1119 488 1099 q 569 1168 564 1139 z "},"Ĝ":{"ha":644,"x_min":-1,"x_max":629,"o":"m 93 690 q 134 813 106 758 q 205 905 163 867 q 303 964 247 943 q 422 985 358 985 q 544 962 490 985 q 629 896 597 939 l 624 890 q 556 947 599 926 q 464 967 513 967 q 353 928 396 967 q 297 818 310 889 l 179 147 q 274 -4 151 -4 q 306 -2 289 -4 q 338 4 324 0 l 419 468 l 307 468 l 308 476 l 588 476 l 511 43 q 452 20 485 31 q 385 2 419 10 q 317 -10 351 -6 q 253 -14 282 -14 q 58 68 118 -14 q 24 293 -1 150 l 93 690 m 456 1185 l 464 1185 l 578 1026 l 569 1026 l 442 1090 l 293 1026 l 285 1026 l 456 1185 z "},"Ħ":{"ha":668,"x_min":-22,"x_max":701,"o":"m 329 971 l 288 732 l 467 732 l 508 971 l 689 971 l 647 732 l 701 732 l 700 724 l 646 724 l 518 0 l 339 0 l 422 481 l 243 481 l 158 0 l -22 0 l 106 724 l 47 724 l 49 732 l 107 732 l 149 971 l 329 971 m 424 489 l 465 724 l 286 724 l 244 489 l 424 489 z "},"Ĥ":{"ha":668,"x_min":-22,"x_max":689,"o":"m 329 971 l 244 489 l 424 489 l 508 971 l 689 971 l 518 0 l 339 0 l 422 481 l 243 481 l 158 0 l -22 0 l 149 971 l 329 971 m 454 1185 l 463 1185 l 576 1026 l 568 1026 l 440 1090 l 292 1026 l 283 1026 l 454 1185 z "},"Í":{"ha":307,"x_min":-24,"x_max":419,"o":"m 329 971 l 157 0 l -24 0 l 149 971 l 329 971 m 224 1026 l 294 1185 l 419 1185 l 232 1026 l 224 1026 z "},"Ĭ":{"ha":307,"x_min":-24,"x_max":397,"o":"m 329 971 l 157 0 l -24 0 l 149 971 l 329 971 m 389 1168 l 397 1168 q 344 1068 386 1107 q 246 1029 301 1029 q 161 1068 190 1029 q 143 1168 132 1107 l 151 1168 q 178 1119 146 1140 q 258 1099 210 1099 q 345 1119 307 1099 q 389 1168 383 1139 z "},"Î":{"ha":307,"x_min":-24,"x_max":397,"o":"m 329 971 l 157 0 l -24 0 l 149 971 l 329 971 m 275 1185 l 283 1185 l 397 1026 l 389 1026 l 261 1090 l 113 1026 l 104 1026 l 275 1185 z "},"Ï":{"ha":307,"x_min":-24,"x_max":413,"o":"m 329 971 l 157 0 l -24 0 l 149 971 l 329 971 m 117 1103 q 140 1144 121 1128 q 185 1160 160 1160 q 224 1144 210 1160 q 235 1103 239 1128 q 210 1060 231 1076 q 165 1044 190 1044 q 126 1060 140 1044 q 117 1103 113 1076 m 290 1103 q 315 1144 294 1128 q 358 1160 335 1160 q 399 1144 385 1160 q 408 1103 413 1128 q 385 1060 404 1076 q 339 1044 365 1044 q 301 1060 315 1044 q 290 1103 286 1076 z "},"Ì":{"ha":307,"x_min":-24,"x_max":329,"o":"m 329 971 l 157 0 l -24 0 l 149 971 l 329 971 m 264 1026 l 132 1185 l 257 1185 l 272 1026 l 264 1026 z "},"Ī":{"ha":307,"x_min":-24,"x_max":397,"o":"m 329 971 l 157 0 l -24 0 l 149 971 l 329 971 m 396 1097 l 125 1097 l 126 1106 l 397 1106 l 396 1097 z "},"Į":{"ha":307,"x_min":-62,"x_max":329,"o":"m 329 971 l 157 0 l -24 0 l 149 971 l 329 971 m 131 -112 q 75 -175 107 -153 q 10 -197 43 -197 q -42 -179 -22 -197 q -62 -133 -62 -161 q -49 -90 -62 -111 q -17 -52 -36 -69 q 23 -21 1 -35 q 63 3 44 -7 l 76 3 q 27 -39 47 -12 q 7 -99 7 -65 q 21 -144 7 -126 q 56 -162 35 -162 q 89 -150 71 -162 q 125 -108 107 -137 l 131 -112 z "},"Ĵ":{"ha":442,"x_min":-89,"x_max":529,"o":"m -89 53 l -82 60 q -28 18 -60 33 q 35 3 3 3 q 97 31 72 3 q 132 107 122 58 l 283 971 l 464 971 l 338 250 q 302 145 328 193 q 240 62 276 97 q 160 6 204 26 q 67 -14 115 -14 q -89 53 -25 -14 m 407 1185 l 415 1185 l 529 1026 l 521 1026 l 393 1090 l 244 1026 l 236 1026 l 407 1185 z "},"Ķ":{"ha":635,"x_min":-22,"x_max":644,"o":"m 158 0 l -22 0 l 149 971 l 331 971 l 158 0 m 290 494 l 290 500 l 631 971 l 644 971 l 426 672 l 564 0 l 375 0 l 290 494 m 272 -160 q 225 -174 246 -174 q 188 -160 201 -174 q 174 -122 174 -146 q 197 -67 174 -90 q 253 -44 221 -44 q 307 -115 307 -44 q 272 -214 307 -172 q 176 -262 236 -256 l 175 -254 q 251 -219 222 -247 q 272 -160 279 -192 z "},"Ĺ":{"ha":428,"x_min":-22,"x_max":418,"o":"m 329 971 l 160 8 l 357 8 l 356 0 l -22 0 l 149 971 l 329 971 m 222 1026 l 293 1185 l 418 1185 l 231 1026 l 222 1026 z "},"Ľ":{"ha":428,"x_min":-24,"x_max":525,"o":"m 369 813 l 426 971 l 525 971 l 378 813 l 369 813 m 328 971 l 158 8 l 356 8 l 354 0 l -24 0 l 147 971 l 328 971 z "},"Ļ":{"ha":428,"x_min":-22,"x_max":357,"o":"m 329 971 l 160 8 l 357 8 l 356 0 l -22 0 l 149 971 l 329 971 m 182 -160 q 135 -174 156 -174 q 97 -160 111 -174 q 83 -122 83 -146 q 107 -67 83 -90 q 163 -44 131 -44 q 217 -115 217 -44 q 181 -214 217 -172 q 86 -262 146 -256 l 85 -254 q 160 -219 132 -247 q 182 -160 189 -192 z "},"Ŀ":{"ha":474,"x_min":-22,"x_max":493,"o":"m 329 971 l 160 8 l 357 8 l 356 0 l -22 0 l 149 971 l 329 971 m 344 492 q 374 542 350 522 q 428 563 397 563 q 476 542 460 563 q 488 492 493 522 q 458 440 482 460 q 403 419 433 419 q 356 440 372 419 q 344 492 339 460 z "},"Ł":{"ha":439,"x_min":-12,"x_max":411,"o":"m 339 971 l 265 550 l 410 621 l 411 614 l 264 542 l 169 8 l 367 8 l 365 0 l -12 0 l 65 443 l -8 407 l -11 414 l 68 453 l 158 971 l 339 971 z "},"Ń":{"ha":569,"x_min":-29,"x_max":597,"o":"m 479 361 l 482 361 l 589 971 l 597 971 l 426 0 l 385 0 l 140 897 l 138 897 l -21 0 l -29 0 l 142 971 l 315 971 l 479 361 m 356 1026 l 426 1185 l 551 1185 l 364 1026 l 356 1026 z "},"Ň":{"ha":569,"x_min":-29,"x_max":597,"o":"m 479 361 l 482 361 l 589 971 l 597 971 l 426 0 l 385 0 l 140 897 l 138 897 l -21 0 l -29 0 l 142 971 l 315 971 l 479 361 m 271 1185 l 397 1121 l 547 1185 l 556 1185 l 386 1026 l 378 1026 l 263 1185 l 271 1185 z "},"Ñ":{"ha":569,"x_min":-29,"x_max":597,"o":"m 479 361 l 482 361 l 589 971 l 597 971 l 426 0 l 385 0 l 140 897 l 138 897 l -21 0 l -29 0 l 142 971 l 315 971 l 479 361 m 251 1065 l 244 1068 q 368 1160 304 1160 q 407 1151 389 1160 l 450 1129 q 486 1121 469 1121 q 540 1154 518 1121 l 546 1150 q 424 1057 488 1057 q 381 1067 400 1057 l 353 1081 q 321 1095 332 1092 q 300 1099 310 1099 q 275 1092 286 1099 q 251 1065 264 1085 z "},"Ņ":{"ha":569,"x_min":-29,"x_max":597,"o":"m 479 361 l 482 361 l 589 971 l 597 971 l 426 0 l 385 0 l 140 897 l 138 897 l -21 0 l -29 0 l 142 971 l 315 971 l 479 361 m 193 -160 q 146 -174 167 -174 q 108 -160 122 -174 q 94 -122 94 -146 q 118 -67 94 -90 q 174 -44 142 -44 q 228 -115 228 -44 q 192 -214 228 -172 q 97 -262 157 -256 l 96 -254 q 172 -219 143 -247 q 193 -160 200 -192 z "},"Ŋ":{"ha":568,"x_min":-29,"x_max":599,"o":"m 590 971 l 599 971 l 425 -4 q 377 -145 410 -87 q 286 -243 344 -203 l 283 -237 q 312 -213 299 -225 q 335 -185 325 -201 q 355 -146 346 -169 q 369 -86 364 -122 l 385 0 l 140 897 l 138 897 l -21 0 l -29 0 l 142 971 l 314 971 l 464 413 l 478 357 l 481 357 l 590 971 z "},"Ó":{"ha":661,"x_min":10,"x_max":653,"o":"m 93 693 q 134 812 104 758 q 206 904 164 865 q 303 964 249 943 q 419 985 358 985 q 528 964 481 985 q 604 905 575 943 q 643 813 633 867 q 642 693 653 760 l 571 292 q 528 166 558 222 q 456 69 499 110 q 360 8 414 29 q 243 -14 306 -14 q 134 8 181 -14 q 58 70 88 31 q 19 167 29 110 q 22 292 10 224 l 93 693 m 179 154 q 180 32 164 69 q 244 -6 196 -6 q 322 31 293 -6 q 365 154 350 68 l 482 817 q 483 940 497 904 q 418 976 468 976 q 340 939 368 976 q 296 817 311 901 l 179 154 m 403 1026 l 474 1185 l 599 1185 l 411 1026 l 403 1026 z "},"Ŏ":{"ha":661,"x_min":10,"x_max":653,"o":"m 93 693 q 134 812 104 758 q 206 904 164 865 q 303 964 249 943 q 419 985 358 985 q 528 964 481 985 q 604 905 575 943 q 643 813 633 867 q 642 693 653 760 l 571 292 q 528 166 558 222 q 456 69 499 110 q 360 8 414 29 q 243 -14 306 -14 q 134 8 181 -14 q 58 70 88 31 q 19 167 29 110 q 22 292 10 224 l 93 693 m 179 154 q 180 32 164 69 q 244 -6 196 -6 q 322 31 293 -6 q 365 154 350 68 l 482 817 q 483 940 497 904 q 418 976 468 976 q 340 939 368 976 q 296 817 311 901 l 179 154 m 568 1168 l 576 1168 q 523 1068 565 1107 q 425 1029 481 1029 q 340 1068 369 1029 q 322 1168 311 1107 l 331 1168 q 357 1119 325 1140 q 438 1099 389 1099 q 524 1119 486 1099 q 568 1168 563 1139 z "},"Ô":{"ha":661,"x_min":10,"x_max":653,"o":"m 93 693 q 134 812 104 758 q 206 904 164 865 q 303 964 249 943 q 419 985 358 985 q 528 964 481 985 q 604 905 575 943 q 643 813 633 867 q 642 693 653 760 l 571 292 q 528 166 558 222 q 456 69 499 110 q 360 8 414 29 q 243 -14 306 -14 q 134 8 181 -14 q 58 70 88 31 q 19 167 29 110 q 22 292 10 224 l 93 693 m 179 154 q 180 32 164 69 q 244 -6 196 -6 q 322 31 293 -6 q 365 154 350 68 l 482 817 q 483 940 497 904 q 418 976 468 976 q 340 939 368 976 q 296 817 311 901 l 179 154 m 454 1185 l 463 1185 l 576 1026 l 568 1026 l 440 1090 l 292 1026 l 283 1026 l 454 1185 z "},"Ö":{"ha":661,"x_min":10,"x_max":653,"o":"m 93 693 q 134 812 104 758 q 206 904 164 865 q 303 964 249 943 q 419 985 358 985 q 528 964 481 985 q 604 905 575 943 q 643 813 633 867 q 642 693 653 760 l 571 292 q 528 166 558 222 q 456 69 499 110 q 360 8 414 29 q 243 -14 306 -14 q 134 8 181 -14 q 58 70 88 31 q 19 167 29 110 q 22 292 10 224 l 93 693 m 179 154 q 180 32 164 69 q 244 -6 196 -6 q 322 31 293 -6 q 365 154 350 68 l 482 817 q 483 940 497 904 q 418 976 468 976 q 340 939 368 976 q 296 817 311 901 l 179 154 m 296 1103 q 319 1144 300 1128 q 364 1160 339 1160 q 403 1144 389 1160 q 414 1103 418 1128 q 390 1060 410 1076 q 344 1044 369 1044 q 306 1060 319 1044 q 296 1103 292 1076 m 469 1103 q 494 1144 474 1128 q 538 1160 514 1160 q 578 1144 564 1160 q 588 1103 592 1128 q 564 1060 583 1076 q 518 1044 544 1044 q 480 1060 494 1044 q 469 1103 465 1076 z "},"Ò":{"ha":661,"x_min":10,"x_max":653,"o":"m 93 693 q 134 812 104 758 q 206 904 164 865 q 303 964 249 943 q 419 985 358 985 q 528 964 481 985 q 604 905 575 943 q 643 813 633 867 q 642 693 653 760 l 571 292 q 528 166 558 222 q 456 69 499 110 q 360 8 414 29 q 243 -14 306 -14 q 134 8 181 -14 q 58 70 88 31 q 19 167 29 110 q 22 292 10 224 l 93 693 m 179 154 q 180 32 164 69 q 244 -6 196 -6 q 322 31 293 -6 q 365 154 350 68 l 482 817 q 483 940 497 904 q 418 976 468 976 q 340 939 368 976 q 296 817 311 901 l 179 154 m 443 1026 l 311 1185 l 436 1185 l 451 1026 l 443 1026 z "},"Ő":{"ha":661,"x_min":10,"x_max":679,"o":"m 93 693 q 134 812 104 758 q 206 904 164 865 q 303 964 249 943 q 419 985 358 985 q 528 964 481 985 q 604 905 575 943 q 643 813 633 867 q 642 693 653 760 l 571 292 q 528 166 558 222 q 456 69 499 110 q 360 8 414 29 q 243 -14 306 -14 q 134 8 181 -14 q 58 70 88 31 q 19 167 29 110 q 22 292 10 224 l 93 693 m 179 154 q 180 32 164 69 q 244 -6 196 -6 q 322 31 293 -6 q 365 154 350 68 l 482 817 q 483 940 497 904 q 418 976 468 976 q 340 939 368 976 q 296 817 311 901 l 179 154 m 496 1026 l 567 1185 l 679 1185 l 504 1026 l 496 1026 m 329 1026 l 400 1185 l 513 1185 l 338 1026 l 329 1026 z "},"Õ":{"ha":661,"x_min":10,"x_max":653,"o":"m 93 693 q 134 812 104 758 q 206 904 164 865 q 303 964 249 943 q 419 985 358 985 q 528 964 481 985 q 604 905 575 943 q 643 813 633 867 q 642 693 653 760 l 571 292 q 528 166 558 222 q 456 69 499 110 q 360 8 414 29 q 243 -14 306 -14 q 134 8 181 -14 q 58 70 88 31 q 19 167 29 110 q 22 292 10 224 l 93 693 m 179 154 q 180 32 164 69 q 244 -6 196 -6 q 322 31 293 -6 q 365 154 350 68 l 482 817 q 483 940 497 904 q 418 976 468 976 q 340 939 368 976 q 296 817 311 901 l 179 154 m 299 1065 l 292 1068 q 415 1160 351 1160 q 454 1151 436 1160 l 497 1129 q 533 1121 517 1121 q 588 1154 565 1121 l 593 1150 q 471 1057 535 1057 q 428 1067 447 1057 l 400 1081 q 368 1095 379 1092 q 347 1099 357 1099 q 322 1092 333 1099 q 299 1065 311 1085 z "},"Ø":{"ha":661,"x_min":-12,"x_max":671,"o":"m 93 693 q 134 812 104 758 q 206 904 164 865 q 303 964 249 943 q 419 985 358 985 q 531 963 483 985 q 608 900 579 940 l 661 978 l 671 972 l 614 890 q 642 693 663 814 l 571 292 q 529 166 558 222 q 457 69 500 110 q 360 8 414 29 q 243 -14 306 -14 q 131 10 178 -14 q 54 76 83 33 l -4 -8 l -12 -3 l 49 86 q 18 177 25 125 q 22 292 11 229 l 93 693 m 208 318 l 458 682 l 482 817 q 483 940 497 904 q 418 976 468 976 q 340 939 369 976 q 296 817 311 901 l 208 318 m 179 154 q 180 32 164 69 q 244 -6 196 -6 q 322 31 293 -6 q 365 154 350 68 l 454 657 l 204 293 l 179 154 z "},"Ǿ":{"ha":661,"x_min":-12,"x_max":671,"o":"m 93 693 q 134 812 104 758 q 206 904 164 865 q 303 964 249 943 q 419 985 358 985 q 531 963 483 985 q 608 900 579 940 l 661 978 l 671 972 l 614 890 q 642 693 663 814 l 571 292 q 529 166 558 222 q 457 69 500 110 q 360 8 414 29 q 243 -14 306 -14 q 131 10 178 -14 q 54 76 83 33 l -4 -8 l -12 -3 l 49 86 q 18 177 25 125 q 22 292 11 229 l 93 693 m 208 318 l 458 682 l 482 817 q 483 940 497 904 q 418 976 468 976 q 340 939 369 976 q 296 817 311 901 l 208 318 m 179 154 q 180 32 164 69 q 244 -6 196 -6 q 322 31 293 -6 q 365 154 350 68 l 454 657 l 204 293 l 179 154 m 403 1026 l 474 1185 l 599 1185 l 411 1026 l 403 1026 z "},"Œ":{"ha":853,"x_min":13,"x_max":906,"o":"m 90 679 q 131 798 101 744 q 203 890 161 851 q 301 950 246 929 q 417 971 356 971 l 906 971 l 904 963 l 697 963 l 615 500 l 793 500 l 792 492 l 614 492 l 529 8 l 736 8 l 733 0 l 246 0 q 137 22 183 0 q 61 84 90 44 q 22 181 32 124 q 25 306 13 238 l 90 679 m 293 803 l 182 168 q 188 53 169 99 q 247 8 207 8 l 349 8 l 517 963 l 425 963 q 382 951 403 963 q 343 917 361 939 q 313 867 325 896 q 293 803 300 838 z "},"Ŕ":{"ha":635,"x_min":-24,"x_max":615,"o":"m 406 971 q 499 951 458 971 q 567 899 540 932 q 604 824 593 867 q 607 733 615 781 l 604 719 q 573 634 596 675 q 515 560 550 593 q 437 507 481 528 q 344 482 393 486 l 343 478 q 399 466 372 478 q 447 434 426 454 q 481 388 468 414 q 496 333 494 361 l 507 0 l 321 0 l 311 358 q 308 423 310 399 q 299 460 306 447 q 283 476 293 472 q 254 481 272 481 l 242 481 l 157 0 l -24 0 l 147 971 l 406 971 m 435 783 q 440 920 451 878 q 385 963 428 963 l 328 963 l 243 489 l 308 489 q 374 532 349 489 q 414 668 399 575 l 435 783 m 336 1026 l 407 1185 l 532 1185 l 344 1026 l 336 1026 z "},"Ř":{"ha":635,"x_min":-24,"x_max":615,"o":"m 406 971 q 499 951 458 971 q 567 899 540 932 q 604 824 593 867 q 607 733 615 781 l 604 719 q 573 634 596 675 q 515 560 550 593 q 437 507 481 528 q 344 482 393 486 l 343 478 q 399 466 372 478 q 447 434 426 454 q 481 388 468 414 q 496 333 494 361 l 507 0 l 321 0 l 311 358 q 308 423 310 399 q 299 460 306 447 q 283 476 293 472 q 254 481 272 481 l 242 481 l 157 0 l -24 0 l 147 971 l 406 971 m 435 783 q 440 920 451 878 q 385 963 428 963 l 328 963 l 243 489 l 308 489 q 374 532 349 489 q 414 668 399 575 l 435 783 m 251 1185 l 378 1121 l 528 1185 l 536 1185 l 367 1026 l 358 1026 l 243 1185 l 251 1185 z "},"Ŗ":{"ha":635,"x_min":-24,"x_max":615,"o":"m 406 971 q 499 951 458 971 q 567 899 540 932 q 604 824 593 867 q 607 733 615 781 l 604 719 q 573 634 596 675 q 515 560 550 593 q 437 507 481 528 q 344 482 393 486 l 343 478 q 399 466 372 478 q 447 434 426 454 q 481 388 468 414 q 496 333 494 361 l 507 0 l 321 0 l 311 358 q 308 423 310 399 q 299 460 306 447 q 283 476 293 472 q 254 481 272 481 l 242 481 l 157 0 l -24 0 l 147 971 l 406 971 m 435 783 q 440 920 451 878 q 385 963 428 963 l 328 963 l 243 489 l 308 489 q 374 532 349 489 q 414 668 399 575 l 435 783 m 247 -160 q 200 -174 221 -174 q 163 -160 176 -174 q 149 -122 149 -146 q 172 -67 149 -90 q 228 -44 196 -44 q 282 -115 282 -44 q 247 -214 282 -172 q 151 -262 211 -256 l 150 -254 q 226 -219 197 -247 q 247 -160 254 -192 z "},"Ŧ":{"ha":515,"x_min":46,"x_max":614,"o":"m 613 963 l 432 963 l 363 574 l 507 574 l 506 565 l 361 565 l 261 0 l 81 0 l 181 565 l 46 565 l 47 574 l 182 574 l 251 963 l 71 963 l 72 971 l 614 971 l 613 963 z "},"Ť":{"ha":515,"x_min":71,"x_max":614,"o":"m 613 963 l 432 963 l 261 0 l 81 0 l 251 963 l 71 963 l 72 971 l 614 971 l 613 963 m 242 1185 l 368 1121 l 518 1185 l 526 1185 l 357 1026 l 349 1026 l 233 1185 l 242 1185 z "},"Ț":{"ha":515,"x_min":71,"x_max":614,"o":"m 613 963 l 432 963 l 261 0 l 81 0 l 251 963 l 71 963 l 72 971 l 614 971 l 613 963 m 188 -154 q 140 -168 161 -168 q 103 -154 117 -168 q 89 -117 89 -140 q 113 -62 89 -85 q 168 -39 136 -39 q 222 -110 222 -39 q 187 -208 222 -167 q 92 -257 151 -250 l 90 -249 q 166 -214 138 -242 q 188 -154 194 -186 z "},"Ú":{"ha":600,"x_min":17,"x_max":629,"o":"m 329 971 l 188 165 q 200 51 175 94 q 285 7 225 7 q 354 24 321 7 q 415 72 388 40 q 463 147 443 103 q 493 244 483 190 l 621 971 l 629 971 l 503 250 q 409 55 479 124 q 233 -14 339 -14 q 131 8 175 -14 q 60 69 86 29 q 25 165 33 108 q 29 290 17 221 l 149 971 l 329 971 m 394 1026 l 465 1185 l 590 1185 l 403 1026 l 394 1026 z "},"Ŭ":{"ha":600,"x_min":17,"x_max":629,"o":"m 329 971 l 188 165 q 200 51 175 94 q 285 7 225 7 q 354 24 321 7 q 415 72 388 40 q 463 147 443 103 q 493 244 483 190 l 621 971 l 629 971 l 503 250 q 409 55 479 124 q 233 -14 339 -14 q 131 8 175 -14 q 60 69 86 29 q 25 165 33 108 q 29 290 17 221 l 149 971 l 329 971 m 560 1168 l 568 1168 q 515 1068 557 1107 q 417 1029 472 1029 q 332 1068 361 1029 q 314 1168 303 1107 l 322 1168 q 349 1119 317 1140 q 429 1099 381 1099 q 516 1119 478 1099 q 560 1168 554 1139 z "},"Û":{"ha":600,"x_min":17,"x_max":629,"o":"m 329 971 l 188 165 q 200 51 175 94 q 285 7 225 7 q 354 24 321 7 q 415 72 388 40 q 463 147 443 103 q 493 244 483 190 l 621 971 l 629 971 l 503 250 q 409 55 479 124 q 233 -14 339 -14 q 131 8 175 -14 q 60 69 86 29 q 25 165 33 108 q 29 290 17 221 l 149 971 l 329 971 m 446 1185 l 454 1185 l 568 1026 l 560 1026 l 432 1090 l 283 1026 l 275 1026 l 446 1185 z "},"Ü":{"ha":600,"x_min":17,"x_max":629,"o":"m 329 971 l 188 165 q 200 51 175 94 q 285 7 225 7 q 354 24 321 7 q 415 72 388 40 q 463 147 443 103 q 493 244 483 190 l 621 971 l 629 971 l 503 250 q 409 55 479 124 q 233 -14 339 -14 q 131 8 175 -14 q 60 69 86 29 q 25 165 33 108 q 29 290 17 221 l 149 971 l 329 971 m 288 1103 q 311 1144 292 1128 q 356 1160 331 1160 q 395 1144 381 1160 q 406 1103 410 1128 q 381 1060 401 1076 q 336 1044 361 1044 q 297 1060 311 1044 q 288 1103 283 1076 m 461 1103 q 485 1144 465 1128 q 529 1160 506 1160 q 569 1144 556 1160 q 579 1103 583 1128 q 556 1060 575 1076 q 510 1044 536 1044 q 472 1060 486 1044 q 461 1103 457 1076 z "},"Ù":{"ha":600,"x_min":17,"x_max":629,"o":"m 329 971 l 188 165 q 200 51 175 94 q 285 7 225 7 q 354 24 321 7 q 415 72 388 40 q 463 147 443 103 q 493 244 483 190 l 621 971 l 629 971 l 503 250 q 409 55 479 124 q 233 -14 339 -14 q 131 8 175 -14 q 60 69 86 29 q 25 165 33 108 q 29 290 17 221 l 149 971 l 329 971 m 435 1026 l 303 1185 l 428 1185 l 443 1026 l 435 1026 z "},"Ű":{"ha":600,"x_min":17,"x_max":671,"o":"m 329 971 l 188 165 q 200 51 175 94 q 285 7 225 7 q 354 24 321 7 q 415 72 388 40 q 463 147 443 103 q 493 244 483 190 l 621 971 l 629 971 l 503 250 q 409 55 479 124 q 233 -14 339 -14 q 131 8 175 -14 q 60 69 86 29 q 25 165 33 108 q 29 290 17 221 l 149 971 l 329 971 m 488 1026 l 558 1185 l 671 1185 l 496 1026 l 488 1026 m 321 1026 l 392 1185 l 504 1185 l 329 1026 l 321 1026 z "},"Ū":{"ha":600,"x_min":17,"x_max":629,"o":"m 329 971 l 188 165 q 200 51 175 94 q 285 7 225 7 q 354 24 321 7 q 415 72 388 40 q 463 147 443 103 q 493 244 483 190 l 621 971 l 629 971 l 503 250 q 409 55 479 124 q 233 -14 339 -14 q 131 8 175 -14 q 60 69 86 29 q 25 165 33 108 q 29 290 17 221 l 149 971 l 329 971 m 567 1097 l 296 1097 l 297 1106 l 568 1106 l 567 1097 z "},"Ų":{"ha":600,"x_min":17,"x_max":629,"o":"m 329 971 l 188 165 q 200 51 175 94 q 285 7 225 7 q 354 24 321 7 q 415 72 388 40 q 463 147 443 103 q 493 244 483 190 l 621 971 l 629 971 l 503 250 q 409 55 479 124 q 233 -14 339 -14 q 131 8 175 -14 q 60 69 86 29 q 25 165 33 108 q 29 290 17 221 l 149 971 l 329 971 m 378 -112 q 322 -175 354 -153 q 257 -197 290 -197 q 205 -179 225 -197 q 185 -133 185 -161 q 198 -90 185 -111 q 230 -52 211 -69 q 270 -21 249 -35 q 310 3 292 -7 l 324 3 q 274 -39 294 -12 q 254 -99 254 -65 q 268 -144 254 -126 q 303 -162 282 -162 q 336 -150 318 -162 q 372 -108 354 -137 l 378 -112 z "},"Ů":{"ha":600,"x_min":17,"x_max":629,"o":"m 329 971 l 188 165 q 200 51 175 94 q 285 7 225 7 q 354 24 321 7 q 415 72 388 40 q 463 147 443 103 q 493 244 483 190 l 621 971 l 629 971 l 503 250 q 409 55 479 124 q 233 -14 339 -14 q 131 8 175 -14 q 60 69 86 29 q 25 165 33 108 q 29 290 17 221 l 149 971 l 329 971 m 350 1111 q 385 1172 357 1147 q 450 1196 414 1196 q 506 1172 486 1196 q 519 1111 526 1147 q 484 1051 513 1076 q 421 1026 456 1026 q 364 1051 385 1026 q 350 1111 343 1076 m 360 1111 q 372 1057 353 1079 q 422 1035 390 1035 q 480 1057 454 1035 q 511 1111 506 1079 q 499 1165 518 1143 q 449 1188 481 1188 q 391 1165 417 1188 q 360 1111 365 1143 z "},"Ũ":{"ha":600,"x_min":17,"x_max":629,"o":"m 329 971 l 188 165 q 200 51 175 94 q 285 7 225 7 q 354 24 321 7 q 415 72 388 40 q 463 147 443 103 q 493 244 483 190 l 621 971 l 629 971 l 503 250 q 409 55 479 124 q 233 -14 339 -14 q 131 8 175 -14 q 60 69 86 29 q 25 165 33 108 q 29 290 17 221 l 149 971 l 329 971 m 290 1065 l 283 1068 q 407 1160 343 1160 q 446 1151 428 1160 l 489 1129 q 525 1121 508 1121 q 579 1154 557 1121 l 585 1150 q 463 1057 526 1057 q 419 1067 439 1057 l 392 1081 q 360 1095 371 1092 q 339 1099 349 1099 q 314 1092 325 1099 q 290 1065 303 1085 z "},"Ẃ":{"ha":731,"x_min":71,"x_max":828,"o":"m 590 435 l 592 379 l 594 379 l 617 435 l 817 971 l 828 971 l 465 0 l 424 0 l 396 575 l 394 631 l 392 631 l 156 0 l 114 0 l 71 971 l 256 971 l 283 379 l 286 379 l 394 671 l 381 971 l 565 971 l 590 435 m 449 1026 l 519 1185 l 644 1185 l 457 1026 l 449 1026 z "},"Ŵ":{"ha":731,"x_min":71,"x_max":828,"o":"m 590 435 l 592 379 l 594 379 l 617 435 l 817 971 l 828 971 l 465 0 l 424 0 l 396 575 l 394 631 l 392 631 l 156 0 l 114 0 l 71 971 l 256 971 l 283 379 l 286 379 l 394 671 l 381 971 l 565 971 l 590 435 m 500 1185 l 508 1185 l 622 1026 l 614 1026 l 486 1090 l 338 1026 l 329 1026 l 500 1185 z "},"Ẅ":{"ha":731,"x_min":71,"x_max":828,"o":"m 590 435 l 592 379 l 594 379 l 617 435 l 817 971 l 828 971 l 465 0 l 424 0 l 396 575 l 394 631 l 392 631 l 156 0 l 114 0 l 71 971 l 256 971 l 283 379 l 286 379 l 394 671 l 381 971 l 565 971 l 590 435 m 342 1103 q 365 1144 346 1128 q 410 1160 385 1160 q 449 1144 435 1160 q 460 1103 464 1128 q 435 1060 456 1076 q 390 1044 415 1044 q 351 1060 365 1044 q 342 1103 338 1076 m 515 1103 q 540 1144 519 1128 q 583 1160 560 1160 q 624 1144 610 1160 q 633 1103 638 1128 q 610 1060 629 1076 q 564 1044 590 1044 q 526 1060 540 1044 q 515 1103 511 1076 z "},"Ẁ":{"ha":731,"x_min":71,"x_max":828,"o":"m 590 435 l 592 379 l 594 379 l 617 435 l 817 971 l 828 971 l 465 0 l 424 0 l 396 575 l 394 631 l 392 631 l 156 0 l 114 0 l 71 971 l 256 971 l 283 379 l 286 379 l 394 671 l 381 971 l 565 971 l 590 435 m 489 1026 l 357 1185 l 482 1185 l 497 1026 l 489 1026 z "},"Ý":{"ha":503,"x_min":72,"x_max":603,"o":"m 356 489 l 358 489 l 590 971 l 603 971 l 358 465 l 276 0 l 94 0 l 174 447 l 72 971 l 261 971 l 356 489 m 360 1026 l 431 1185 l 556 1185 l 368 1026 l 360 1026 z "},"Ŷ":{"ha":503,"x_min":72,"x_max":603,"o":"m 356 489 l 358 489 l 590 971 l 603 971 l 358 465 l 276 0 l 94 0 l 174 447 l 72 971 l 261 971 l 356 489 m 411 1185 l 419 1185 l 533 1026 l 525 1026 l 397 1090 l 249 1026 l 240 1026 l 411 1185 z "},"Ỳ":{"ha":503,"x_min":72,"x_max":603,"o":"m 356 489 l 358 489 l 590 971 l 603 971 l 358 465 l 276 0 l 94 0 l 174 447 l 72 971 l 261 971 l 356 489 m 400 1026 l 268 1185 l 393 1185 l 408 1026 l 400 1026 z "},"Ź":{"ha":608,"x_min":-56,"x_max":643,"o":"m 167 963 l 168 971 l 643 971 l 642 963 l 136 8 l 493 8 l 492 0 l -56 0 l -53 8 l 453 963 l 167 963 m 383 1026 l 454 1185 l 579 1185 l 392 1026 l 383 1026 z "},"Ž":{"ha":608,"x_min":-56,"x_max":643,"o":"m 167 963 l 168 971 l 643 971 l 642 963 l 136 8 l 493 8 l 492 0 l -56 0 l -53 8 l 453 963 l 167 963 m 299 1185 l 425 1121 l 575 1185 l 583 1185 l 414 1026 l 406 1026 l 290 1185 l 299 1185 z "},"à":{"ha":544,"x_min":-18,"x_max":531,"o":"m 251 64 l 249 64 q 198 3 225 21 q 135 -14 171 -14 q 67 2 97 -14 q 18 45 38 18 q -10 109 -1 72 q -11 186 -18 146 l 42 486 q 72 569 50 531 q 124 638 93 608 q 192 684 156 667 q 267 701 229 701 q 320 685 300 701 q 347 628 340 668 l 350 628 l 361 688 l 531 688 l 410 0 l 240 0 l 243 22 l 251 64 m 342 578 q 334 653 349 619 q 294 688 319 688 q 260 669 275 688 q 242 624 246 651 l 144 71 q 148 24 139 43 q 175 4 157 4 q 199 14 186 4 q 225 38 213 24 q 247 72 238 53 q 258 108 256 90 l 342 578 m 338 792 l 206 950 l 331 950 l 346 792 l 338 792 z "},"á":{"ha":544,"x_min":-18,"x_max":531,"o":"m 251 64 l 249 64 q 198 3 225 21 q 135 -14 171 -14 q 67 2 97 -14 q 18 45 38 18 q -10 109 -1 72 q -11 186 -18 146 l 42 486 q 72 569 50 531 q 124 638 93 608 q 192 684 156 667 q 267 701 229 701 q 320 685 300 701 q 347 628 340 668 l 350 628 l 361 688 l 531 688 l 410 0 l 240 0 l 243 22 l 251 64 m 342 578 q 334 653 349 619 q 294 688 319 688 q 260 669 275 688 q 242 624 246 651 l 144 71 q 148 24 139 43 q 175 4 157 4 q 199 14 186 4 q 225 38 213 24 q 247 72 238 53 q 258 108 256 90 l 342 578 m 297 792 l 368 950 l 493 950 l 306 792 l 297 792 z "},"â":{"ha":544,"x_min":-18,"x_max":531,"o":"m 251 64 l 249 64 q 198 3 225 21 q 135 -14 171 -14 q 67 2 97 -14 q 18 45 38 18 q -10 109 -1 72 q -11 186 -18 146 l 42 486 q 72 569 50 531 q 124 638 93 608 q 192 684 156 667 q 267 701 229 701 q 320 685 300 701 q 347 628 340 668 l 350 628 l 361 688 l 531 688 l 410 0 l 240 0 l 243 22 l 251 64 m 342 578 q 334 653 349 619 q 294 688 319 688 q 260 669 275 688 q 242 624 246 651 l 144 71 q 148 24 139 43 q 175 4 157 4 q 199 14 186 4 q 225 38 213 24 q 247 72 238 53 q 258 108 256 90 l 342 578 m 347 950 l 356 950 l 469 792 l 461 792 l 333 856 l 185 792 l 176 792 l 347 950 z "},"ã":{"ha":544,"x_min":-18,"x_max":531,"o":"m 251 64 l 249 64 q 198 3 225 21 q 135 -14 171 -14 q 67 2 97 -14 q 18 45 38 18 q -10 109 -1 72 q -11 186 -18 146 l 42 486 q 72 569 50 531 q 124 638 93 608 q 192 684 156 667 q 267 701 229 701 q 320 685 300 701 q 347 628 340 668 l 350 628 l 361 688 l 531 688 l 410 0 l 240 0 l 243 22 l 251 64 m 342 578 q 334 653 349 619 q 294 688 319 688 q 260 669 275 688 q 242 624 246 651 l 144 71 q 148 24 139 43 q 175 4 157 4 q 199 14 186 4 q 225 38 213 24 q 247 72 238 53 q 258 108 256 90 l 342 578 m 193 831 l 186 833 q 310 925 246 925 q 349 917 331 925 l 392 894 q 428 886 411 886 q 482 919 460 886 l 488 915 q 365 822 429 822 q 322 832 342 822 l 294 846 q 263 860 274 857 q 242 864 251 864 q 217 857 228 864 q 193 831 206 850 z "},"å":{"ha":544,"x_min":-18,"x_max":531,"o":"m 251 64 l 249 64 q 198 3 225 21 q 135 -14 171 -14 q 67 2 97 -14 q 18 45 38 18 q -10 109 -1 72 q -11 186 -18 146 l 42 486 q 72 569 50 531 q 124 638 93 608 q 192 684 156 667 q 267 701 229 701 q 320 685 300 701 q 347 628 340 668 l 350 628 l 361 688 l 531 688 l 410 0 l 240 0 l 243 22 l 251 64 m 342 578 q 334 653 349 619 q 294 688 319 688 q 260 669 275 688 q 242 624 246 651 l 144 71 q 148 24 139 43 q 175 4 157 4 q 199 14 186 4 q 225 38 213 24 q 247 72 238 53 q 258 108 256 90 l 342 578 m 253 876 q 288 937 260 913 q 353 961 317 961 q 409 937 389 961 q 422 876 429 913 q 387 817 415 842 q 324 792 358 792 q 267 817 288 792 q 253 876 246 842 m 263 876 q 274 822 256 844 q 325 800 293 800 q 383 822 357 800 q 414 876 408 844 q 402 931 421 908 q 351 953 383 953 q 294 931 319 953 q 263 876 268 908 z "},"ă":{"ha":544,"x_min":-18,"x_max":531,"o":"m 251 64 l 249 64 q 198 3 225 21 q 135 -14 171 -14 q 67 2 97 -14 q 18 45 38 18 q -10 109 -1 72 q -11 186 -18 146 l 42 486 q 72 569 50 531 q 124 638 93 608 q 192 684 156 667 q 267 701 229 701 q 320 685 300 701 q 347 628 340 668 l 350 628 l 361 688 l 531 688 l 410 0 l 240 0 l 243 22 l 251 64 m 342 578 q 334 653 349 619 q 294 688 319 688 q 260 669 275 688 q 242 624 246 651 l 144 71 q 148 24 139 43 q 175 4 157 4 q 199 14 186 4 q 225 38 213 24 q 247 72 238 53 q 258 108 256 90 l 342 578 m 463 933 l 471 933 q 417 833 460 872 q 319 794 375 794 q 235 833 264 794 q 217 933 206 872 l 225 933 q 251 885 219 906 q 332 864 283 864 q 419 884 381 864 q 463 933 457 904 z "},"ā":{"ha":544,"x_min":-18,"x_max":531,"o":"m 251 64 l 249 64 q 198 3 225 21 q 135 -14 171 -14 q 67 2 97 -14 q 18 45 38 18 q -10 109 -1 72 q -11 186 -18 146 l 42 486 q 72 569 50 531 q 124 638 93 608 q 192 684 156 667 q 267 701 229 701 q 320 685 300 701 q 347 628 340 668 l 350 628 l 361 688 l 531 688 l 410 0 l 240 0 l 243 22 l 251 64 m 342 578 q 334 653 349 619 q 294 688 319 688 q 260 669 275 688 q 242 624 246 651 l 144 71 q 148 24 139 43 q 175 4 157 4 q 199 14 186 4 q 225 38 213 24 q 247 72 238 53 q 258 108 256 90 l 342 578 m 469 863 l 199 863 l 200 871 l 471 871 l 469 863 z "},"ą":{"ha":544,"x_min":-18,"x_max":531,"o":"m 251 64 l 249 64 q 198 3 225 21 q 135 -14 171 -14 q 67 2 97 -14 q 18 45 38 18 q -10 109 -1 72 q -11 186 -18 146 l 42 486 q 72 569 50 531 q 124 638 93 608 q 192 684 156 667 q 267 701 229 701 q 320 685 300 701 q 347 628 340 668 l 350 628 l 361 688 l 531 688 l 410 0 l 240 0 l 243 22 l 251 64 m 342 578 q 334 653 349 619 q 294 688 319 688 q 260 669 275 688 q 242 624 246 651 l 144 71 q 148 24 139 43 q 175 4 157 4 q 199 14 186 4 q 225 38 213 24 q 247 72 238 53 q 258 108 256 90 l 342 578 m 311 -112 q 256 -175 288 -153 q 190 -197 224 -197 q 138 -179 158 -197 q 118 -133 118 -161 q 131 -90 118 -111 q 163 -52 144 -69 q 203 -21 182 -35 q 243 3 225 -7 l 257 3 q 208 -39 228 -12 q 188 -99 188 -65 q 201 -144 188 -126 q 236 -162 215 -162 q 269 -150 251 -162 q 306 -108 288 -137 l 311 -112 z "},"ǽ":{"ha":792,"x_min":-44,"x_max":768,"o":"m 319 607 q 310 668 326 647 q 256 689 293 689 q 213 683 236 689 q 166 667 189 676 q 123 646 143 658 q 92 621 103 633 l 86 626 q 125 656 101 643 q 176 680 149 669 q 235 696 204 690 q 294 701 265 701 q 422 660 372 701 l 425 660 q 567 701 492 701 q 655 683 615 701 q 720 635 694 665 q 757 563 746 604 q 760 475 768 522 l 738 346 l 449 346 l 403 90 q 417 22 396 47 q 483 -3 439 -3 q 542 8 511 -3 q 602 38 574 19 q 654 82 631 57 q 692 135 678 107 l 700 132 q 595 24 660 63 q 451 -14 531 -14 q 326 18 378 -14 q 257 108 275 50 l 253 108 q 175 19 222 51 q 78 -14 128 -14 q -13 28 18 -14 q -33 136 -44 71 l -21 206 q 7 279 -14 247 q 64 335 28 311 q 154 374 100 358 q 283 401 208 390 l 319 607 m 497 622 l 450 354 l 564 354 l 611 622 q 603 672 617 650 q 567 693 589 693 q 524 672 544 693 q 497 622 503 650 m 156 26 q 178 35 165 26 q 205 56 192 43 q 231 88 218 69 q 251 125 243 106 q 246 165 246 144 q 249 206 246 185 l 282 393 q 229 382 249 388 q 198 365 210 376 q 180 335 186 354 q 168 288 174 317 l 133 92 q 134 45 128 64 q 156 26 140 26 m 436 792 l 507 950 l 632 950 l 444 792 l 436 792 z "},"æ":{"ha":815,"x_min":-18,"x_max":793,"o":"m 43 486 q 72 568 50 529 q 125 637 94 607 q 193 684 156 667 q 268 701 231 701 q 331 673 313 701 q 357 568 350 644 l 360 568 q 460 666 399 631 q 592 701 522 701 q 679 683 640 701 q 744 635 718 665 q 782 563 771 604 q 785 475 793 522 l 761 346 l 474 346 l 429 90 q 442 22 421 47 q 507 -3 463 -3 q 567 8 536 -3 q 626 38 597 19 q 678 82 654 57 q 717 135 703 107 l 724 132 q 620 24 685 63 q 479 -14 556 -14 q 351 22 404 -14 q 281 119 299 57 l 278 119 q 215 17 249 49 q 132 -14 181 -14 q 67 2 96 -14 q 18 45 38 18 q -10 109 -1 72 q -11 186 -18 146 l 43 486 m 589 354 l 636 622 q 627 672 640 650 q 592 693 614 693 q 548 672 569 693 q 522 622 526 650 l 475 354 l 589 354 m 144 74 q 149 26 140 46 q 175 7 157 7 q 226 41 199 7 q 275 133 253 75 q 274 206 267 167 l 322 479 q 332 517 325 499 q 349 554 339 536 q 294 683 343 683 q 260 665 275 683 q 242 619 246 647 l 144 74 z "},"Ÿ":{"ha":503,"x_min":72,"x_max":603,"o":"m 356 489 l 358 489 l 590 971 l 603 971 l 358 465 l 276 0 l 94 0 l 174 447 l 72 971 l 261 971 l 356 489 m 253 1103 q 276 1144 257 1128 q 321 1160 296 1160 q 360 1144 346 1160 q 371 1103 375 1128 q 347 1060 367 1076 q 301 1044 326 1044 q 263 1060 276 1044 q 253 1103 249 1076 m 426 1103 q 451 1144 431 1128 q 494 1160 471 1160 q 535 1144 521 1160 q 544 1103 549 1128 q 521 1060 540 1076 q 475 1044 501 1044 q 437 1060 451 1044 q 426 1103 422 1076 z "},"ć":{"ha":471,"x_min":-14,"x_max":500,"o":"m 39 468 q 72 561 47 518 q 134 635 97 604 q 216 684 171 667 q 311 701 261 701 q 408 682 364 701 q 481 628 453 663 l 475 622 q 413 669 453 650 q 338 689 374 689 q 271 666 297 689 q 238 603 244 643 l 147 92 q 162 24 140 50 q 228 -1 183 -1 q 280 7 253 -1 q 333 31 307 15 q 381 66 358 46 q 417 108 403 86 l 424 106 q 328 18 389 50 q 194 -14 267 -14 q 101 3 142 -14 q 33 52 60 21 q -3 126 7 83 q -6 219 -14 168 l 39 468 m 304 792 l 375 950 l 500 950 l 313 792 l 304 792 z "},"č":{"ha":471,"x_min":-14,"x_max":504,"o":"m 39 468 q 72 561 47 518 q 134 635 97 604 q 216 684 171 667 q 311 701 261 701 q 408 682 364 701 q 481 628 453 663 l 475 622 q 413 669 453 650 q 338 689 374 689 q 271 666 297 689 q 238 603 244 643 l 147 92 q 162 24 140 50 q 228 -1 183 -1 q 280 7 253 -1 q 333 31 307 15 q 381 66 358 46 q 417 108 403 86 l 424 106 q 328 18 389 50 q 194 -14 267 -14 q 101 3 142 -14 q 33 52 60 21 q -3 126 7 83 q -6 219 -14 168 l 39 468 m 219 950 l 346 886 l 496 950 l 504 950 l 335 792 l 326 792 l 211 950 l 219 950 z "},"ç":{"ha":471,"x_min":-14,"x_max":481,"o":"m 39 468 q 72 561 47 518 q 134 635 97 604 q 216 684 171 667 q 311 701 261 701 q 408 682 364 701 q 481 628 453 663 l 475 622 q 413 669 453 650 q 338 689 374 689 q 271 666 297 689 q 238 603 244 643 l 147 92 q 162 24 140 50 q 228 -1 183 -1 q 280 7 253 -1 q 333 31 307 15 q 381 66 358 46 q 417 108 403 86 l 424 106 q 328 18 389 50 q 194 -14 267 -14 q 101 3 142 -14 q 33 52 60 21 q -3 126 7 83 q -6 219 -14 168 l 39 468 m 88 -136 q 118 -163 97 -153 q 161 -174 139 -174 q 203 -159 188 -174 q 219 -121 219 -144 q 154 -69 219 -79 l 194 -4 l 203 -4 l 179 -46 q 267 -67 233 -46 q 301 -119 301 -87 q 270 -172 301 -151 q 193 -193 239 -193 q 126 -179 157 -193 q 81 -142 96 -165 l 88 -136 z "},"ĉ":{"ha":471,"x_min":-14,"x_max":481,"o":"m 39 468 q 72 561 47 518 q 134 635 97 604 q 216 684 171 667 q 311 701 261 701 q 408 682 364 701 q 481 628 453 663 l 475 622 q 413 669 453 650 q 338 689 374 689 q 271 666 297 689 q 238 603 244 643 l 147 92 q 162 24 140 50 q 228 -1 183 -1 q 280 7 253 -1 q 333 31 307 15 q 381 66 358 46 q 417 108 403 86 l 424 106 q 328 18 389 50 q 194 -14 267 -14 q 101 3 142 -14 q 33 52 60 21 q -3 126 7 83 q -6 219 -14 168 l 39 468 m 356 950 l 364 950 l 478 792 l 469 792 l 342 856 l 193 792 l 185 792 l 356 950 z "},"ď":{"ha":544,"x_min":-18,"x_max":761,"o":"m 250 64 l 247 64 q 197 3 224 21 q 133 -14 169 -14 q 66 2 96 -14 q 17 45 36 18 q -10 109 -3 72 q -11 186 -18 146 l 42 486 q 71 569 49 531 q 124 638 93 608 q 192 684 154 667 q 267 701 229 701 q 319 685 299 701 q 346 628 339 668 l 349 628 l 357 669 l 410 971 l 579 971 l 408 0 l 239 0 l 242 22 l 250 64 m 607 813 l 664 971 l 761 971 l 615 813 l 607 813 m 340 578 q 333 653 347 619 q 293 688 318 688 q 260 669 275 688 q 240 624 246 651 l 143 71 q 147 24 138 43 q 174 4 156 4 q 199 14 186 4 q 224 38 213 24 q 245 72 236 53 q 257 108 254 90 l 340 578 z "},"đ":{"ha":544,"x_min":-18,"x_max":601,"o":"m 251 64 l 249 64 q 198 3 225 21 q 135 -14 171 -14 q 67 2 97 -14 q 17 45 38 18 q -10 109 -3 72 q -11 186 -18 146 l 43 486 q 72 569 50 531 q 125 638 94 608 q 192 684 156 667 q 267 701 229 701 q 320 685 300 701 q 347 628 340 668 l 350 628 l 411 971 l 581 971 l 408 0 l 239 0 l 251 64 m 342 578 q 334 653 349 619 q 294 688 319 688 q 260 669 275 688 q 242 624 246 651 l 144 71 q 148 24 139 43 q 175 4 157 4 q 199 14 186 4 q 225 38 213 24 q 247 72 238 53 q 258 108 256 90 l 342 578 m 279 810 l 601 810 l 600 801 l 278 801 l 279 810 z "},"é":{"ha":536,"x_min":-17,"x_max":514,"o":"m 40 479 q 74 565 49 525 q 135 635 99 606 q 217 683 172 665 q 310 701 263 701 q 396 683 357 701 q 462 635 435 665 q 501 565 489 606 q 506 481 514 525 l 482 346 l 192 346 l 146 90 q 160 22 139 47 q 226 -3 182 -3 q 286 8 256 -3 q 344 37 317 18 q 397 81 372 56 q 435 135 421 106 l 443 132 q 339 24 404 63 q 196 -14 274 -14 q 104 3 146 -14 q 35 50 63 21 q -5 119 7 79 q -8 206 -17 160 l 40 479 m 308 354 l 354 615 q 349 672 361 651 q 311 693 338 693 q 265 672 285 693 q 239 615 246 650 l 193 354 l 308 354 m 297 792 l 368 950 l 493 950 l 306 792 l 297 792 z "},"ĕ":{"ha":536,"x_min":-17,"x_max":514,"o":"m 40 479 q 74 565 49 525 q 135 635 99 606 q 217 683 172 665 q 310 701 263 701 q 396 683 357 701 q 462 635 435 665 q 501 565 489 606 q 506 481 514 525 l 482 346 l 192 346 l 146 90 q 160 22 139 47 q 226 -3 182 -3 q 286 8 256 -3 q 344 37 317 18 q 397 81 372 56 q 435 135 421 106 l 443 132 q 339 24 404 63 q 196 -14 274 -14 q 104 3 146 -14 q 35 50 63 21 q -5 119 7 79 q -8 206 -17 160 l 40 479 m 308 354 l 354 615 q 349 672 361 651 q 311 693 338 693 q 265 672 285 693 q 239 615 246 650 l 193 354 l 308 354 m 463 933 l 471 933 q 417 833 460 872 q 319 794 375 794 q 235 833 264 794 q 217 933 206 872 l 225 933 q 251 885 219 906 q 332 864 283 864 q 419 884 381 864 q 463 933 457 904 z "},"ě":{"ha":536,"x_min":-17,"x_max":514,"o":"m 40 479 q 74 565 49 525 q 135 635 99 606 q 217 683 172 665 q 310 701 263 701 q 396 683 357 701 q 462 635 435 665 q 501 565 489 606 q 506 481 514 525 l 482 346 l 192 346 l 146 90 q 160 22 139 47 q 226 -3 182 -3 q 286 8 256 -3 q 344 37 317 18 q 397 81 372 56 q 435 135 421 106 l 443 132 q 339 24 404 63 q 196 -14 274 -14 q 104 3 146 -14 q 35 50 63 21 q -5 119 7 79 q -8 206 -17 160 l 40 479 m 308 354 l 354 615 q 349 672 361 651 q 311 693 338 693 q 265 672 285 693 q 239 615 246 650 l 193 354 l 308 354 m 213 950 l 339 886 l 489 950 l 497 950 l 328 792 l 319 792 l 204 950 l 213 950 z "},"ê":{"ha":536,"x_min":-17,"x_max":514,"o":"m 40 479 q 74 565 49 525 q 135 635 99 606 q 217 683 172 665 q 310 701 263 701 q 396 683 357 701 q 462 635 435 665 q 501 565 489 606 q 506 481 514 525 l 482 346 l 192 346 l 146 90 q 160 22 139 47 q 226 -3 182 -3 q 286 8 256 -3 q 344 37 317 18 q 397 81 372 56 q 435 135 421 106 l 443 132 q 339 24 404 63 q 196 -14 274 -14 q 104 3 146 -14 q 35 50 63 21 q -5 119 7 79 q -8 206 -17 160 l 40 479 m 308 354 l 354 615 q 349 672 361 651 q 311 693 338 693 q 265 672 285 693 q 239 615 246 650 l 193 354 l 308 354 m 349 950 l 357 950 l 471 792 l 463 792 l 335 856 l 186 792 l 178 792 l 349 950 z "},"ë":{"ha":536,"x_min":-17,"x_max":514,"o":"m 40 479 q 74 565 49 525 q 135 635 99 606 q 217 683 172 665 q 310 701 263 701 q 396 683 357 701 q 462 635 435 665 q 501 565 489 606 q 506 481 514 525 l 482 346 l 192 346 l 146 90 q 160 22 139 47 q 226 -3 182 -3 q 286 8 256 -3 q 344 37 317 18 q 397 81 372 56 q 435 135 421 106 l 443 132 q 339 24 404 63 q 196 -14 274 -14 q 104 3 146 -14 q 35 50 63 21 q -5 119 7 79 q -8 206 -17 160 l 40 479 m 308 354 l 354 615 q 349 672 361 651 q 311 693 338 693 q 265 672 285 693 q 239 615 246 650 l 193 354 l 308 354 m 190 868 q 214 909 194 893 q 258 925 233 925 q 298 909 283 925 q 308 868 313 893 q 284 826 304 842 q 239 810 264 810 q 200 826 214 810 q 190 868 186 842 m 364 868 q 388 909 368 893 q 432 925 408 925 q 472 909 458 925 q 482 868 486 893 q 458 826 478 842 q 413 810 439 810 q 374 826 389 810 q 364 868 360 842 z "},"è":{"ha":536,"x_min":-17,"x_max":514,"o":"m 40 479 q 74 565 49 525 q 135 635 99 606 q 217 683 172 665 q 310 701 263 701 q 396 683 357 701 q 462 635 435 665 q 501 565 489 606 q 506 481 514 525 l 482 346 l 192 346 l 146 90 q 160 22 139 47 q 226 -3 182 -3 q 286 8 256 -3 q 344 37 317 18 q 397 81 372 56 q 435 135 421 106 l 443 132 q 339 24 404 63 q 196 -14 274 -14 q 104 3 146 -14 q 35 50 63 21 q -5 119 7 79 q -8 206 -17 160 l 40 479 m 308 354 l 354 615 q 349 672 361 651 q 311 693 338 693 q 265 672 285 693 q 239 615 246 650 l 193 354 l 308 354 m 338 792 l 206 950 l 331 950 l 346 792 l 338 792 z "},"ē":{"ha":536,"x_min":-17,"x_max":514,"o":"m 40 479 q 74 565 49 525 q 135 635 99 606 q 217 683 172 665 q 310 701 263 701 q 396 683 357 701 q 462 635 435 665 q 501 565 489 606 q 506 481 514 525 l 482 346 l 192 346 l 146 90 q 160 22 139 47 q 226 -3 182 -3 q 286 8 256 -3 q 344 37 317 18 q 397 81 372 56 q 435 135 421 106 l 443 132 q 339 24 404 63 q 196 -14 274 -14 q 104 3 146 -14 q 35 50 63 21 q -5 119 7 79 q -8 206 -17 160 l 40 479 m 308 354 l 354 615 q 349 672 361 651 q 311 693 338 693 q 265 672 285 693 q 239 615 246 650 l 193 354 l 308 354 m 469 863 l 199 863 l 200 871 l 471 871 l 469 863 z "},"ę":{"ha":536,"x_min":-17,"x_max":514,"o":"m 40 479 q 74 565 49 525 q 135 635 99 606 q 217 683 172 665 q 310 701 263 701 q 396 683 357 701 q 462 635 435 665 q 501 565 489 606 q 506 481 514 525 l 482 346 l 192 346 l 146 90 q 160 22 139 47 q 226 -3 182 -3 q 286 8 256 -3 q 344 37 317 18 q 397 81 372 56 q 435 135 421 106 l 443 132 q 339 24 404 63 q 196 -14 274 -14 q 104 3 146 -14 q 35 50 63 21 q -5 119 7 79 q -8 206 -17 160 l 40 479 m 308 354 l 354 615 q 349 672 361 651 q 311 693 338 693 q 265 672 285 693 q 239 615 246 650 l 193 354 l 308 354 m 342 -112 q 286 -175 318 -153 q 221 -197 254 -197 q 169 -179 189 -197 q 149 -133 149 -161 q 162 -90 149 -111 q 194 -52 175 -69 q 234 -21 213 -35 q 274 3 256 -7 l 288 3 q 238 -39 258 -12 q 218 -99 218 -65 q 232 -144 218 -126 q 267 -162 246 -162 q 300 -150 282 -162 q 336 -108 318 -137 l 342 -112 z "},"ğ":{"ha":544,"x_min":-54,"x_max":531,"o":"m 361 688 l 531 688 l 401 -51 q 369 -128 394 -93 q 306 -188 343 -162 q 220 -228 268 -214 q 119 -243 172 -243 q -54 -171 6 -243 l -47 -165 q 10 -211 -24 -194 q 79 -228 43 -228 q 176 -188 136 -228 q 226 -79 215 -149 l 251 64 l 250 64 q 199 3 226 21 q 136 -14 171 -14 q 69 2 99 -14 q 19 45 39 18 q -9 109 -1 72 q -10 186 -17 146 l 43 486 q 73 569 51 531 q 126 638 94 608 q 194 684 157 667 q 268 701 231 701 q 321 685 300 701 q 349 628 342 668 l 351 628 l 361 688 m 144 71 q 149 24 140 43 q 175 4 158 4 q 201 14 188 4 q 226 38 214 24 q 248 72 239 53 q 260 108 257 90 l 343 578 q 335 654 350 621 q 294 688 321 688 q 262 669 276 688 q 243 624 247 651 l 144 71 m 463 933 l 471 933 q 417 833 460 872 q 319 794 375 794 q 235 833 264 794 q 217 933 206 872 l 225 933 q 251 885 219 906 q 332 864 283 864 q 419 884 381 864 q 463 933 457 904 z "},"ĝ":{"ha":544,"x_min":-54,"x_max":531,"o":"m 361 688 l 531 688 l 401 -51 q 369 -128 394 -93 q 306 -188 343 -162 q 220 -228 268 -214 q 119 -243 172 -243 q -54 -171 6 -243 l -47 -165 q 10 -211 -24 -194 q 79 -228 43 -228 q 176 -188 136 -228 q 226 -79 215 -149 l 251 64 l 250 64 q 199 3 226 21 q 136 -14 171 -14 q 69 2 99 -14 q 19 45 39 18 q -9 109 -1 72 q -10 186 -17 146 l 43 486 q 73 569 51 531 q 126 638 94 608 q 194 684 157 667 q 268 701 231 701 q 321 685 300 701 q 349 628 342 668 l 351 628 l 361 688 m 144 71 q 149 24 140 43 q 175 4 158 4 q 201 14 188 4 q 226 38 214 24 q 248 72 239 53 q 260 108 257 90 l 343 578 q 335 654 350 621 q 294 688 321 688 q 262 669 276 688 q 243 624 247 651 l 144 71 m 347 950 l 356 950 l 469 792 l 461 792 l 333 856 l 185 792 l 176 792 l 347 950 z "},"ġ":{"ha":544,"x_min":-54,"x_max":531,"o":"m 361 688 l 531 688 l 401 -51 q 369 -128 394 -93 q 306 -188 343 -162 q 220 -228 268 -214 q 119 -243 172 -243 q -54 -171 6 -243 l -47 -165 q 10 -211 -24 -194 q 79 -228 43 -228 q 176 -188 136 -228 q 226 -79 215 -149 l 251 64 l 250 64 q 199 3 226 21 q 136 -14 171 -14 q 69 2 99 -14 q 19 45 39 18 q -9 109 -1 72 q -10 186 -17 146 l 43 486 q 73 569 51 531 q 126 638 94 608 q 194 684 157 667 q 268 701 231 701 q 321 685 300 701 q 349 628 342 668 l 351 628 l 361 688 m 144 71 q 149 24 140 43 q 175 4 158 4 q 201 14 188 4 q 226 38 214 24 q 248 72 239 53 q 260 108 257 90 l 343 578 q 335 654 350 621 q 294 688 321 688 q 262 669 276 688 q 243 624 247 651 l 144 71 m 276 868 q 300 909 281 893 q 344 925 319 925 q 385 909 371 925 q 394 868 399 893 q 371 826 390 843 q 325 810 351 810 q 286 826 300 810 q 276 868 272 842 z "},"ģ":{"ha":544,"x_min":-54,"x_max":531,"o":"m 361 688 l 531 688 l 401 -51 q 369 -128 394 -93 q 306 -188 343 -162 q 220 -228 268 -214 q 119 -243 172 -243 q -54 -171 6 -243 l -47 -165 q 10 -211 -24 -194 q 79 -228 43 -228 q 176 -188 136 -228 q 226 -79 215 -149 l 251 64 l 250 64 q 199 3 226 21 q 136 -14 171 -14 q 69 2 99 -14 q 19 45 39 18 q -9 109 -1 72 q -10 186 -17 146 l 43 486 q 73 569 51 531 q 126 638 94 608 q 194 684 157 667 q 268 701 231 701 q 321 685 300 701 q 349 628 342 668 l 351 628 l 361 688 m 144 71 q 149 24 140 43 q 175 4 158 4 q 201 14 188 4 q 226 38 214 24 q 248 72 239 53 q 260 108 257 90 l 343 578 q 335 654 350 621 q 294 688 321 688 q 262 669 276 688 q 243 624 247 651 l 144 71 m 301 900 q 349 913 329 913 q 385 899 372 913 q 399 861 399 885 q 376 806 399 829 q 321 783 353 783 q 265 856 265 783 q 301 953 265 911 q 397 1001 338 994 l 399 993 q 323 959 351 986 q 301 900 294 932 z "},"ħ":{"ha":558,"x_min":-32,"x_max":538,"o":"m 244 596 q 313 678 281 654 q 392 701 346 701 q 499 659 460 701 q 526 554 538 617 l 429 0 l 249 0 l 358 621 q 343 681 371 681 q 312 668 329 681 q 278 637 294 656 q 250 597 263 618 q 235 556 238 575 l 138 0 l -32 0 l 139 971 l 308 971 l 242 596 l 244 596 m 67 813 l 389 813 l 388 804 l 65 804 l 67 813 z "},"ĥ":{"ha":558,"x_min":-32,"x_max":579,"o":"m 244 596 q 313 678 281 654 q 392 701 346 701 q 499 659 460 701 q 526 554 538 617 l 429 0 l 249 0 l 358 621 q 343 681 371 681 q 312 668 329 681 q 278 637 294 656 q 250 597 263 618 q 235 556 238 575 l 138 0 l -32 0 l 139 971 l 308 971 l 242 596 l 244 596 m 457 1157 l 465 1157 l 579 999 l 571 999 l 443 1063 l 294 999 l 286 999 l 457 1157 z "},"í":{"ha":296,"x_min":-22,"x_max":372,"o":"m 268 688 l 147 0 l -22 0 l 99 688 l 268 688 m 176 792 l 247 950 l 372 950 l 185 792 l 176 792 z "},"ĭ":{"ha":296,"x_min":-22,"x_max":350,"o":"m 268 688 l 147 0 l -22 0 l 99 688 l 268 688 m 342 933 l 350 933 q 297 833 339 872 q 199 794 254 794 q 114 833 143 794 q 96 933 85 872 l 104 933 q 131 885 99 906 q 211 864 163 864 q 298 884 260 864 q 342 933 336 904 z "},"î":{"ha":296,"x_min":-22,"x_max":350,"o":"m 268 688 l 147 0 l -22 0 l 99 688 l 268 688 m 228 950 l 236 950 l 350 792 l 342 792 l 214 856 l 65 792 l 57 792 l 228 950 z "},"ï":{"ha":296,"x_min":-22,"x_max":365,"o":"m 268 688 l 147 0 l -22 0 l 99 688 l 268 688 m 69 868 q 93 909 74 893 q 138 925 113 925 q 177 909 163 925 q 188 868 192 893 q 163 826 183 842 q 118 810 143 810 q 79 826 93 810 q 69 868 65 842 m 243 868 q 267 909 247 893 q 311 925 288 925 q 351 909 338 925 q 361 868 365 893 q 338 826 357 842 q 292 810 318 810 q 253 826 268 810 q 243 868 239 842 z "},"ì":{"ha":296,"x_min":-22,"x_max":268,"o":"m 268 688 l 147 0 l -22 0 l 99 688 l 268 688 m 217 792 l 85 950 l 210 950 l 225 792 l 217 792 z "},"ī":{"ha":296,"x_min":-22,"x_max":350,"o":"m 268 688 l 147 0 l -22 0 l 99 688 l 268 688 m 349 863 l 78 863 l 79 871 l 350 871 l 349 863 z "},"į":{"ha":297,"x_min":-62,"x_max":321,"o":"m 121 867 q 160 934 128 907 q 233 961 192 961 q 298 934 275 961 q 314 867 321 907 q 274 799 307 826 q 200 771 242 771 q 136 799 158 771 q 121 867 114 826 m 268 688 l 147 0 l -22 0 l 99 688 l 268 688 m 131 -112 q 75 -175 107 -153 q 10 -197 43 -197 q -42 -179 -22 -197 q -62 -133 -62 -161 q -49 -90 -62 -111 q -17 -52 -36 -69 q 23 -21 1 -35 q 63 3 44 -7 l 76 3 q 27 -39 47 -12 q 7 -99 7 -65 q 21 -144 7 -126 q 56 -162 35 -162 q 89 -150 71 -162 q 125 -108 107 -137 l 131 -112 z "},"ĩ":{"ha":296,"x_min":-22,"x_max":367,"o":"m 268 688 l 147 0 l -22 0 l 99 688 l 268 688 m 72 831 l 65 833 q 189 925 125 925 q 228 917 210 925 l 271 894 q 307 886 290 886 q 361 919 339 886 l 367 915 q 244 822 308 822 q 201 832 221 822 l 174 846 q 142 860 153 857 q 121 864 131 864 q 96 857 107 864 q 72 831 85 850 z "},"ı":{"ha":296,"x_min":-22,"x_max":268,"o":"m 268 688 l 147 0 l -22 0 l 99 688 l 268 688 z "},"ĵ":{"ha":336,"x_min":-79,"x_max":385,"o":"m 201 67 q 174 -22 193 19 q 122 -99 154 -62 q 40 -172 89 -136 q -75 -243 -8 -207 l -79 -237 q -51 -213 -64 -225 q -26 -185 -37 -201 q -7 -146 -15 -169 q 8 -86 1 -122 l 144 688 l 311 688 l 201 67 m 263 950 l 271 950 l 385 792 l 376 792 l 249 856 l 100 792 l 92 792 l 263 950 z "},"ķ":{"ha":575,"x_min":-33,"x_max":511,"o":"m 135 0 l -33 0 l 138 971 l 306 971 l 135 0 m 361 531 l 496 0 l 321 0 l 238 410 l 239 417 l 499 688 l 511 688 l 361 531 m 238 -160 q 190 -174 211 -174 q 153 -160 167 -174 q 139 -122 139 -146 q 163 -67 139 -90 q 218 -44 186 -44 q 272 -115 272 -44 q 237 -214 272 -172 q 142 -262 201 -256 l 140 -254 q 216 -219 188 -247 q 238 -160 244 -192 z "},"ĸ":{"ha":574,"x_min":-32,"x_max":508,"o":"m 258 688 l 136 0 l -32 0 l 89 688 l 258 688 m 363 535 l 496 0 l 321 0 l 239 410 l 240 417 l 499 688 l 508 688 l 363 535 z "},"ĺ":{"ha":263,"x_min":-33,"x_max":403,"o":"m 139 971 l 306 971 l 133 0 l -33 0 l 139 971 m 207 1026 l 278 1185 l 403 1185 l 215 1026 l 207 1026 z "},"ľ":{"ha":269,"x_min":-33,"x_max":486,"o":"m 139 971 l 306 971 l 133 0 l -33 0 l 139 971 m 340 813 l 332 813 l 389 971 l 486 971 l 340 813 z "},"ł":{"ha":263,"x_min":-33,"x_max":306,"o":"m 53 483 l -6 457 l -8 464 l 54 493 l 139 971 l 306 971 l 236 581 l 292 607 l 293 600 l 235 572 l 133 0 l -33 0 l 53 483 z "},"ń":{"ha":554,"x_min":-36,"x_max":533,"o":"m 240 596 q 309 678 276 654 q 388 701 342 701 q 494 659 456 701 q 522 554 533 617 l 425 0 l 246 0 l 354 621 q 338 681 364 681 q 308 668 325 681 q 274 637 290 656 q 247 597 258 618 q 231 556 235 575 l 132 0 l -36 0 l 85 688 l 254 688 l 238 596 l 240 596 m 301 792 l 372 950 l 497 950 l 310 792 l 301 792 z "},"ň":{"ha":554,"x_min":-36,"x_max":533,"o":"m 240 596 q 309 678 276 654 q 388 701 342 701 q 494 659 456 701 q 522 554 533 617 l 425 0 l 246 0 l 354 621 q 338 681 364 681 q 308 668 325 681 q 274 637 290 656 q 247 597 258 618 q 231 556 235 575 l 132 0 l -36 0 l 85 688 l 254 688 l 238 596 l 240 596 m 217 950 l 343 886 l 493 950 l 501 950 l 332 792 l 324 792 l 208 950 l 217 950 z "},"ņ":{"ha":554,"x_min":-36,"x_max":533,"o":"m 240 596 q 309 678 276 654 q 388 701 342 701 q 494 659 456 701 q 522 554 533 617 l 425 0 l 246 0 l 354 621 q 338 681 364 681 q 308 668 325 681 q 274 637 290 656 q 247 597 258 618 q 231 556 235 575 l 132 0 l -36 0 l 85 688 l 254 688 l 238 596 l 240 596 m 206 -160 q 158 -174 179 -174 q 121 -160 135 -174 q 107 -122 107 -146 q 131 -67 107 -90 q 186 -44 154 -44 q 240 -115 240 -44 q 205 -214 240 -172 q 110 -262 169 -256 l 108 -254 q 184 -219 156 -247 q 206 -160 213 -192 z "},"ñ":{"ha":554,"x_min":-36,"x_max":533,"o":"m 240 596 q 309 678 276 654 q 388 701 342 701 q 494 659 456 701 q 522 554 533 617 l 425 0 l 246 0 l 354 621 q 338 681 364 681 q 308 668 325 681 q 274 637 290 656 q 247 597 258 618 q 231 556 235 575 l 132 0 l -36 0 l 85 688 l 254 688 l 238 596 l 240 596 m 197 831 l 190 833 q 314 925 250 925 q 353 917 335 925 l 396 894 q 432 886 415 886 q 486 919 464 886 l 492 915 q 369 822 433 822 q 326 832 346 822 l 299 846 q 267 860 278 857 q 246 864 256 864 q 221 857 232 864 q 197 831 210 850 z "},"ŀ":{"ha":429,"x_min":-33,"x_max":424,"o":"m 139 971 l 306 971 l 133 0 l -33 0 l 139 971 m 275 504 q 304 555 281 535 q 358 575 328 575 q 407 555 390 575 q 418 504 424 535 q 388 452 413 472 q 333 432 364 432 q 286 452 303 432 q 275 504 269 472 z "},"ó":{"ha":550,"x_min":-17,"x_max":514,"o":"m 308 701 q 395 683 356 701 q 462 635 435 665 q 501 565 489 606 q 506 481 514 525 l 457 206 q 424 121 449 161 q 363 51 399 81 q 282 3 326 21 q 190 -14 238 -14 q 103 3 143 -14 q 35 51 63 21 q -4 122 8 82 q -8 206 -17 161 l 40 481 q 74 565 49 525 q 135 636 99 606 q 217 684 172 667 q 308 701 261 701 m 311 693 q 265 672 285 693 q 239 615 246 650 l 143 71 q 149 15 136 36 q 189 -6 161 -6 q 233 15 215 -6 q 258 71 251 35 l 354 615 q 349 672 361 651 q 311 693 338 693 m 294 792 l 365 950 l 490 950 l 303 792 l 294 792 z "},"ŏ":{"ha":550,"x_min":-17,"x_max":514,"o":"m 308 701 q 395 683 356 701 q 462 635 435 665 q 501 565 489 606 q 506 481 514 525 l 457 206 q 424 121 449 161 q 363 51 399 81 q 282 3 326 21 q 190 -14 238 -14 q 103 3 143 -14 q 35 51 63 21 q -4 122 8 82 q -8 206 -17 161 l 40 481 q 74 565 49 525 q 135 636 99 606 q 217 684 172 667 q 308 701 261 701 m 311 693 q 265 672 285 693 q 239 615 246 650 l 143 71 q 149 15 136 36 q 189 -6 161 -6 q 233 15 215 -6 q 258 71 251 35 l 354 615 q 349 672 361 651 q 311 693 338 693 m 460 933 l 468 933 q 415 833 457 872 q 317 794 372 794 q 232 833 261 794 q 214 933 203 872 l 222 933 q 249 885 217 906 q 329 864 281 864 q 416 884 378 864 q 460 933 454 904 z "},"ô":{"ha":550,"x_min":-17,"x_max":514,"o":"m 308 701 q 395 683 356 701 q 462 635 435 665 q 501 565 489 606 q 506 481 514 525 l 457 206 q 424 121 449 161 q 363 51 399 81 q 282 3 326 21 q 190 -14 238 -14 q 103 3 143 -14 q 35 51 63 21 q -4 122 8 82 q -8 206 -17 161 l 40 481 q 74 565 49 525 q 135 636 99 606 q 217 684 172 667 q 308 701 261 701 m 311 693 q 265 672 285 693 q 239 615 246 650 l 143 71 q 149 15 136 36 q 189 -6 161 -6 q 233 15 215 -6 q 258 71 251 35 l 354 615 q 349 672 361 651 q 311 693 338 693 m 346 950 l 354 950 l 468 792 l 460 792 l 332 856 l 183 792 l 175 792 l 346 950 z "},"ö":{"ha":550,"x_min":-17,"x_max":514,"o":"m 308 701 q 395 683 356 701 q 462 635 435 665 q 501 565 489 606 q 506 481 514 525 l 457 206 q 424 121 449 161 q 363 51 399 81 q 282 3 326 21 q 190 -14 238 -14 q 103 3 143 -14 q 35 51 63 21 q -4 122 8 82 q -8 206 -17 161 l 40 481 q 74 565 49 525 q 135 636 99 606 q 217 684 172 667 q 308 701 261 701 m 311 693 q 265 672 285 693 q 239 615 246 650 l 143 71 q 149 15 136 36 q 189 -6 161 -6 q 233 15 215 -6 q 258 71 251 35 l 354 615 q 349 672 361 651 q 311 693 338 693 m 188 868 q 211 909 192 893 q 256 925 231 925 q 295 909 281 925 q 306 868 310 893 q 281 826 301 842 q 236 810 261 810 q 197 826 211 810 q 188 868 183 842 m 361 868 q 385 909 365 893 q 429 925 406 925 q 469 909 456 925 q 479 868 483 893 q 456 826 475 842 q 410 810 436 810 q 372 826 386 810 q 361 868 357 842 z "},"œ":{"ha":825,"x_min":-17,"x_max":801,"o":"m 313 701 q 446 653 390 701 l 449 653 q 600 701 521 701 q 688 683 649 701 q 753 635 728 665 q 790 563 779 604 q 793 475 801 522 l 771 346 l 482 346 l 436 90 q 451 22 429 47 q 517 -3 472 -3 q 576 8 546 -3 q 635 38 607 19 q 688 82 664 57 q 725 135 711 107 l 733 132 q 629 24 694 63 q 488 -14 564 -14 q 344 35 401 -14 l 342 35 q 194 -14 272 -14 q 105 3 146 -14 q 36 51 64 21 q -4 122 8 82 q -8 206 -17 161 l 40 481 q 74 565 49 525 q 135 636 99 606 q 218 684 172 667 q 313 701 264 701 m 354 615 q 347 669 360 646 q 311 693 333 693 q 267 669 289 693 q 239 615 244 644 l 143 71 q 151 18 138 42 q 189 -6 165 -6 q 233 17 213 -6 q 258 71 253 40 l 354 615 m 531 622 l 483 354 l 597 354 l 644 622 q 636 672 650 650 q 600 693 622 693 q 557 672 578 693 q 531 622 536 650 z "},"ò":{"ha":550,"x_min":-17,"x_max":514,"o":"m 308 701 q 395 683 356 701 q 462 635 435 665 q 501 565 489 606 q 506 481 514 525 l 457 206 q 424 121 449 161 q 363 51 399 81 q 282 3 326 21 q 190 -14 238 -14 q 103 3 143 -14 q 35 51 63 21 q -4 122 8 82 q -8 206 -17 161 l 40 481 q 74 565 49 525 q 135 636 99 606 q 217 684 172 667 q 308 701 261 701 m 311 693 q 265 672 285 693 q 239 615 246 650 l 143 71 q 149 15 136 36 q 189 -6 161 -6 q 233 15 215 -6 q 258 71 251 35 l 354 615 q 349 672 361 651 q 311 693 338 693 m 335 792 l 203 950 l 328 950 l 343 792 l 335 792 z "},"ő":{"ha":550,"x_min":-17,"x_max":571,"o":"m 308 701 q 395 683 356 701 q 462 635 435 665 q 501 565 489 606 q 506 481 514 525 l 457 206 q 424 121 449 161 q 363 51 399 81 q 282 3 326 21 q 190 -14 238 -14 q 103 3 143 -14 q 35 51 63 21 q -4 122 8 82 q -8 206 -17 161 l 40 481 q 74 565 49 525 q 135 636 99 606 q 217 684 172 667 q 308 701 261 701 m 311 693 q 265 672 285 693 q 239 615 246 650 l 143 71 q 149 15 136 36 q 189 -6 161 -6 q 233 15 215 -6 q 258 71 251 35 l 354 615 q 349 672 361 651 q 311 693 338 693 m 388 792 l 458 950 l 571 950 l 396 792 l 388 792 m 221 792 l 292 950 l 404 950 l 229 792 l 221 792 z "},"ō":{"ha":550,"x_min":-17,"x_max":514,"o":"m 308 701 q 395 683 356 701 q 462 635 435 665 q 501 565 489 606 q 506 481 514 525 l 457 206 q 424 121 449 161 q 363 51 399 81 q 282 3 326 21 q 190 -14 238 -14 q 103 3 143 -14 q 35 51 63 21 q -4 122 8 82 q -8 206 -17 161 l 40 481 q 74 565 49 525 q 135 636 99 606 q 217 684 172 667 q 308 701 261 701 m 311 693 q 265 672 285 693 q 239 615 246 650 l 143 71 q 149 15 136 36 q 189 -6 161 -6 q 233 15 215 -6 q 258 71 251 35 l 354 615 q 349 672 361 651 q 311 693 338 693 m 467 863 l 196 863 l 197 871 l 468 871 l 467 863 z "},"ø":{"ha":550,"x_min":-46,"x_max":536,"o":"m 21 71 q -8 206 -21 132 l 40 481 q 74 565 49 525 q 135 636 99 606 q 217 684 172 667 q 308 701 261 701 q 400 681 358 701 q 469 626 442 661 l 528 700 l 536 694 l 475 619 q 504 555 496 590 q 506 481 513 519 l 457 206 q 424 121 449 161 q 363 51 399 81 q 282 3 326 21 q 190 -14 238 -14 q 96 7 138 -14 q 26 63 54 28 l -37 -15 l -46 -10 l 21 71 m 311 693 q 265 672 285 693 q 239 615 246 650 l 178 267 l 325 449 l 354 615 q 349 672 361 651 q 311 693 338 693 m 143 71 q 149 15 136 36 q 189 -6 161 -6 q 233 15 215 -6 q 258 71 251 35 l 321 429 l 174 246 l 143 71 z "},"ǿ":{"ha":550,"x_min":-46,"x_max":536,"o":"m 21 71 q -8 206 -21 132 l 40 481 q 74 565 49 525 q 135 636 99 606 q 217 684 172 667 q 308 701 261 701 q 400 681 358 701 q 469 626 442 661 l 528 700 l 536 694 l 475 619 q 504 555 496 590 q 506 481 513 519 l 457 206 q 424 121 449 161 q 363 51 399 81 q 282 3 326 21 q 190 -14 238 -14 q 96 7 138 -14 q 26 63 54 28 l -37 -15 l -46 -10 l 21 71 m 311 693 q 265 672 285 693 q 239 615 246 650 l 178 267 l 325 449 l 354 615 q 349 672 361 651 q 311 693 338 693 m 143 71 q 149 15 136 36 q 189 -6 161 -6 q 233 15 215 -6 q 258 71 251 35 l 321 429 l 174 246 l 143 71 m 292 743 l 363 901 l 488 901 l 300 743 l 292 743 z "},"õ":{"ha":550,"x_min":-17,"x_max":514,"o":"m 308 701 q 395 683 356 701 q 462 635 435 665 q 501 565 489 606 q 506 481 514 525 l 457 206 q 424 121 449 161 q 363 51 399 81 q 282 3 326 21 q 190 -14 238 -14 q 103 3 143 -14 q 35 51 63 21 q -4 122 8 82 q -8 206 -17 161 l 40 481 q 74 565 49 525 q 135 636 99 606 q 217 684 172 667 q 308 701 261 701 m 311 693 q 265 672 285 693 q 239 615 246 650 l 143 71 q 149 15 136 36 q 189 -6 161 -6 q 233 15 215 -6 q 258 71 251 35 l 354 615 q 349 672 361 651 q 311 693 338 693 m 190 831 l 183 833 q 307 925 243 925 q 346 917 328 925 l 389 894 q 425 886 408 886 q 479 919 457 886 l 485 915 q 363 822 426 822 q 319 832 339 822 l 292 846 q 260 860 271 857 q 239 864 249 864 q 214 857 225 864 q 190 831 203 850 z "},"ŕ":{"ha":383,"x_min":-37,"x_max":438,"o":"m 250 688 l 226 547 l 231 547 q 260 608 242 579 q 303 657 279 636 q 356 690 328 678 q 413 701 385 701 l 388 558 q 325 571 361 571 q 270 562 297 571 q 224 538 243 553 l 129 0 l -37 0 l 83 688 l 250 688 m 242 792 l 313 950 l 438 950 l 250 792 l 242 792 z "},"ř":{"ha":383,"x_min":-37,"x_max":442,"o":"m 250 688 l 226 547 l 231 547 q 260 608 242 579 q 303 657 279 636 q 356 690 328 678 q 413 701 385 701 l 388 558 q 325 571 361 571 q 270 562 297 571 q 224 538 243 553 l 129 0 l -37 0 l 83 688 l 250 688 m 157 950 l 283 886 l 433 950 l 442 950 l 272 792 l 264 792 l 149 950 l 157 950 z "},"ŗ":{"ha":383,"x_min":-49,"x_max":413,"o":"m 250 688 l 226 547 l 231 547 q 260 608 242 579 q 303 657 279 636 q 356 690 328 678 q 413 701 385 701 l 388 558 q 325 571 361 571 q 270 562 297 571 q 224 538 243 553 l 129 0 l -37 0 l 83 688 l 250 688 m 50 -160 q 3 -174 24 -174 q -35 -160 -21 -174 q -49 -122 -49 -146 q -25 -67 -49 -90 q 31 -44 -1 -44 q 85 -115 85 -44 q 49 -214 85 -172 q -46 -262 14 -256 l -47 -254 q 28 -219 0 -247 q 50 -160 57 -192 z "},"ś":{"ha":422,"x_min":-47,"x_max":438,"o":"m 407 636 q 356 673 385 660 q 300 686 328 686 q 235 660 260 686 q 210 594 210 635 q 224 531 210 564 l 339 228 q 350 171 350 197 q 331 101 350 135 q 278 42 311 68 q 202 1 244 17 q 114 -14 160 -14 q 22 5 63 -14 q -47 58 -19 24 l -42 64 q 17 16 -18 33 q 86 -1 51 -1 q 149 23 126 -1 q 171 92 171 47 q 149 192 171 135 l 54 432 q 38 511 38 476 q 56 585 38 550 q 105 645 74 619 q 177 686 136 671 q 264 701 218 701 q 414 642 357 701 l 407 636 m 242 792 l 313 950 l 438 950 l 250 792 l 242 792 z "},"š":{"ha":422,"x_min":-47,"x_max":442,"o":"m 407 636 q 356 673 385 660 q 300 686 328 686 q 235 660 260 686 q 210 594 210 635 q 224 531 210 564 l 339 228 q 350 171 350 197 q 331 101 350 135 q 278 42 311 68 q 202 1 244 17 q 114 -14 160 -14 q 22 5 63 -14 q -47 58 -19 24 l -42 64 q 17 16 -18 33 q 86 -1 51 -1 q 149 23 126 -1 q 171 92 171 47 q 149 192 171 135 l 54 432 q 38 511 38 476 q 56 585 38 550 q 105 645 74 619 q 177 686 136 671 q 264 701 218 701 q 414 642 357 701 l 407 636 m 157 950 l 283 886 l 433 950 l 442 950 l 272 792 l 264 792 l 149 950 l 157 950 z "},"ș":{"ha":422,"x_min":-47,"x_max":414,"o":"m 407 636 q 356 673 385 660 q 300 686 328 686 q 235 660 260 686 q 210 594 210 635 q 224 531 210 564 l 339 228 q 350 171 350 197 q 331 101 350 135 q 278 42 311 68 q 202 1 244 17 q 114 -14 160 -14 q 22 5 63 -14 q -47 58 -19 24 l -42 64 q 17 16 -18 33 q 86 -1 51 -1 q 149 23 126 -1 q 171 92 171 47 q 149 192 171 135 l 54 432 q 38 511 38 476 q 56 585 38 550 q 105 645 74 619 q 177 686 136 671 q 264 701 218 701 q 414 642 357 701 l 407 636 m 129 -160 q 82 -174 103 -174 q 44 -160 58 -174 q 31 -122 31 -146 q 54 -67 31 -90 q 110 -44 78 -44 q 164 -115 164 -44 q 128 -214 164 -172 q 33 -262 93 -256 l 32 -254 q 108 -219 79 -247 q 129 -160 136 -192 z "},"ŝ":{"ha":422,"x_min":-47,"x_max":415,"o":"m 407 636 q 356 673 385 660 q 300 686 328 686 q 235 660 260 686 q 210 594 210 635 q 224 531 210 564 l 339 228 q 350 171 350 197 q 331 101 350 135 q 278 42 311 68 q 202 1 244 17 q 114 -14 160 -14 q 22 5 63 -14 q -47 58 -19 24 l -42 64 q 17 16 -18 33 q 86 -1 51 -1 q 149 23 126 -1 q 171 92 171 47 q 149 192 171 135 l 54 432 q 38 511 38 476 q 56 585 38 550 q 105 645 74 619 q 177 686 136 671 q 264 701 218 701 q 414 642 357 701 l 407 636 m 293 950 l 301 950 l 415 792 l 407 792 l 279 856 l 131 792 l 122 792 l 293 950 z "},"ŧ":{"ha":336,"x_min":-6,"x_max":396,"o":"m 107 -14 q 21 30 47 -14 q 8 150 -6 74 l 76 533 l 8 533 l 10 542 l 78 542 l 101 679 l 33 679 l 35 688 l 104 688 l 132 846 l 310 903 l 272 688 l 396 688 l 394 679 l 271 679 l 246 542 l 372 542 l 371 533 l 244 533 l 165 79 q 194 19 154 19 q 278 64 229 19 l 282 58 q 197 6 246 26 q 107 -14 147 -14 z "},"ť":{"ha":383,"x_min":-6,"x_max":494,"o":"m 340 813 l 397 971 l 494 971 l 349 813 l 340 813 m 107 -14 q 21 30 47 -14 q 8 150 -6 74 l 101 679 l 33 679 l 35 688 l 104 688 l 132 846 l 310 903 l 272 688 l 396 688 l 394 679 l 271 679 l 165 79 q 194 19 154 19 q 278 64 229 19 l 282 58 q 197 6 246 26 q 107 -14 147 -14 z "},"ţ":{"ha":336,"x_min":-6,"x_max":396,"o":"m 107 -14 q 21 30 47 -14 q 8 150 -6 74 l 101 679 l 33 679 l 35 688 l 104 688 l 132 846 l 310 903 l 272 688 l 396 688 l 394 679 l 271 679 l 165 79 q 194 19 154 19 q 278 64 229 19 l 282 58 q 197 6 246 26 q 107 -14 147 -14 m 1 -136 q 32 -163 11 -153 q 75 -174 53 -174 q 117 -159 101 -174 q 133 -121 133 -144 q 68 -69 133 -79 l 108 -4 l 117 -4 l 93 -46 q 181 -67 147 -46 q 215 -119 215 -87 q 184 -172 215 -151 q 107 -193 153 -193 q 40 -179 71 -193 q -6 -142 10 -165 l 1 -136 z "},"ț":{"ha":336,"x_min":-6,"x_max":396,"o":"m 107 -14 q 21 30 47 -14 q 8 150 -6 74 l 101 679 l 33 679 l 35 688 l 104 688 l 132 846 l 310 903 l 272 688 l 396 688 l 394 679 l 271 679 l 165 79 q 194 19 154 19 q 278 64 229 19 l 282 58 q 197 6 246 26 q 107 -14 147 -14 m 131 -160 q 83 -174 104 -174 q 46 -160 60 -174 q 32 -122 32 -146 q 56 -67 32 -90 q 111 -44 79 -44 q 165 -115 165 -44 q 130 -214 165 -172 q 35 -262 94 -256 l 33 -254 q 109 -219 81 -247 q 131 -160 138 -192 z "},"ú":{"ha":547,"x_min":-31,"x_max":539,"o":"m 263 92 q 194 10 228 33 q 115 -14 161 -14 q 8 28 47 -14 q -19 133 -31 71 l 78 688 l 257 688 l 149 67 q 165 7 139 7 q 195 19 178 7 q 228 51 213 32 q 257 91 244 69 q 274 132 269 113 l 371 688 l 539 688 l 418 0 l 249 0 l 265 92 l 263 92 m 303 792 l 374 950 l 499 950 l 311 792 l 303 792 z "},"ŭ":{"ha":547,"x_min":-31,"x_max":539,"o":"m 263 92 q 194 10 228 33 q 115 -14 161 -14 q 8 28 47 -14 q -19 133 -31 71 l 78 688 l 257 688 l 149 67 q 165 7 139 7 q 195 19 178 7 q 228 51 213 32 q 257 91 244 69 q 274 132 269 113 l 371 688 l 539 688 l 418 0 l 249 0 l 265 92 l 263 92 m 468 933 l 476 933 q 423 833 465 872 q 325 794 381 794 q 240 833 269 794 q 222 933 211 872 l 231 933 q 257 885 225 906 q 338 864 289 864 q 424 884 386 864 q 468 933 463 904 z "},"û":{"ha":547,"x_min":-31,"x_max":539,"o":"m 263 92 q 194 10 228 33 q 115 -14 161 -14 q 8 28 47 -14 q -19 133 -31 71 l 78 688 l 257 688 l 149 67 q 165 7 139 7 q 195 19 178 7 q 228 51 213 32 q 257 91 244 69 q 274 132 269 113 l 371 688 l 539 688 l 418 0 l 249 0 l 265 92 l 263 92 m 354 950 l 363 950 l 476 792 l 468 792 l 340 856 l 192 792 l 183 792 l 354 950 z "},"ü":{"ha":547,"x_min":-31,"x_max":539,"o":"m 263 92 q 194 10 228 33 q 115 -14 161 -14 q 8 28 47 -14 q -19 133 -31 71 l 78 688 l 257 688 l 149 67 q 165 7 139 7 q 195 19 178 7 q 228 51 213 32 q 257 91 244 69 q 274 132 269 113 l 371 688 l 539 688 l 418 0 l 249 0 l 265 92 l 263 92 m 196 868 q 219 909 200 893 q 264 925 239 925 q 303 909 289 925 q 314 868 318 893 q 290 826 310 842 q 244 810 269 810 q 206 826 219 810 q 196 868 192 842 m 369 868 q 394 909 374 893 q 438 925 414 925 q 478 909 464 925 q 488 868 492 893 q 464 826 483 842 q 418 810 444 810 q 380 826 394 810 q 369 868 365 842 z "},"ù":{"ha":547,"x_min":-31,"x_max":539,"o":"m 263 92 q 194 10 228 33 q 115 -14 161 -14 q 8 28 47 -14 q -19 133 -31 71 l 78 688 l 257 688 l 149 67 q 165 7 139 7 q 195 19 178 7 q 228 51 213 32 q 257 91 244 69 q 274 132 269 113 l 371 688 l 539 688 l 418 0 l 249 0 l 265 92 l 263 92 m 343 792 l 211 950 l 336 950 l 351 792 l 343 792 z "},"ű":{"ha":547,"x_min":-31,"x_max":579,"o":"m 263 92 q 194 10 228 33 q 115 -14 161 -14 q 8 28 47 -14 q -19 133 -31 71 l 78 688 l 257 688 l 149 67 q 165 7 139 7 q 195 19 178 7 q 228 51 213 32 q 257 91 244 69 q 274 132 269 113 l 371 688 l 539 688 l 418 0 l 249 0 l 265 92 l 263 92 m 396 792 l 467 950 l 579 950 l 404 792 l 396 792 m 229 792 l 300 950 l 413 950 l 238 792 l 229 792 z "},"ū":{"ha":547,"x_min":-31,"x_max":539,"o":"m 263 92 q 194 10 228 33 q 115 -14 161 -14 q 8 28 47 -14 q -19 133 -31 71 l 78 688 l 257 688 l 149 67 q 165 7 139 7 q 195 19 178 7 q 228 51 213 32 q 257 91 244 69 q 274 132 269 113 l 371 688 l 539 688 l 418 0 l 249 0 l 265 92 l 263 92 m 475 863 l 204 863 l 206 871 l 476 871 l 475 863 z "},"ų":{"ha":547,"x_min":-31,"x_max":539,"o":"m 263 92 q 194 10 228 33 q 115 -14 161 -14 q 8 28 47 -14 q -19 133 -31 71 l 78 688 l 257 688 l 149 67 q 165 7 139 7 q 195 19 178 7 q 228 51 213 32 q 257 91 244 69 q 274 132 269 113 l 371 688 l 539 688 l 418 0 l 249 0 l 265 92 l 263 92 m 321 -112 q 265 -175 297 -153 q 200 -197 233 -197 q 148 -179 168 -197 q 128 -133 128 -161 q 141 -90 128 -111 q 173 -52 154 -69 q 213 -21 192 -35 q 253 3 235 -7 l 267 3 q 217 -39 238 -12 q 197 -99 197 -65 q 211 -144 197 -126 q 246 -162 225 -162 q 279 -150 261 -162 q 315 -108 297 -137 l 321 -112 z "},"ů":{"ha":547,"x_min":-31,"x_max":539,"o":"m 263 92 q 194 10 228 33 q 115 -14 161 -14 q 8 28 47 -14 q -19 133 -31 71 l 78 688 l 257 688 l 149 67 q 165 7 139 7 q 195 19 178 7 q 228 51 213 32 q 257 91 244 69 q 274 132 269 113 l 371 688 l 539 688 l 418 0 l 249 0 l 265 92 l 263 92 m 258 876 q 294 937 265 913 q 358 961 322 961 q 415 937 394 961 q 428 876 435 913 q 392 817 421 842 q 329 792 364 792 q 272 817 293 792 q 258 876 251 842 m 268 876 q 280 822 261 844 q 331 800 299 800 q 388 822 363 800 q 419 876 414 844 q 408 931 426 908 q 357 953 389 953 q 299 931 325 953 q 268 876 274 908 z "},"ũ":{"ha":547,"x_min":-31,"x_max":539,"o":"m 263 92 q 194 10 228 33 q 115 -14 161 -14 q 8 28 47 -14 q -19 133 -31 71 l 78 688 l 257 688 l 149 67 q 165 7 139 7 q 195 19 178 7 q 228 51 213 32 q 257 91 244 69 q 274 132 269 113 l 371 688 l 539 688 l 418 0 l 249 0 l 265 92 l 263 92 m 199 831 l 192 833 q 315 925 251 925 q 354 917 336 925 l 397 894 q 433 886 417 886 q 488 919 465 886 l 493 915 q 371 822 435 822 q 328 832 347 822 l 300 846 q 268 860 279 857 q 247 864 257 864 q 222 857 233 864 q 199 831 211 850 z "},"ẃ":{"ha":731,"x_min":53,"x_max":747,"o":"m 53 688 l 228 688 l 264 303 l 267 303 l 369 544 l 357 688 l 532 688 l 569 303 l 572 303 l 736 688 l 747 688 l 454 0 l 421 0 l 372 519 l 369 519 l 149 0 l 115 0 l 53 688 m 429 792 l 500 950 l 625 950 l 438 792 l 429 792 z "},"ŵ":{"ha":731,"x_min":53,"x_max":747,"o":"m 53 688 l 228 688 l 264 303 l 267 303 l 369 544 l 357 688 l 532 688 l 569 303 l 572 303 l 736 688 l 747 688 l 454 0 l 421 0 l 372 519 l 369 519 l 149 0 l 115 0 l 53 688 m 481 950 l 489 950 l 603 792 l 594 792 l 467 856 l 318 792 l 310 792 l 481 950 z "},"ẅ":{"ha":731,"x_min":53,"x_max":747,"o":"m 53 688 l 228 688 l 264 303 l 267 303 l 369 544 l 357 688 l 532 688 l 569 303 l 572 303 l 736 688 l 747 688 l 454 0 l 421 0 l 372 519 l 369 519 l 149 0 l 115 0 l 53 688 m 322 868 q 346 909 326 893 q 390 925 365 925 q 430 909 415 925 q 440 868 444 893 q 416 826 436 842 q 371 810 396 810 q 332 826 346 810 q 322 868 318 842 m 496 868 q 520 909 500 893 q 564 925 540 925 q 604 909 590 925 q 614 868 618 893 q 590 826 610 842 q 544 810 571 810 q 506 826 521 810 q 496 868 492 842 z "},"ẁ":{"ha":731,"x_min":53,"x_max":747,"o":"m 53 688 l 228 688 l 264 303 l 267 303 l 369 544 l 357 688 l 532 688 l 569 303 l 572 303 l 736 688 l 747 688 l 454 0 l 421 0 l 372 519 l 369 519 l 149 0 l 115 0 l 53 688 m 469 792 l 338 950 l 463 950 l 478 792 l 469 792 z "},"ý":{"ha":481,"x_min":51,"x_max":499,"o":"m 231 688 l 288 265 l 290 265 l 488 688 l 499 688 l 64 -243 l 51 -243 l 165 0 l 144 0 l 53 688 l 231 688 m 299 792 l 369 950 l 494 950 l 307 792 l 299 792 z "},"ŷ":{"ha":481,"x_min":51,"x_max":499,"o":"m 231 688 l 288 265 l 290 265 l 488 688 l 499 688 l 64 -243 l 51 -243 l 165 0 l 144 0 l 53 688 l 231 688 m 350 950 l 358 950 l 472 792 l 464 792 l 336 856 l 188 792 l 179 792 l 350 950 z "},"ÿ":{"ha":481,"x_min":51,"x_max":499,"o":"m 231 688 l 288 265 l 290 265 l 488 688 l 499 688 l 64 -243 l 51 -243 l 165 0 l 144 0 l 53 688 l 231 688 m 192 868 q 215 909 196 893 q 260 925 235 925 q 299 909 285 925 q 310 868 314 893 q 285 826 306 842 q 240 810 265 810 q 201 826 215 810 q 192 868 188 842 m 365 868 q 390 909 369 893 q 433 925 410 925 q 474 909 460 925 q 483 868 488 893 q 460 826 479 842 q 414 810 440 810 q 376 826 390 810 q 365 868 361 842 z "},"ỳ":{"ha":481,"x_min":51,"x_max":499,"o":"m 231 688 l 288 265 l 290 265 l 488 688 l 499 688 l 64 -243 l 51 -243 l 165 0 l 144 0 l 53 688 l 231 688 m 339 792 l 207 950 l 332 950 l 347 792 l 339 792 z "},"ź":{"ha":515,"x_min":-44,"x_max":521,"o":"m -44 0 l -43 8 l 329 679 l 129 679 l 132 688 l 521 688 l 519 679 l 149 8 l 397 8 l 396 0 l -44 0 m 317 792 l 388 950 l 513 950 l 325 792 l 317 792 z "},"ž":{"ha":515,"x_min":-44,"x_max":521,"o":"m -44 0 l -43 8 l 329 679 l 129 679 l 132 688 l 521 688 l 519 679 l 149 8 l 397 8 l 396 0 l -44 0 m 232 950 l 358 886 l 508 950 l 517 950 l 347 792 l 339 792 l 224 950 l 232 950 z "},"¥":{"ha":522,"x_min":15,"x_max":603,"o":"m 356 489 l 358 489 l 590 971 l 603 971 l 358 465 l 356 449 l 529 449 l 528 440 l 354 440 l 332 314 l 506 314 l 504 306 l 331 306 l 276 0 l 94 0 l 149 306 l 15 306 l 17 314 l 150 314 l 172 440 l 39 440 l 40 449 l 174 449 l 72 971 l 261 971 l 356 489 z "},"€":{"ha":574,"x_min":-14,"x_max":614,"o":"m 43 411 l -14 411 l -12 419 l 44 419 l 67 546 l 11 546 l 13 554 l 68 554 l 92 690 q 133 812 104 757 q 203 905 161 867 q 299 964 244 943 q 415 985 353 985 q 531 962 481 985 q 614 894 582 939 l 607 889 q 535 951 579 929 q 442 972 490 972 q 345 935 379 972 q 296 818 311 897 l 249 554 l 496 554 l 489 546 l 247 546 l 225 419 l 446 419 l 440 411 l 224 411 l 181 163 q 181 35 164 71 q 261 -1 199 -1 q 335 9 299 -1 q 404 38 372 19 q 462 81 436 56 q 503 136 488 107 l 511 132 q 399 24 471 63 q 242 -14 328 -14 q 56 69 114 -14 q 22 293 -3 151 l 43 411 z "},"Ĩ":{"ha":307,"x_min":-24,"x_max":414,"o":"m 329 971 l 157 0 l -24 0 l 149 971 l 329 971 m 119 1065 l 113 1068 q 236 1160 172 1160 q 275 1151 257 1160 l 318 1129 q 354 1121 338 1121 q 408 1154 386 1121 l 414 1150 q 292 1057 356 1057 q 249 1067 268 1057 l 221 1081 q 189 1095 200 1092 q 168 1099 178 1099 q 143 1092 154 1099 q 119 1065 132 1085 z "},"Ō":{"ha":661,"x_min":10,"x_max":653,"o":"m 93 693 q 134 812 104 758 q 206 904 164 865 q 303 964 249 943 q 419 985 358 985 q 528 964 481 985 q 604 905 575 943 q 643 813 633 867 q 642 693 653 760 l 571 292 q 528 166 558 222 q 456 69 499 110 q 360 8 414 29 q 243 -14 306 -14 q 134 8 181 -14 q 58 70 88 31 q 19 167 29 110 q 22 292 10 224 l 93 693 m 179 154 q 180 32 164 69 q 244 -6 196 -6 q 322 31 293 -6 q 365 154 350 68 l 482 817 q 483 940 497 904 q 418 976 468 976 q 340 939 368 976 q 296 817 311 901 l 179 154 m 575 1097 l 304 1097 l 306 1106 l 576 1106 l 575 1097 z "},"E":{"ha":481,"x_min":-22,"x_max":535,"o":"m 535 971 l 533 963 l 328 963 l 246 500 l 422 500 l 421 492 l 244 492 l 160 8 l 365 8 l 364 0 l -22 0 l 149 971 l 535 971 z "},"W":{"ha":731,"x_min":71,"x_max":828,"o":"m 590 435 l 592 379 l 594 379 l 617 435 l 817 971 l 828 971 l 465 0 l 424 0 l 396 575 l 394 631 l 392 631 l 156 0 l 114 0 l 71 971 l 256 971 l 283 379 l 286 379 l 394 671 l 381 971 l 565 971 l 590 435 z "},"f":{"ha":294,"x_min":-15,"x_max":485,"o":"m 106 688 l 126 807 q 153 877 133 844 q 201 934 172 910 q 267 972 231 958 q 344 985 304 985 q 485 939 421 985 l 478 932 q 386 968 426 968 q 308 878 325 968 l 275 688 l 400 688 l 399 679 l 274 679 l 154 0 l -15 0 l 104 679 l 35 679 l 36 688 l 106 688 z "},"n":{"ha":554,"x_min":-36,"x_max":533,"o":"m 240 596 q 309 678 276 654 q 388 701 342 701 q 494 659 456 701 q 522 554 533 617 l 425 0 l 246 0 l 354 621 q 338 681 364 681 q 308 668 325 681 q 274 637 290 656 q 247 597 258 618 q 231 556 235 575 l 132 0 l -36 0 l 85 688 l 254 688 l 238 596 l 240 596 z "},"u":{"ha":547,"x_min":-31,"x_max":539,"o":"m 263 92 q 194 10 228 33 q 115 -14 161 -14 q 8 28 47 -14 q -19 133 -31 71 l 78 688 l 257 688 l 149 67 q 165 7 139 7 q 195 19 178 7 q 228 51 213 32 q 257 91 244 69 q 274 132 269 113 l 371 688 l 539 688 l 418 0 l 249 0 l 265 92 l 263 92 z "},"w":{"ha":731,"x_min":53,"x_max":747,"o":"m 53 688 l 228 688 l 264 303 l 267 303 l 369 544 l 357 688 l 532 688 l 569 303 l 572 303 l 736 688 l 747 688 l 454 0 l 421 0 l 372 519 l 369 519 l 149 0 l 115 0 l 53 688 z "},"ŋ":{"ha":561,"x_min":-36,"x_max":536,"o":"m 388 701 q 497 659 458 701 q 525 554 536 617 l 439 67 q 410 -19 431 21 q 356 -95 390 -58 q 269 -168 321 -132 q 147 -243 218 -204 l 144 -237 q 173 -213 160 -225 q 197 -185 186 -201 q 215 -146 207 -169 q 231 -86 224 -122 l 356 621 q 340 681 365 681 q 309 668 326 681 q 276 637 292 656 q 247 597 260 618 q 231 556 235 575 l 133 0 l -36 0 l 85 688 l 254 688 l 238 596 l 240 596 q 309 678 276 654 q 388 701 342 701 z "},"ﬁ":{"ha":589,"x_min":-15,"x_max":560,"o":"m 106 688 l 126 807 q 153 877 133 844 q 201 934 172 910 q 267 972 231 958 q 343 985 303 985 q 501 925 429 985 l 494 918 q 385 968 433 968 q 308 878 325 968 l 275 688 l 560 688 l 439 0 l 269 0 l 390 679 l 274 679 l 154 0 l -15 0 l 104 679 l 35 679 l 36 688 l 106 688 z "},"ﬂ":{"ha":568,"x_min":-15,"x_max":610,"o":"m 106 688 l 126 807 q 153 877 133 844 q 201 934 172 910 q 267 972 231 958 q 343 985 303 985 q 439 964 393 985 l 440 971 l 610 971 l 439 0 l 269 0 l 390 679 l 274 679 l 154 0 l -15 0 l 104 679 l 35 679 l 36 688 l 106 688 m 392 688 l 438 954 q 385 968 411 968 q 308 878 325 968 l 275 688 l 392 688 z "},"ﬀ":{"ha":575,"x_min":-15,"x_max":765,"o":"m 265 0 l 385 679 l 274 679 l 154 0 l -15 0 l 104 679 l 35 679 l 36 688 l 106 688 l 124 793 q 151 863 131 831 q 200 920 171 896 q 265 958 229 944 q 342 971 301 971 q 476 929 414 971 q 622 985 536 985 q 765 939 701 985 l 758 932 q 665 968 707 968 q 589 878 606 968 l 556 688 l 681 688 l 679 679 l 554 679 l 435 0 l 265 0 m 275 688 l 386 688 l 407 807 q 428 869 413 839 q 468 922 444 899 q 383 954 421 954 q 306 864 322 954 l 275 688 z "},"ﬃ":{"ha":869,"x_min":-15,"x_max":840,"o":"m 265 0 l 385 679 l 274 679 l 154 0 l -15 0 l 104 679 l 35 679 l 36 688 l 106 688 l 124 793 q 151 863 131 831 q 200 920 171 896 q 265 958 229 944 q 342 971 301 971 q 475 929 413 971 q 621 985 535 985 q 782 925 710 985 l 775 918 q 665 968 714 968 q 589 878 606 968 l 556 688 l 840 688 l 719 0 l 550 0 l 671 679 l 554 679 l 435 0 l 265 0 m 383 954 q 306 864 322 954 l 275 688 l 386 688 l 407 807 q 428 869 413 839 q 468 922 444 899 q 383 954 421 954 z "},"ﬄ":{"ha":849,"x_min":-15,"x_max":890,"o":"m 265 0 l 385 679 l 274 679 l 154 0 l -15 0 l 104 679 l 35 679 l 36 688 l 106 688 l 124 793 q 151 863 131 831 q 200 920 171 896 q 265 958 229 944 q 342 971 301 971 q 475 929 413 971 q 621 985 535 985 q 719 964 674 985 l 721 971 l 890 971 l 719 0 l 550 0 l 671 679 l 554 679 l 435 0 l 265 0 m 672 688 l 718 954 q 665 968 692 968 q 589 878 606 968 l 556 688 l 672 688 m 383 956 q 306 864 322 956 l 275 688 l 386 688 l 407 807 q 428 869 413 839 q 468 922 444 899 q 383 956 419 956 z "},"¼":{"ha":518,"x_min":60,"x_max":479,"o":"m 157 939 l 115 919 l 113 926 l 206 971 l 235 971 l 161 553 l 89 553 l 157 939 m 468 971 l 479 971 l 71 0 l 60 0 l 468 971 m 203 107 l 406 418 l 436 418 l 385 132 l 419 132 l 410 76 l 375 76 l 363 0 l 289 0 l 301 76 l 197 76 l 203 107 m 339 303 l 229 133 l 229 132 l 311 132 l 342 303 l 339 303 z "},"Š":{"ha":536,"x_min":-21,"x_max":558,"o":"m 269 150 q 263 219 269 183 q 242 300 257 256 l 129 642 q 115 732 115 685 q 135 831 115 785 q 188 912 154 878 q 269 965 222 946 q 368 985 315 985 q 478 961 428 985 q 558 894 529 938 l 553 889 q 490 944 531 922 q 414 967 450 967 q 332 922 363 967 q 301 807 301 878 q 324 678 301 746 l 444 292 q 457 215 457 253 q 435 125 457 167 q 376 52 414 83 q 287 3 338 21 q 178 -14 236 -14 q -21 50 64 -14 l -14 57 q 65 15 19 31 q 149 -1 110 -1 q 238 37 207 -1 q 269 150 269 75 m 260 1185 l 386 1121 l 536 1185 l 544 1185 l 375 1026 l 367 1026 l 251 1185 l 260 1185 z "},"Ś":{"ha":536,"x_min":-21,"x_max":558,"o":"m 269 150 q 263 219 269 183 q 242 300 257 256 l 129 642 q 115 732 115 685 q 135 831 115 785 q 188 912 154 878 q 269 965 222 946 q 368 985 315 985 q 478 961 428 985 q 558 894 529 938 l 553 889 q 490 944 531 922 q 414 967 450 967 q 332 922 363 967 q 301 807 301 878 q 324 678 301 746 l 444 292 q 457 215 457 253 q 435 125 457 167 q 376 52 414 83 q 287 3 338 21 q 178 -14 236 -14 q -21 50 64 -14 l -14 57 q 65 15 19 31 q 149 -1 110 -1 q 238 37 207 -1 q 269 150 269 75 m 344 1026 l 415 1185 l 540 1185 l 353 1026 l 344 1026 z "},"Ŝ":{"ha":536,"x_min":-21,"x_max":558,"o":"m 269 150 q 263 219 269 183 q 242 300 257 256 l 129 642 q 115 732 115 685 q 135 831 115 785 q 188 912 154 878 q 269 965 222 946 q 368 985 315 985 q 478 961 428 985 q 558 894 529 938 l 553 889 q 490 944 531 922 q 414 967 450 967 q 332 922 363 967 q 301 807 301 878 q 324 678 301 746 l 444 292 q 457 215 457 253 q 435 125 457 167 q 376 52 414 83 q 287 3 338 21 q 178 -14 236 -14 q -21 50 64 -14 l -14 57 q 65 15 19 31 q 149 -1 110 -1 q 238 37 207 -1 q 269 150 269 75 m 396 1185 l 404 1185 l 518 1026 l 510 1026 l 382 1090 l 233 1026 l 225 1026 l 396 1185 z "},"Ș":{"ha":536,"x_min":-21,"x_max":558,"o":"m 269 150 q 263 219 269 183 q 242 300 257 256 l 129 642 q 115 732 115 685 q 135 831 115 785 q 188 912 154 878 q 269 965 222 946 q 368 985 315 985 q 478 961 428 985 q 558 894 529 938 l 553 889 q 490 944 531 922 q 414 967 450 967 q 332 922 363 967 q 301 807 301 878 q 324 678 301 746 l 444 292 q 457 215 457 253 q 435 125 457 167 q 376 52 414 83 q 287 3 338 21 q 178 -14 236 -14 q -21 50 64 -14 l -14 57 q 65 15 19 31 q 149 -1 110 -1 q 238 37 207 -1 q 269 150 269 75 m 201 -160 q 154 -174 175 -174 q 117 -160 131 -174 q 103 -122 103 -146 q 126 -67 103 -90 q 182 -44 150 -44 q 236 -115 236 -44 q 201 -214 236 -172 q 106 -262 165 -256 l 104 -254 q 180 -219 151 -247 q 201 -160 208 -192 z "},"Ş":{"ha":536,"x_min":-21,"x_max":558,"o":"m 269 150 q 263 219 269 183 q 242 300 257 256 l 129 642 q 115 732 115 685 q 135 831 115 785 q 188 912 154 878 q 269 965 222 946 q 368 985 315 985 q 478 961 428 985 q 558 894 529 938 l 553 889 q 490 944 531 922 q 414 967 450 967 q 332 922 363 967 q 301 807 301 878 q 324 678 301 746 l 444 292 q 457 215 457 253 q 435 125 457 167 q 376 52 414 83 q 287 3 338 21 q 178 -14 236 -14 q -21 50 64 -14 l -14 57 q 65 15 19 31 q 149 -1 110 -1 q 238 37 207 -1 q 269 150 269 75 m 72 -136 q 103 -163 82 -153 q 146 -174 124 -174 q 188 -159 172 -174 q 204 -121 204 -144 q 139 -69 204 -79 l 179 -4 l 188 -4 l 164 -46 q 252 -67 218 -46 q 286 -119 286 -87 q 255 -172 286 -151 q 178 -193 224 -193 q 111 -179 142 -193 q 65 -142 81 -165 l 72 -136 z "},"h":{"ha":558,"x_min":-32,"x_max":538,"o":"m 244 596 q 313 678 281 654 q 392 701 346 701 q 499 659 460 701 q 526 554 538 617 l 429 0 l 249 0 l 358 621 q 343 681 371 681 q 312 668 329 681 q 278 637 294 656 q 250 597 263 618 q 235 556 238 575 l 138 0 l -32 0 l 139 971 l 308 971 l 242 596 l 244 596 z "},"o":{"ha":550,"x_min":-17,"x_max":514,"o":"m 308 701 q 395 683 356 701 q 462 635 435 665 q 501 565 489 606 q 506 481 514 525 l 457 206 q 424 121 449 161 q 363 51 399 81 q 282 3 326 21 q 190 -14 238 -14 q 103 3 143 -14 q 35 51 63 21 q -4 122 8 82 q -8 206 -17 161 l 40 481 q 74 565 49 525 q 135 636 99 606 q 217 684 172 667 q 308 701 261 701 m 311 693 q 265 672 285 693 q 239 615 246 650 l 143 71 q 149 15 136 36 q 189 -6 161 -6 q 233 15 215 -6 q 258 71 251 35 l 354 615 q 349 672 361 651 q 311 693 338 693 z "},"c":{"ha":471,"x_min":-14,"x_max":481,"o":"m 39 468 q 72 561 47 518 q 134 635 97 604 q 216 684 171 667 q 311 701 261 701 q 408 682 364 701 q 481 628 453 663 l 475 622 q 413 669 453 650 q 338 689 374 689 q 271 666 297 689 q 238 603 244 643 l 147 92 q 162 24 140 50 q 228 -1 183 -1 q 280 7 253 -1 q 333 31 307 15 q 381 66 358 46 q 417 108 403 86 l 424 106 q 328 18 389 50 q 194 -14 267 -14 q 101 3 142 -14 q 33 52 60 21 q -3 126 7 83 q -6 219 -14 168 l 39 468 z "},"e":{"ha":536,"x_min":-17,"x_max":514,"o":"m 40 479 q 74 565 49 525 q 135 635 99 606 q 217 683 172 665 q 310 701 263 701 q 396 683 357 701 q 462 635 435 665 q 501 565 489 606 q 506 481 514 525 l 482 346 l 192 346 l 146 90 q 160 22 139 47 q 226 -3 182 -3 q 286 8 256 -3 q 344 37 317 18 q 397 81 372 56 q 435 135 421 106 l 443 132 q 339 24 404 63 q 196 -14 274 -14 q 104 3 146 -14 q 35 50 63 21 q -5 119 7 79 q -8 206 -17 160 l 40 479 m 308 354 l 354 615 q 349 672 361 651 q 311 693 338 693 q 265 672 285 693 q 239 615 246 650 l 193 354 l 308 354 z "},"ļ":{"ha":263,"x_min":-33,"x_max":306,"o":"m 139 971 l 306 971 l 133 0 l -33 0 l 139 971 m 65 -160 q 18 -174 39 -174 q -19 -160 -6 -174 q -33 -122 -33 -146 q -10 -67 -33 -90 q 46 -44 14 -44 q 100 -115 100 -44 q 65 -214 100 -172 q -31 -262 29 -256 l -32 -254 q 44 -219 15 -247 q 65 -160 72 -192 z "},"ş":{"ha":422,"x_min":-47,"x_max":414,"o":"m 407 636 q 356 673 385 660 q 300 686 328 686 q 235 660 260 686 q 210 594 210 635 q 224 531 210 564 l 339 228 q 350 171 350 197 q 331 101 350 135 q 278 42 311 68 q 202 1 244 17 q 114 -14 160 -14 q 22 5 63 -14 q -47 58 -19 24 l -42 64 q 17 16 -18 33 q 86 -1 51 -1 q 149 23 126 -1 q 171 92 171 47 q 149 192 171 135 l 54 432 q 38 511 38 476 q 56 585 38 550 q 105 645 74 619 q 177 686 136 671 q 264 701 218 701 q 414 642 357 701 l 407 636 m 0 -136 q 31 -163 10 -153 q 74 -174 51 -174 q 116 -159 100 -174 q 132 -121 132 -144 q 67 -69 132 -79 l 107 -4 l 115 -4 l 92 -46 q 180 -67 146 -46 q 214 -119 214 -87 q 183 -172 214 -151 q 106 -193 151 -193 q 39 -179 69 -193 q -7 -142 8 -165 l 0 -136 z "},"ȷ":{"ha":336,"x_min":-79,"x_max":311,"o":"m 201 67 q 174 -22 193 19 q 122 -99 154 -62 q 40 -172 89 -136 q -75 -243 -8 -207 l -79 -237 q -51 -213 -64 -225 q -26 -185 -37 -201 q -7 -146 -15 -169 q 8 -86 1 -122 l 144 688 l 311 688 l 201 67 z "},"ä":{"ha":544,"x_min":-18,"x_max":531,"o":"m 251 64 l 249 64 q 198 3 225 21 q 135 -14 171 -14 q 67 2 97 -14 q 18 45 38 18 q -10 109 -1 72 q -11 186 -18 146 l 42 486 q 72 569 50 531 q 124 638 93 608 q 192 684 156 667 q 267 701 229 701 q 320 685 300 701 q 347 628 340 668 l 350 628 l 361 688 l 531 688 l 410 0 l 240 0 l 243 22 l 251 64 m 342 578 q 334 653 349 619 q 294 688 319 688 q 260 669 275 688 q 242 624 246 651 l 144 71 q 148 24 139 43 q 175 4 157 4 q 199 14 186 4 q 225 38 213 24 q 247 72 238 53 q 258 108 256 90 l 342 578 m 190 868 q 214 909 194 893 q 258 925 233 925 q 298 909 283 925 q 308 868 313 893 q 284 826 304 842 q 239 810 264 810 q 200 826 214 810 q 190 868 186 842 m 364 868 q 388 909 368 893 q 432 925 408 925 q 472 909 458 925 q 482 868 486 893 q 458 826 478 842 q 413 810 439 810 q 374 826 389 810 q 364 868 360 842 z "},"←":{"ha":947,"x_min":32,"x_max":908,"o":"m 349 711 l 354 700 l 60 475 l 908 475 l 907 464 l 58 464 l 274 238 l 263 228 l 32 469 l 349 711 z "},"⟵":{"ha":1308,"x_min":32,"x_max":1269,"o":"m 349 711 l 354 700 l 60 475 l 1269 475 l 1268 464 l 58 464 l 274 238 l 263 228 l 32 469 l 349 711 z "},"⇐":{"ha":947,"x_min":32,"x_max":918,"o":"m 349 711 l 354 700 l 132 531 l 918 531 l 917 519 l 118 519 l 53 469 l 100 419 l 899 419 l 897 408 l 111 408 l 274 238 l 263 228 l 32 469 l 349 711 z "},"⟸":{"ha":1308,"x_min":32,"x_max":1279,"o":"m 349 711 l 354 700 l 132 531 l 1279 531 l 1278 519 l 118 519 l 53 469 l 100 419 l 1260 419 l 1258 408 l 111 408 l 274 238 l 263 228 l 32 469 l 349 711 z "},"→":{"ha":946,"x_min":31,"x_max":907,"o":"m 590 229 l 585 240 l 879 465 l 31 465 l 32 476 l 881 476 l 665 703 l 676 713 l 907 471 l 590 229 z "},"⟹":{"ha":1307,"x_min":21,"x_max":1268,"o":"m 951 229 l 946 240 l 1168 410 l 21 410 l 22 421 l 1182 421 l 1247 471 l 1200 521 l 40 521 l 42 532 l 1189 532 l 1026 703 l 1038 713 l 1268 471 l 951 229 z "},"⇒":{"ha":946,"x_min":21,"x_max":907,"o":"m 590 229 l 585 240 l 807 410 l 21 410 l 22 421 l 821 421 l 886 471 l 839 521 l 40 521 l 42 532 l 828 532 l 665 703 l 676 713 l 907 471 l 590 229 z "},"⟶":{"ha":1307,"x_min":31,"x_max":1268,"o":"m 951 229 l 946 240 l 1240 465 l 31 465 l 32 476 l 1242 476 l 1026 703 l 1038 713 l 1268 471 l 951 229 z "},"↖":{"ha":596,"x_min":57,"x_max":554,"o":"m 485 971 l 482 960 l 138 961 l 554 456 l 544 446 l 129 953 l 68 610 l 57 608 l 121 972 l 485 971 z "},"↗":{"ha":563,"x_min":51,"x_max":549,"o":"m 121 971 l 124 960 l 468 961 l 51 456 l 61 446 l 476 953 l 538 610 l 549 608 l 485 972 l 121 971 z "},"↘":{"ha":596,"x_min":40,"x_max":538,"o":"m 110 -1 l 113 10 l 457 10 l 40 515 l 50 525 l 465 18 l 526 361 l 538 363 l 474 -1 l 110 -1 z "},"↙":{"ha":563,"x_min":14,"x_max":511,"o":"m 442 -1 l 439 10 l 94 10 l 511 515 l 501 525 l 86 18 l 25 361 l 14 363 l 78 -1 l 442 -1 z "},"↔":{"ha":993,"x_min":32,"x_max":954,"o":"m 638 228 l 631 239 l 925 464 l 58 464 l 274 238 l 263 228 l 32 469 l 349 711 l 354 700 l 60 475 l 928 475 l 713 701 l 724 711 l 954 469 l 638 228 z "},"⟷":{"ha":1350,"x_min":32,"x_max":1311,"o":"m 349 711 l 354 700 l 58 475 l 1286 475 l 1069 701 l 1081 711 l 1311 471 l 994 228 l 988 239 l 1282 464 l 58 464 l 274 238 l 263 228 l 32 471 l 349 711 z "},"⇔":{"ha":1039,"x_min":32,"x_max":1000,"o":"m 349 711 l 354 700 l 132 531 l 922 531 l 758 701 l 769 711 l 1000 469 l 685 228 l 678 239 l 899 408 l 111 408 l 274 238 l 263 228 l 32 469 l 349 711 m 914 419 l 979 469 l 932 519 l 118 519 l 53 469 l 100 419 l 914 419 z "},"⟺":{"ha":1317,"x_min":32,"x_max":1278,"o":"m 349 711 l 354 700 l 133 532 l 1199 532 l 1036 701 l 1047 711 l 1278 471 l 963 228 l 956 239 l 1178 410 l 110 410 l 274 238 l 263 228 l 32 471 l 349 711 m 1193 421 l 1257 471 l 1210 521 l 119 521 l 53 471 l 100 421 l 1193 421 z "},"↑":{"ha":553,"x_min":49,"x_max":532,"o":"m 532 565 l 519 557 l 339 813 l 214 101 l 203 101 l 328 811 l 58 557 l 49 565 l 338 839 l 532 565 z "},"↓":{"ha":554,"x_min":15,"x_max":499,"o":"m 15 375 l 28 383 l 208 128 l 333 839 l 344 839 l 219 129 l 489 383 l 499 375 l 210 101 l 15 375 z "},"↕":{"ha":554,"x_min":15,"x_max":531,"o":"m 15 375 l 28 383 l 207 131 l 328 811 l 58 557 l 49 565 l 338 839 l 531 565 l 518 557 l 339 813 l 218 129 l 488 383 l 497 375 l 208 101 l 15 375 z "},"↩":{"ha":1072,"x_min":32,"x_max":1065,"o":"m 349 711 l 356 700 l 60 475 l 856 475 q 929 490 893 475 q 993 532 965 506 q 1038 592 1021 558 q 1054 665 1054 626 q 1017 763 1054 722 q 914 804 981 804 l 872 804 l 875 815 l 917 815 q 1024 773 982 815 q 1065 667 1065 731 q 1047 588 1065 625 q 999 524 1029 551 q 931 480 969 496 q 853 464 893 464 l 58 464 l 274 238 l 264 228 l 32 469 l 349 711 z "},"↪":{"ha":1142,"x_min":69,"x_max":1103,"o":"m 786 711 l 779 700 l 1075 475 l 279 475 q 206 490 242 475 q 142 532 170 506 q 97 592 114 558 q 81 665 81 626 q 117 763 81 722 q 221 804 154 804 l 263 804 l 260 815 l 218 815 q 111 773 153 815 q 70 667 70 731 q 88 588 70 625 q 135 524 106 551 q 204 480 165 496 q 282 464 242 464 l 1076 464 l 861 238 l 871 228 l 1103 469 l 786 711 z "},"Ċ":{"ha":574,"x_min":-1,"x_max":615,"o":"m 94 690 q 134 812 106 757 q 205 905 163 867 q 301 964 247 943 q 417 985 354 985 q 533 962 482 985 q 615 894 583 939 l 610 889 q 537 951 581 929 q 444 972 493 972 q 347 935 382 972 q 297 818 313 897 l 182 163 q 184 35 167 71 q 264 -1 201 -1 q 338 9 301 -1 q 406 38 374 19 q 465 81 439 56 q 504 136 490 107 l 513 132 q 401 24 472 63 q 243 -14 331 -14 q 57 69 115 -14 q 24 293 -1 151 l 94 690 m 371 1103 q 394 1144 375 1128 q 439 1160 414 1160 q 479 1144 465 1160 q 489 1103 493 1128 q 465 1061 485 1078 q 419 1044 446 1044 q 381 1060 394 1044 q 371 1103 367 1076 z "},"Ė":{"ha":481,"x_min":-22,"x_max":535,"o":"m 535 971 l 533 963 l 328 963 l 246 500 l 422 500 l 421 492 l 244 492 l 160 8 l 365 8 l 364 0 l -22 0 l 149 971 l 535 971 m 308 1103 q 332 1144 313 1128 q 376 1160 351 1160 q 417 1144 403 1160 q 426 1103 431 1128 q 403 1061 422 1078 q 357 1044 383 1044 q 318 1060 332 1044 q 308 1103 304 1076 z "},"Ġ":{"ha":644,"x_min":-1,"x_max":629,"o":"m 93 690 q 134 813 106 758 q 205 905 163 867 q 303 964 247 943 q 422 985 358 985 q 544 962 490 985 q 629 896 597 939 l 624 890 q 556 947 599 926 q 464 967 513 967 q 353 928 396 967 q 297 818 310 889 l 179 147 q 274 -4 151 -4 q 306 -2 289 -4 q 338 4 324 0 l 419 468 l 307 468 l 308 476 l 588 476 l 511 43 q 452 20 485 31 q 385 2 419 10 q 317 -10 351 -6 q 253 -14 282 -14 q 58 68 118 -14 q 24 293 -1 150 l 93 690 m 383 1103 q 407 1144 388 1128 q 451 1160 426 1160 q 492 1144 478 1160 q 501 1103 506 1128 q 478 1061 497 1078 q 432 1044 458 1044 q 393 1060 407 1044 q 383 1103 379 1076 z "},"İ":{"ha":307,"x_min":-24,"x_max":329,"o":"m 329 971 l 157 0 l -24 0 l 149 971 l 329 971 m 203 1103 q 226 1144 207 1128 q 271 1160 246 1160 q 311 1144 297 1160 q 321 1103 325 1128 q 297 1061 317 1078 q 251 1044 278 1044 q 213 1060 226 1044 q 203 1103 199 1076 z "},"Ţ":{"ha":515,"x_min":51,"x_max":614,"o":"m 613 963 l 432 963 l 261 0 l 81 0 l 251 963 l 71 963 l 72 971 l 614 971 l 613 963 m 58 -131 q 89 -158 68 -147 q 132 -168 110 -168 q 174 -153 158 -168 q 190 -115 190 -139 q 125 -64 190 -74 l 165 1 l 174 1 l 150 -40 q 238 -61 204 -40 q 272 -114 272 -82 q 241 -167 272 -146 q 164 -187 210 -187 q 97 -174 128 -187 q 51 -136 67 -160 l 58 -131 z "},"Ç":{"ha":574,"x_min":-1,"x_max":615,"o":"m 94 690 q 134 812 106 757 q 205 905 163 867 q 301 964 247 943 q 417 985 354 985 q 533 962 482 985 q 615 894 583 939 l 610 889 q 537 951 581 929 q 444 972 493 972 q 347 935 382 972 q 297 818 313 897 l 182 163 q 184 35 167 71 q 264 -1 201 -1 q 338 9 301 -1 q 406 38 374 19 q 465 81 439 56 q 504 136 490 107 l 513 132 q 401 24 472 63 q 243 -14 331 -14 q 57 69 115 -14 q 24 293 -1 151 l 94 690 m 136 -137 q 167 -165 146 -154 q 210 -175 188 -175 q 252 -160 236 -175 q 268 -122 268 -146 q 203 -71 268 -81 l 243 -6 l 251 -6 l 228 -47 q 316 -68 282 -47 q 350 -121 350 -89 q 319 -174 350 -153 q 242 -194 288 -194 q 175 -181 206 -194 q 129 -143 144 -167 l 136 -137 z "},"Ż":{"ha":608,"x_min":-56,"x_max":643,"o":"m 167 963 l 168 971 l 643 971 l 642 963 l 136 8 l 493 8 l 492 0 l -56 0 l -53 8 l 453 963 l 167 963 m 363 1103 q 386 1144 367 1128 q 431 1160 406 1160 q 471 1144 457 1160 q 481 1103 485 1128 q 457 1061 476 1078 q 411 1044 438 1044 q 372 1060 386 1044 q 363 1103 358 1076 z "},"ċ":{"ha":471,"x_min":-14,"x_max":481,"o":"m 39 468 q 72 561 47 518 q 134 635 97 604 q 216 684 171 667 q 311 701 261 701 q 408 682 364 701 q 481 628 453 663 l 475 622 q 413 669 453 650 q 338 689 374 689 q 271 666 297 689 q 238 603 244 643 l 147 92 q 162 24 140 50 q 228 -1 183 -1 q 280 7 253 -1 q 333 31 307 15 q 381 66 358 46 q 417 108 403 86 l 424 106 q 328 18 389 50 q 194 -14 267 -14 q 101 3 142 -14 q 33 52 60 21 q -3 126 7 83 q -6 219 -14 168 l 39 468 m 283 868 q 307 909 288 893 q 351 925 326 925 q 392 909 378 925 q 401 868 406 893 q 378 826 397 843 q 332 810 358 810 q 293 826 307 810 q 283 868 279 842 z "},"ė":{"ha":536,"x_min":-17,"x_max":514,"o":"m 40 479 q 74 565 49 525 q 135 635 99 606 q 217 683 172 665 q 310 701 263 701 q 396 683 357 701 q 462 635 435 665 q 501 565 489 606 q 506 481 514 525 l 482 346 l 192 346 l 146 90 q 160 22 139 47 q 226 -3 182 -3 q 286 8 256 -3 q 344 37 317 18 q 397 81 372 56 q 435 135 421 106 l 443 132 q 339 24 404 63 q 196 -14 274 -14 q 104 3 146 -14 q 35 50 63 21 q -5 119 7 79 q -8 206 -17 160 l 40 479 m 308 354 l 354 615 q 349 672 361 651 q 311 693 338 693 q 265 672 285 693 q 239 615 246 650 l 193 354 l 308 354 m 276 868 q 300 909 281 893 q 344 925 319 925 q 385 909 371 925 q 394 868 399 893 q 371 826 390 843 q 325 810 351 810 q 286 826 300 810 q 276 868 272 842 z "},"ż":{"ha":515,"x_min":-44,"x_max":521,"o":"m -44 0 l -43 8 l 329 679 l 129 679 l 132 688 l 521 688 l 519 679 l 149 8 l 397 8 l 396 0 l -44 0 m 296 868 q 319 909 300 893 q 364 925 339 925 q 404 909 390 925 q 414 868 418 893 q 390 826 410 843 q 344 810 371 810 q 306 826 319 810 q 296 868 292 842 z "},"Ģ":{"ha":644,"x_min":-1,"x_max":629,"o":"m 93 690 q 134 813 106 758 q 205 905 163 867 q 303 964 247 943 q 422 985 358 985 q 544 962 490 985 q 629 896 597 939 l 624 890 q 556 947 599 926 q 464 967 513 967 q 353 928 396 967 q 297 818 310 889 l 179 147 q 274 -4 151 -4 q 306 -2 289 -4 q 338 4 324 0 l 419 468 l 307 468 l 308 476 l 588 476 l 511 43 q 452 20 485 31 q 385 2 419 10 q 317 -10 351 -6 q 253 -14 282 -14 q 58 68 118 -14 q 24 293 -1 150 l 93 690 m 275 -160 q 228 -174 249 -174 q 190 -160 204 -174 q 176 -122 176 -146 q 200 -67 176 -90 q 256 -44 224 -44 q 310 -115 310 -44 q 274 -214 310 -172 q 179 -262 239 -256 l 178 -254 q 253 -219 225 -247 q 275 -160 282 -192 z "},"А":{"ha":490,"x_min":-100,"x_max":417,"o":"m 279 971 l 321 971 l 417 0 l 229 0 l 200 303 l 29 303 l -89 0 l -100 0 l 279 971 m 33 311 l 199 311 l 165 643 l 163 643 l 33 311 z "},"Б":{"ha":601,"x_min":-22,"x_max":572,"o":"m 354 504 q 435 485 399 504 q 496 434 472 467 q 529 358 519 401 q 531 265 539 314 l 525 232 q 492 141 517 183 q 433 67 468 99 q 355 18 397 36 q 267 0 313 0 l -22 0 l 149 971 l 572 971 l 571 963 l 328 963 l 247 504 l 354 504 m 361 325 q 364 455 376 414 q 307 496 351 496 l 246 496 l 160 8 l 235 8 q 270 16 256 8 q 297 42 285 24 q 317 93 308 61 q 333 172 325 125 l 361 325 z "},"В":{"ha":601,"x_min":-22,"x_max":604,"o":"m 590 721 q 563 636 582 674 q 516 571 543 599 q 456 526 489 543 q 390 504 424 508 l 368 501 l 368 497 l 389 494 q 455 468 425 489 q 503 416 485 447 q 530 346 522 385 q 531 265 538 307 l 525 232 q 496 149 518 190 q 440 74 474 107 q 363 21 407 42 q 267 0 319 0 l -22 0 l 149 971 l 415 971 q 498 954 461 971 q 559 908 535 938 q 594 838 583 878 q 596 750 604 797 l 590 721 m 308 504 q 367 542 349 504 q 401 672 385 579 l 424 799 q 435 877 432 846 q 436 927 439 908 q 422 954 433 946 q 389 963 410 963 l 328 963 l 247 504 l 308 504 m 361 325 q 363 458 378 419 q 307 496 347 496 l 246 496 l 160 8 l 235 8 q 298 44 278 8 q 333 172 318 79 l 361 325 z "},"Г":{"ha":428,"x_min":-24,"x_max":525,"o":"m 147 971 l 525 971 l 524 963 l 326 963 l 157 0 l -24 0 l 147 971 z "},"Д":{"ha":560,"x_min":-136,"x_max":582,"o":"m -136 -210 l -99 8 l -64 8 q -14 80 -37 36 q 32 187 10 124 q 74 335 54 250 q 114 533 94 421 l 190 971 l 582 971 l 413 8 l 489 8 l 450 -210 l 269 -210 l 307 0 l -90 0 l -128 -210 l -136 -210 m 232 8 l 401 963 l 199 963 l 119 518 q 86 353 104 433 q 47 207 68 274 q 1 89 26 140 q -53 8 -24 38 l 232 8 z "},"Е":{"ha":481,"x_min":-24,"x_max":535,"o":"m 535 971 l 533 963 l 328 963 l 246 500 l 422 500 l 421 492 l 244 492 l 158 8 l 364 8 l 363 0 l -24 0 l 149 971 l 535 971 z "},"Ж":{"ha":963,"x_min":-99,"x_max":972,"o":"m 704 0 l 635 419 q 615 487 628 468 q 583 506 601 506 l 576 506 l 486 0 l 306 0 l 394 506 l 389 506 q 351 487 371 506 q 306 419 331 468 l 89 0 l -99 0 l 104 372 q 151 444 128 417 q 199 488 175 472 q 247 509 224 503 q 296 515 271 515 l 336 515 l 164 971 l 176 971 l 349 515 l 396 515 l 476 971 l 658 971 l 578 515 l 626 515 l 958 971 l 972 971 l 639 515 l 679 515 q 726 509 704 515 q 765 488 747 503 q 798 444 783 472 q 821 372 813 417 l 892 0 l 704 0 z "},"З":{"ha":668,"x_min":-22,"x_max":678,"o":"m 218 -14 q 83 3 146 -14 q -22 50 21 19 l -17 57 q 65 17 22 31 q 153 4 108 4 q 326 68 256 4 q 417 240 397 132 l 426 299 q 407 445 443 390 q 294 500 371 500 l 267 500 l 267 508 l 296 508 q 417 562 367 508 q 483 710 467 615 l 490 750 q 467 905 507 846 q 343 964 426 964 q 156 889 250 964 l 150 894 q 271 961 201 938 q 415 985 340 985 q 531 967 481 985 q 616 919 582 950 q 664 844 650 888 q 669 749 678 801 l 664 718 q 580 571 647 625 q 406 510 513 517 l 372 507 l 372 501 l 404 499 q 567 433 514 489 q 604 285 619 376 l 597 249 q 555 140 588 189 q 472 58 522 92 q 358 5 422 24 q 218 -14 293 -14 z "},"И":{"ha":569,"x_min":-29,"x_max":597,"o":"m 597 971 l 426 0 l 417 0 l 575 897 l 572 897 l 13 0 l -29 0 l 142 971 l 150 971 l 43 361 l 46 361 l 79 417 l 425 971 l 597 971 z "},"Й":{"ha":569,"x_min":-29,"x_max":597,"o":"m 597 971 l 426 0 l 417 0 l 575 897 l 572 897 l 13 0 l -29 0 l 142 971 l 150 971 l 43 361 l 46 361 l 79 417 l 425 971 l 597 971 m 493 1168 l 501 1168 q 448 1068 490 1107 q 350 1029 406 1029 q 265 1068 294 1029 q 247 1168 236 1107 l 256 1168 q 282 1119 250 1140 q 363 1099 314 1099 q 449 1119 411 1099 q 493 1168 488 1139 z "},"К":{"ha":635,"x_min":-22,"x_max":644,"o":"m 375 0 l 307 419 q 285 487 299 468 q 254 506 272 506 l 249 506 l 160 0 l -22 0 l 149 971 l 331 971 l 250 515 l 299 515 l 631 971 l 644 971 l 311 515 l 351 515 q 398 509 376 515 q 438 488 419 503 q 469 444 456 472 q 492 372 483 417 l 563 0 l 375 0 z "},"Л":{"ha":782,"x_min":-96,"x_max":804,"o":"m -90 28 q -11 3 -53 3 q 53 38 26 3 q 97 163 79 72 l 267 971 l 804 971 l 632 0 l 451 0 l 621 963 l 444 963 l 303 306 q 194 68 271 150 q 21 -14 118 -14 q -96 21 -44 -14 l -90 28 z "},"М":{"ha":767,"x_min":-29,"x_max":789,"o":"m 618 0 l 438 0 l 597 907 l 594 907 l 269 0 l 228 0 l 142 907 l 139 907 l -21 0 l -29 0 l 142 971 l 324 971 l 382 353 l 385 353 l 607 971 l 789 971 l 618 0 z "},"Н":{"ha":668,"x_min":-22,"x_max":689,"o":"m 329 971 l 244 489 l 424 489 l 508 971 l 689 971 l 518 0 l 339 0 l 422 481 l 243 481 l 158 0 l -22 0 l 149 971 l 329 971 z "},"О":{"ha":661,"x_min":10,"x_max":653,"o":"m 93 693 q 134 812 104 758 q 206 904 164 865 q 303 964 249 943 q 419 985 358 985 q 528 964 481 985 q 604 905 575 943 q 643 813 633 867 q 642 693 653 760 l 571 292 q 528 166 558 222 q 456 69 499 110 q 360 8 414 29 q 243 -14 306 -14 q 134 8 181 -14 q 58 70 88 31 q 19 167 29 110 q 22 292 10 224 l 93 693 m 179 154 q 180 32 164 69 q 244 -6 196 -6 q 322 31 293 -6 q 365 154 350 68 l 482 817 q 483 940 497 904 q 418 976 468 976 q 340 939 368 976 q 296 817 311 901 l 179 154 z "},"П":{"ha":668,"x_min":-24,"x_max":689,"o":"m 147 971 l 689 971 l 518 0 l 338 0 l 507 963 l 326 963 l 157 0 l -24 0 l 147 971 z "},"Р":{"ha":599,"x_min":-24,"x_max":615,"o":"m 406 971 q 499 951 458 971 q 567 899 540 932 q 604 824 593 867 q 607 733 615 781 l 603 706 q 569 615 594 658 q 506 539 543 572 q 421 486 468 506 q 321 467 374 467 l 239 467 l 157 0 l -24 0 l 147 971 l 406 971 m 435 783 q 440 920 451 878 q 385 963 428 963 l 328 963 l 242 475 l 307 475 q 372 518 347 475 q 413 654 396 561 l 435 783 z "},"С":{"ha":574,"x_min":-1,"x_max":615,"o":"m 94 690 q 134 812 106 757 q 205 905 163 867 q 301 964 247 943 q 417 985 354 985 q 533 962 482 985 q 615 894 583 939 l 610 889 q 537 951 581 929 q 444 972 493 972 q 347 935 382 972 q 297 818 313 897 l 182 163 q 184 35 167 71 q 264 -1 201 -1 q 338 9 301 -1 q 406 38 374 19 q 465 81 439 56 q 504 136 490 107 l 513 132 q 401 24 472 63 q 243 -14 331 -14 q 57 69 115 -14 q 24 293 -1 151 l 94 690 z "},"Т":{"ha":515,"x_min":71,"x_max":614,"o":"m 613 963 l 432 963 l 261 0 l 81 0 l 251 963 l 71 963 l 72 971 l 614 971 l 613 963 z "},"У":{"ha":385,"x_min":-37,"x_max":482,"o":"m 290 529 l 293 529 l 471 971 l 482 971 l 126 86 q 3 -7 89 -7 q -17 -6 -7 -7 q -37 -1 -26 -4 l -32 7 q 114 88 72 -15 l 133 133 l 72 971 l 258 971 l 290 529 z "},"Ф":{"ha":744,"x_min":8,"x_max":764,"o":"m 289 42 q 72 126 136 43 q 40 389 8 210 l 74 582 q 199 840 104 754 q 446 929 293 926 l 461 1014 l 469 1014 l 454 929 q 704 582 764 926 l 671 389 q 546 126 639 208 q 297 42 453 43 l 282 -43 l 274 -43 l 289 42 m 299 50 q 365 58 339 50 q 410 88 392 65 q 442 149 429 110 q 465 251 454 189 l 544 706 q 558 810 556 769 q 549 876 560 851 q 516 910 539 900 q 453 921 493 921 l 299 50 m 196 251 q 184 150 185 189 q 194 89 183 111 q 228 58 204 67 q 290 50 251 50 l 444 921 q 378 910 406 921 q 333 875 351 900 q 301 809 314 850 q 276 706 288 768 l 196 251 z "},"Х":{"ha":515,"x_min":-100,"x_max":585,"o":"m 331 633 l 339 581 l 342 581 l 572 971 l 585 971 l 343 563 l 442 0 l 253 0 l 174 442 l 172 442 l -87 0 l -100 0 l 171 461 l 79 971 l 271 971 l 331 633 z "},"Ц":{"ha":696,"x_min":-22,"x_max":690,"o":"m 149 971 l 329 971 l 160 8 l 340 8 l 510 971 l 690 971 l 521 8 l 638 8 l 610 -151 l 506 -151 l 533 0 l -22 0 l 149 971 z "},"Ч":{"ha":628,"x_min":42,"x_max":649,"o":"m 361 375 q 280 294 322 318 q 189 269 238 269 q 81 315 119 269 q 56 444 42 361 l 149 971 l 329 971 l 224 378 q 219 308 215 325 q 239 290 222 290 q 277 303 256 290 q 319 334 299 315 q 353 374 339 353 q 371 415 368 396 l 468 971 l 649 971 l 478 0 l 297 0 l 364 375 l 361 375 z "},"Ш":{"ha":918,"x_min":-22,"x_max":940,"o":"m 149 971 l 329 971 l 160 8 l 285 8 l 454 971 l 635 971 l 465 8 l 590 8 l 760 971 l 940 971 l 769 0 l -22 0 l 149 971 z "},"Щ":{"ha":946,"x_min":-22,"x_max":940,"o":"m 149 971 l 329 971 l 160 8 l 285 8 l 454 971 l 635 971 l 465 8 l 590 8 l 760 971 l 940 971 l 769 0 l -22 0 l 149 971 m 751 8 l 888 8 l 860 -151 l 757 -151 l 783 0 l 750 0 l 751 8 z "},"Ъ":{"ha":636,"x_min":11,"x_max":582,"o":"m 363 546 q 460 528 417 546 q 531 478 503 510 q 571 402 560 446 q 574 307 582 358 l 560 232 q 527 141 551 183 q 467 67 503 99 q 389 18 432 36 q 300 0 346 0 l 11 0 l 181 963 l 69 963 l 71 971 l 364 971 l 288 546 l 363 546 m 403 367 q 405 497 418 456 q 347 538 392 538 l 286 538 l 193 8 l 268 8 q 304 16 289 8 q 331 42 319 24 q 351 93 342 61 q 368 172 360 125 l 403 367 z "},"Ы":{"ha":897,"x_min":-22,"x_max":919,"o":"m 329 546 q 426 528 383 546 q 497 478 468 510 q 536 402 525 446 q 539 307 547 358 l 525 232 q 492 141 517 183 q 433 67 468 99 q 355 18 397 36 q 267 0 313 0 l -22 0 l 149 971 l 329 971 l 254 546 l 329 546 m 919 971 l 747 0 l 567 0 l 739 971 l 919 971 m 368 367 q 371 497 383 456 q 314 538 358 538 l 253 538 l 160 8 l 235 8 q 270 16 256 8 q 296 42 285 24 q 316 93 307 61 q 333 172 325 125 l 368 367 z "},"Ь":{"ha":601,"x_min":-22,"x_max":547,"o":"m 329 546 q 426 528 383 546 q 497 478 468 510 q 536 402 525 446 q 539 307 547 358 l 525 232 q 492 141 517 183 q 433 67 468 99 q 355 18 397 36 q 267 0 313 0 l -22 0 l 149 971 l 329 971 l 254 546 l 329 546 m 368 367 q 371 497 383 456 q 314 538 358 538 l 253 538 l 160 8 l 235 8 q 270 16 256 8 q 296 42 285 24 q 316 93 307 61 q 333 172 325 125 l 368 367 z "},"Э":{"ha":560,"x_min":-75,"x_max":564,"o":"m 471 293 q 429 165 458 222 q 358 69 400 108 q 260 8 315 29 q 142 -14 206 -14 q -3 24 54 -14 q -75 132 -60 63 l -67 136 q -3 38 -57 76 q 125 -1 50 -1 q 218 35 188 -1 q 265 163 249 71 l 322 482 l 96 482 l 97 490 l 324 490 l 382 818 q 374 935 396 897 q 290 972 353 972 q 190 951 242 972 q 96 889 138 929 l 90 894 q 321 985 189 985 q 505 905 446 985 q 540 690 564 825 l 471 293 z "},"Ю":{"ha":917,"x_min":-22,"x_max":929,"o":"m 329 971 l 244 489 l 333 489 l 369 693 q 410 812 381 758 q 483 904 440 865 q 580 964 525 943 q 696 985 635 985 q 805 964 758 985 q 881 905 851 943 q 919 813 910 867 q 918 693 929 760 l 847 292 q 806 166 835 222 q 733 69 776 110 q 636 8 690 29 q 519 -14 582 -14 q 410 8 457 -14 q 335 70 364 31 q 297 167 307 110 q 300 292 288 224 l 332 481 l 243 481 l 158 0 l -22 0 l 149 971 l 329 971 m 456 154 q 456 32 440 69 q 521 -6 472 -6 q 598 31 569 -6 q 642 154 626 68 l 758 817 q 759 940 774 904 q 694 976 744 976 q 617 939 646 976 q 572 817 588 901 l 456 154 z "},"Я":{"ha":635,"x_min":-44,"x_max":656,"o":"m 485 0 l 304 0 l 389 481 l 376 481 q 347 476 360 481 q 324 460 335 472 q 303 423 314 447 q 276 358 292 399 l 140 0 l -44 0 l 83 333 q 117 388 94 361 q 167 434 139 414 q 227 466 196 454 q 286 478 258 478 l 288 482 q 203 507 240 486 q 144 560 167 528 q 112 634 121 593 q 111 719 103 675 l 114 733 q 148 824 122 781 q 213 899 174 867 q 299 951 251 932 q 399 971 347 971 l 656 971 l 485 0 m 282 668 q 276 532 267 575 q 325 489 285 489 l 390 489 l 474 963 l 417 963 q 347 920 374 963 q 303 783 319 878 l 282 668 z "},"Ё":{"ha":481,"x_min":-24,"x_max":535,"o":"m 535 971 l 533 963 l 328 963 l 246 500 l 422 500 l 421 492 l 244 492 l 158 8 l 364 8 l 363 0 l -24 0 l 149 971 l 535 971 m 222 1103 q 246 1144 226 1128 q 290 1160 265 1160 q 330 1144 315 1160 q 340 1103 344 1128 q 316 1060 336 1076 q 271 1044 296 1044 q 232 1060 246 1044 q 222 1103 218 1076 m 396 1103 q 420 1144 400 1128 q 464 1160 440 1160 q 504 1144 490 1160 q 514 1103 518 1128 q 490 1060 510 1076 q 444 1044 471 1044 q 406 1060 421 1044 q 396 1103 392 1076 z "},"Ђ":{"ha":656,"x_min":40,"x_max":624,"o":"m 572 963 l 390 963 l 326 596 l 329 596 q 397 678 364 654 q 476 701 429 701 q 585 659 546 701 q 613 554 624 617 l 526 67 q 440 -99 510 -28 q 235 -243 371 -171 l 232 -237 q 260 -213 247 -225 q 284 -185 274 -201 q 303 -146 294 -169 q 318 -86 313 -122 l 443 621 q 426 681 453 681 q 397 668 414 681 q 363 637 379 656 q 335 597 347 618 q 318 556 322 575 l 221 0 l 40 0 l 210 963 l 71 963 l 72 971 l 574 971 l 572 963 z "},"Ѓ":{"ha":428,"x_min":-24,"x_max":525,"o":"m 147 971 l 525 971 l 524 963 l 326 963 l 157 0 l -24 0 l 147 971 m 313 1026 l 383 1185 l 508 1185 l 321 1026 l 313 1026 z "},"Ґ":{"ha":428,"x_min":-22,"x_max":550,"o":"m 149 971 l 414 971 l 439 1107 l 550 1107 l 525 963 l 328 963 l 158 0 l -22 0 l 149 971 z "},"Є":{"ha":574,"x_min":-3,"x_max":614,"o":"m 93 690 q 133 812 104 757 q 203 905 161 867 q 299 964 246 943 q 415 985 353 985 q 614 894 550 985 l 607 889 q 535 951 579 929 q 443 972 492 972 q 346 935 381 972 q 297 818 311 897 l 239 490 l 465 490 l 464 482 l 238 482 l 181 163 q 182 35 164 71 q 264 -1 200 -1 q 337 9 300 -1 q 406 38 374 19 q 463 81 438 56 q 504 136 489 107 l 511 132 q 401 24 471 63 q 243 -14 331 -14 q 56 68 115 -14 q 22 293 -3 150 l 93 690 z "},"Ѕ":{"ha":536,"x_min":-21,"x_max":558,"o":"m 269 150 q 263 219 269 183 q 242 300 257 256 l 129 642 q 115 732 115 685 q 135 831 115 785 q 188 912 154 878 q 269 965 222 946 q 368 985 315 985 q 478 961 428 985 q 558 894 529 938 l 553 889 q 490 944 531 922 q 414 967 450 967 q 332 922 363 967 q 301 807 301 878 q 324 678 301 746 l 444 292 q 457 215 457 253 q 435 125 457 167 q 376 52 414 83 q 287 3 338 21 q 178 -14 236 -14 q -21 50 64 -14 l -14 57 q 65 15 19 31 q 149 -1 110 -1 q 238 37 207 -1 q 269 150 269 75 z "},"І":{"ha":307,"x_min":-24,"x_max":329,"o":"m 329 971 l 157 0 l -24 0 l 149 971 l 329 971 z "},"Ї":{"ha":307,"x_min":-24,"x_max":413,"o":"m 329 971 l 157 0 l -24 0 l 149 971 l 329 971 m 117 1103 q 140 1144 121 1128 q 185 1160 160 1160 q 224 1144 210 1160 q 235 1103 239 1128 q 210 1060 231 1076 q 165 1044 190 1044 q 126 1060 140 1044 q 117 1103 113 1076 m 290 1103 q 315 1144 294 1128 q 358 1160 335 1160 q 399 1144 385 1160 q 408 1103 413 1128 q 385 1060 404 1076 q 339 1044 365 1044 q 301 1060 315 1044 q 290 1103 286 1076 z "},"Ј":{"ha":442,"x_min":-89,"x_max":464,"o":"m -89 53 l -82 60 q -28 18 -60 33 q 35 3 3 3 q 97 31 72 3 q 132 107 122 58 l 283 971 l 464 971 l 338 250 q 302 145 328 193 q 240 62 276 97 q 160 6 204 26 q 67 -14 115 -14 q -89 53 -25 -14 z "},"Љ":{"ha":1076,"x_min":-96,"x_max":1022,"o":"m 729 546 l 803 546 q 900 528 857 546 q 972 478 943 510 q 1011 402 1000 446 q 1014 307 1022 358 l 1000 232 q 967 141 992 183 q 908 67 943 99 q 829 18 872 36 q 740 0 786 0 l 451 0 l 621 963 l 444 963 l 303 306 q 194 68 271 150 q 21 -14 118 -14 q -96 21 -44 -14 l -90 28 q -11 3 -53 3 q 53 38 26 3 q 97 163 79 72 l 267 971 l 804 971 l 729 546 m 843 367 q 846 497 858 457 q 789 538 833 538 l 728 538 l 633 8 l 708 8 q 744 16 729 8 q 772 42 760 24 q 792 93 783 61 q 808 172 800 125 l 843 367 z "},"Њ":{"ha":963,"x_min":-22,"x_max":899,"o":"m 329 971 l 244 489 l 424 489 l 508 971 l 689 971 l 604 489 l 679 489 q 776 471 733 489 q 848 421 819 453 q 888 345 876 389 q 889 250 899 301 l 886 232 q 853 141 878 183 q 794 67 829 99 q 715 18 758 36 q 626 0 672 0 l 339 0 l 422 481 l 243 481 l 158 0 l -22 0 l 149 971 l 329 971 m 719 310 q 722 440 735 400 q 664 481 708 481 l 603 481 l 519 8 l 594 8 q 631 16 615 8 q 657 42 646 24 q 677 93 668 61 q 694 172 686 125 l 719 310 z "},"Ћ":{"ha":656,"x_min":40,"x_max":622,"o":"m 571 963 l 390 963 l 326 596 l 329 596 q 397 678 364 654 q 476 701 429 701 q 583 659 544 701 q 611 554 622 617 l 514 0 l 333 0 l 443 621 q 426 681 453 681 q 397 668 414 681 q 363 637 379 656 q 335 597 347 618 q 319 556 322 575 l 221 0 l 40 0 l 210 963 l 71 963 l 72 971 l 572 971 l 571 963 z "},"Ќ":{"ha":635,"x_min":-22,"x_max":644,"o":"m 375 0 l 307 419 q 285 487 299 468 q 254 506 272 506 l 249 506 l 160 0 l -22 0 l 149 971 l 331 971 l 250 515 l 299 515 l 631 971 l 644 971 l 311 515 l 351 515 q 398 509 376 515 q 438 488 419 503 q 469 444 456 472 q 492 372 483 417 l 563 0 l 375 0 m 390 1026 l 461 1185 l 586 1185 l 399 1026 l 390 1026 z "},"Ў":{"ha":385,"x_min":-37,"x_max":482,"o":"m 290 529 l 293 529 l 471 971 l 482 971 l 126 86 q 3 -7 89 -7 q -17 -6 -7 -7 q -37 -1 -26 -4 l -32 7 q 114 88 72 -15 l 133 133 l 72 971 l 258 971 l 290 529 m 451 1168 l 460 1168 q 406 1068 449 1107 q 308 1029 364 1029 q 224 1068 253 1029 q 206 1168 194 1107 l 214 1168 q 240 1119 208 1140 q 321 1099 272 1099 q 408 1119 369 1099 q 451 1168 446 1139 z "},"Џ":{"ha":668,"x_min":-22,"x_max":690,"o":"m 149 971 l 329 971 l 160 8 l 340 8 l 510 971 l 690 971 l 519 0 l 299 0 l 272 -151 l 171 -151 l 197 0 l -22 0 l 149 971 z "},"б":{"ha":654,"x_min":6,"x_max":688,"o":"m 18 278 l 85 660 q 144 828 103 764 q 241 931 186 893 q 361 985 296 968 q 490 1013 426 1003 l 688 1042 l 688 1033 l 493 1004 q 401 985 436 996 q 342 952 365 975 q 306 887 319 929 q 279 769 292 844 l 249 593 q 330 638 281 621 q 428 656 379 656 q 569 594 519 656 q 600 419 619 532 l 575 278 q 533 158 564 211 q 457 66 501 104 q 358 7 413 28 q 246 -14 304 -14 q 140 7 188 -14 q 62 66 93 28 q 18 158 31 104 q 18 278 6 213 m 246 581 l 165 122 q 181 31 156 67 q 246 -6 207 -6 q 326 38 286 -6 q 383 178 365 81 l 431 451 q 437 534 439 500 q 424 590 435 568 q 397 621 414 611 q 360 631 381 631 q 301 617 333 631 q 246 581 269 604 z "},"в":{"ha":547,"x_min":-37,"x_max":521,"o":"m 508 511 q 480 440 500 468 q 433 394 460 411 q 378 368 407 376 q 326 357 350 360 l 310 356 l 308 353 l 324 350 q 377 335 349 346 q 427 306 406 325 q 460 257 449 286 q 465 188 472 228 l 461 165 q 433 94 454 125 q 380 43 411 64 q 311 11 349 22 q 236 0 274 0 l -37 0 l 83 688 l 343 688 q 408 679 375 688 q 467 653 442 671 q 507 605 493 635 q 513 531 521 575 l 508 511 m 267 358 q 310 391 296 358 q 335 490 324 424 l 346 549 q 356 647 357 615 q 324 679 354 679 l 251 679 l 196 358 l 267 358 m 301 217 q 265 350 325 350 l 193 350 l 133 8 l 214 8 q 260 40 244 8 q 288 139 276 72 l 301 217 z "},"г":{"ha":396,"x_min":-37,"x_max":422,"o":"m 83 688 l 422 688 l 421 679 l 251 679 l 132 0 l -37 0 l 83 688 z "},"д":{"ha":536,"x_min":-117,"x_max":522,"o":"m -117 -182 l -83 8 l -49 8 q 1 80 -22 36 q 47 187 25 124 q 88 335 68 250 q 128 533 108 421 l 156 688 l 522 688 l 401 8 l 479 8 l 444 -182 l 275 -182 l 307 0 l -75 0 l -108 -182 l -117 -182 m 232 8 l 351 679 l 161 679 l 133 518 q 100 353 118 433 q 61 207 82 274 q 15 89 40 140 q -39 8 -10 38 l 232 8 z "},"е":{"ha":536,"x_min":-17,"x_max":514,"o":"m 40 479 q 74 565 49 525 q 135 635 99 606 q 217 683 172 665 q 310 701 263 701 q 396 683 357 701 q 462 635 435 665 q 501 565 489 606 q 506 481 514 525 l 482 346 l 192 346 l 146 90 q 160 22 139 47 q 226 -3 182 -3 q 286 8 256 -3 q 344 37 317 18 q 397 81 372 56 q 435 135 421 106 l 443 132 q 339 24 404 63 q 196 -14 274 -14 q 104 3 146 -14 q 35 50 63 21 q -5 119 7 79 q -8 206 -17 160 l 40 479 m 308 354 l 354 615 q 349 672 361 651 q 311 693 338 693 q 265 672 285 693 q 239 615 246 650 l 193 354 l 308 354 z "},"ж":{"ha":785,"x_min":-92,"x_max":724,"o":"m 494 299 q 480 344 490 333 q 457 357 469 356 l 453 357 l 390 0 l 222 0 l 285 357 l 281 357 q 253 344 268 356 q 222 299 239 333 l 83 0 l -92 0 l 38 264 q 76 315 53 296 q 125 346 100 335 q 174 361 150 357 q 215 365 197 365 l 240 365 l 132 688 l 144 688 l 253 365 l 286 365 l 343 688 l 511 688 l 454 365 l 489 365 l 710 688 l 724 688 l 501 365 l 526 365 q 566 361 543 365 q 610 346 589 357 q 647 315 631 335 q 668 264 664 296 l 704 0 l 529 0 l 494 299 z "},"з":{"ha":500,"x_min":-79,"x_max":467,"o":"m 104 -14 q -79 31 -18 -14 l -75 39 q 47 1 -19 1 q 169 46 119 1 q 232 167 218 90 l 240 214 q 226 316 251 278 q 146 356 200 354 l 126 356 l 128 364 l 147 364 q 235 400 201 364 q 279 506 268 436 l 285 535 q 268 644 296 603 q 182 685 240 685 q 49 632 114 685 l 44 638 q 246 701 119 701 q 413 653 358 701 q 451 519 467 604 l 450 511 q 425 457 444 482 q 376 412 406 432 q 308 379 346 392 q 225 364 269 367 l 201 363 l 201 357 l 224 356 q 365 302 315 347 q 404 190 415 257 l 401 172 q 308 35 386 85 q 104 -14 229 -14 z "},"и":{"ha":504,"x_min":-36,"x_max":496,"o":"m 496 686 l 375 0 l 367 0 l 471 593 l 479 633 l 476 633 l -1 0 l -36 0 l 85 686 l 94 686 l 19 264 l 22 264 l 50 303 l 338 686 l 496 686 z "},"й":{"ha":504,"x_min":-36,"x_max":496,"o":"m 496 686 l 375 0 l 367 0 l 471 593 l 479 633 l 476 633 l -1 0 l -36 0 l 85 686 l 94 686 l 19 264 l 22 264 l 50 303 l 338 686 l 496 686 m 435 933 l 443 933 q 390 833 432 872 q 292 794 347 794 q 207 833 236 794 q 189 933 178 872 l 197 933 q 224 885 192 906 q 304 864 256 864 q 391 884 353 864 q 435 933 429 904 z "},"к":{"ha":526,"x_min":-36,"x_max":465,"o":"m 236 299 q 222 345 232 333 q 199 357 211 357 l 194 357 l 132 0 l -36 0 l 85 689 l 253 689 l 196 367 l 231 367 l 451 689 l 465 689 l 243 367 l 268 367 q 308 363 285 367 q 351 347 331 358 q 389 316 372 336 q 410 264 406 296 l 446 0 l 271 0 l 236 299 z "},"л":{"ha":633,"x_min":-83,"x_max":625,"o":"m -79 18 q -51 4 -65 10 q -21 -1 -36 -1 q 22 22 6 -1 q 54 111 39 46 l 188 688 l 625 688 l 506 0 l 336 0 l 457 679 l 357 679 l 240 186 q 204 105 231 142 q 144 42 178 68 q 72 1 110 15 q 0 -14 35 -14 q -83 11 -46 -14 l -79 18 z "},"м":{"ha":607,"x_min":-36,"x_max":600,"o":"m 479 0 l 310 0 l 415 600 l 424 642 l 421 642 l 182 0 l 147 0 l 86 642 l 85 642 l 76 600 l -29 0 l -36 0 l 85 688 l 257 688 l 288 319 l 290 319 l 426 688 l 600 688 l 479 0 z "},"н":{"ha":572,"x_min":-36,"x_max":564,"o":"m 254 688 l 194 349 l 335 349 l 394 688 l 564 688 l 443 0 l 274 0 l 333 340 l 193 340 l 133 0 l -36 0 l 85 688 l 254 688 z "},"о":{"ha":550,"x_min":-17,"x_max":514,"o":"m 308 701 q 395 683 356 701 q 462 635 435 665 q 501 565 489 606 q 506 481 514 525 l 457 206 q 424 121 449 161 q 363 51 399 81 q 282 3 326 21 q 190 -14 238 -14 q 103 3 143 -14 q 35 51 63 21 q -4 122 8 82 q -8 206 -17 161 l 40 481 q 74 565 49 525 q 135 636 99 606 q 217 684 172 667 q 308 701 261 701 m 311 693 q 265 672 285 693 q 239 615 246 650 l 143 71 q 149 15 136 36 q 189 -6 161 -6 q 233 15 215 -6 q 258 71 251 35 l 354 615 q 349 672 361 651 q 311 693 338 693 z "},"п":{"ha":558,"x_min":-37,"x_max":550,"o":"m 550 688 l 429 0 l 260 0 l 381 679 l 251 679 l 132 0 l -37 0 l 85 688 l 550 688 z "},"р":{"ha":549,"x_min":-74,"x_max":515,"o":"m 247 624 l 250 624 q 300 684 274 667 q 363 701 326 701 q 430 685 400 701 q 480 642 460 669 q 508 578 500 615 q 508 501 515 542 l 456 201 q 426 119 447 158 q 373 50 404 79 q 305 3 342 21 q 231 -14 268 -14 q 177 3 197 -14 q 150 60 157 19 l 147 60 l 96 -233 l -74 -233 l 89 688 l 258 688 l 247 624 m 157 111 q 165 35 150 69 q 204 1 179 1 q 237 19 222 1 q 257 65 251 38 l 354 617 q 351 664 360 644 q 324 683 342 683 q 298 674 311 683 q 273 649 285 664 q 252 616 261 635 q 239 579 243 597 l 157 111 z "},"с":{"ha":471,"x_min":-14,"x_max":481,"o":"m 39 468 q 72 561 47 518 q 134 635 97 604 q 216 684 171 667 q 311 701 261 701 q 408 682 364 701 q 481 628 453 663 l 475 622 q 413 669 453 650 q 338 689 374 689 q 271 666 297 689 q 238 603 244 643 l 147 92 q 162 24 140 50 q 228 -1 183 -1 q 280 7 253 -1 q 333 31 307 15 q 381 66 358 46 q 417 108 403 86 l 424 106 q 328 18 389 50 q 194 -14 267 -14 q 101 3 142 -14 q 33 52 60 21 q -3 126 7 83 q -6 219 -14 168 l 39 468 z "},"т":{"ha":488,"x_min":50,"x_max":506,"o":"m 504 679 l 361 679 l 242 0 l 72 0 l 192 679 l 50 679 l 51 688 l 506 688 l 504 679 z "},"у":{"ha":481,"x_min":-54,"x_max":497,"o":"m 229 689 l 286 265 l 289 265 l 486 689 l 497 689 l 107 -150 q -15 -242 64 -242 q -54 -237 -33 -242 l -50 -228 q -14 -232 -32 -232 q 96 -147 56 -232 l 149 -33 l 51 689 l 229 689 z "},"ф":{"ha":606,"x_min":-17,"x_max":569,"o":"m 390 971 l 343 701 q 441 683 397 700 q 514 635 485 665 q 556 566 543 606 q 561 481 569 526 l 513 206 q 478 118 504 158 q 412 49 451 78 q 323 3 372 19 q 219 -14 274 -14 l 217 -14 l 178 -233 l 169 -233 l 208 -14 q 111 6 154 -12 q 39 53 68 24 q -3 122 10 82 q -8 206 -17 161 l 40 481 q 75 568 49 528 q 141 638 101 608 q 231 685 181 668 q 335 701 281 701 l 382 971 l 390 971 m 218 -6 q 314 71 300 -6 l 410 615 q 342 693 424 693 l 218 -6 m 333 693 q 239 615 251 689 l 143 71 q 210 -6 131 -1 l 333 693 z "},"х":{"ha":539,"x_min":-69,"x_max":483,"o":"m 231 688 l 306 435 l 308 435 l 471 688 l 483 688 l 311 418 l 435 0 l 258 0 l 169 299 l 157 336 l 154 336 l -57 0 l -69 0 l 153 354 l 54 688 l 231 688 z "},"ц":{"ha":600,"x_min":-37,"x_max":550,"o":"m 83 688 l 253 688 l 133 8 l 261 8 l 381 688 l 550 688 l 431 8 l 547 8 l 519 -151 l 415 -151 l 442 0 l -37 0 l 83 688 z "},"ч":{"ha":536,"x_min":11,"x_max":529,"o":"m 283 265 q 226 208 256 225 q 157 190 196 190 q 101 199 129 190 q 53 228 74 208 q 22 280 32 249 q 19 356 11 311 l 78 688 l 247 688 l 172 267 q 169 217 165 229 q 188 204 172 204 q 220 213 203 204 q 253 236 238 222 q 278 266 268 250 q 292 296 289 282 l 360 688 l 529 688 l 408 0 l 239 0 l 286 265 l 283 265 z "},"ш":{"ha":778,"x_min":-36,"x_max":769,"o":"m 85 688 l 254 688 l 135 8 l 224 8 l 342 688 l 511 688 l 392 8 l 481 8 l 600 688 l 769 688 l 649 0 l -36 0 l 85 688 z "},"щ":{"ha":819,"x_min":-36,"x_max":769,"o":"m 85 688 l 254 688 l 135 8 l 224 8 l 342 688 l 511 688 l 392 8 l 481 8 l 600 688 l 769 688 l 649 0 l -36 0 l 85 688 m 631 8 l 767 8 l 739 -151 l 636 -151 l 663 0 l 629 0 l 631 8 z "},"ъ":{"ha":592,"x_min":7,"x_max":508,"o":"m 339 386 q 409 374 376 386 q 465 338 442 361 q 498 284 488 315 q 501 217 508 253 l 492 164 q 465 99 486 129 q 414 47 444 69 q 347 13 383 25 q 272 0 310 0 l 7 0 l 126 678 l 35 678 l 36 688 l 299 688 l 244 386 l 339 386 m 339 257 q 341 349 350 319 q 300 378 332 378 l 243 378 l 178 8 l 244 8 q 290 33 275 8 q 315 125 304 57 l 339 257 z "},"ы":{"ha":786,"x_min":-37,"x_max":779,"o":"m 294 386 q 365 374 332 386 q 420 338 397 361 q 453 284 443 315 q 457 217 464 253 l 447 164 q 421 99 442 129 q 369 47 400 69 q 302 13 339 25 q 228 0 265 0 l -37 0 l 83 686 l 253 688 l 200 386 l 294 386 m 779 688 l 658 0 l 489 0 l 610 688 l 779 688 m 294 257 q 297 349 306 319 q 256 378 288 378 l 199 378 l 133 8 l 200 8 q 244 33 229 8 q 271 125 258 57 l 294 257 z "},"ь":{"ha":547,"x_min":-37,"x_max":464,"o":"m 294 386 q 365 374 332 386 q 420 338 397 361 q 453 284 443 315 q 457 217 464 253 l 447 164 q 421 99 442 129 q 369 47 400 69 q 302 13 339 25 q 228 0 265 0 l -37 0 l 83 686 l 253 688 l 200 386 l 294 386 m 294 257 q 297 349 306 319 q 256 378 288 378 l 199 378 l 133 8 l 200 8 q 244 33 229 8 q 271 125 258 57 l 294 257 z "},"э":{"ha":492,"x_min":-67,"x_max":454,"o":"m 401 219 q 367 126 393 168 q 305 52 342 83 q 221 3 268 21 q 121 -14 174 -14 q -1 18 49 -14 q -67 106 -51 50 l -60 108 q -39 66 -54 86 q -3 31 -24 46 q 42 7 18 15 q 92 -1 67 -1 q 167 24 136 -1 q 204 92 197 50 l 247 339 l 71 339 l 72 347 l 249 347 l 294 603 q 283 666 301 643 q 225 689 265 689 q 142 669 188 689 q 65 622 97 650 l 60 628 q 151 682 100 663 q 256 701 203 701 q 345 684 306 701 q 410 635 385 667 q 444 561 435 604 q 446 468 454 518 l 401 219 z "},"ю":{"ha":817,"x_min":-36,"x_max":781,"o":"m 575 701 q 662 683 622 701 q 728 635 701 665 q 768 565 756 606 q 772 481 781 525 l 724 206 q 690 121 715 161 q 629 51 665 81 q 549 3 593 21 q 457 -14 504 -14 q 370 3 410 -14 q 303 51 331 21 q 264 122 276 82 q 260 206 251 161 l 283 340 l 193 340 l 133 0 l -36 0 l 85 688 l 254 688 l 194 349 l 285 349 l 307 481 q 340 565 315 525 q 402 636 365 606 q 483 684 439 667 q 575 701 528 701 m 578 693 q 532 672 551 693 q 506 615 513 650 l 410 71 q 415 15 403 36 q 456 -6 428 -6 q 500 15 482 -6 q 525 71 518 35 l 621 615 q 616 672 628 651 q 578 693 604 693 z "},"я":{"ha":543,"x_min":-44,"x_max":535,"o":"m 414 0 l 244 0 l 304 339 l 296 339 q 275 336 283 339 q 259 324 267 333 q 244 299 251 315 q 225 253 236 282 l 128 0 l -44 0 l 47 236 q 70 274 54 256 q 108 308 86 293 q 154 331 129 322 q 204 339 179 339 l 204 340 q 91 397 126 347 q 67 510 56 446 l 68 519 q 92 583 74 553 q 138 636 111 613 q 199 674 165 660 q 269 688 232 688 l 535 688 l 414 0 m 229 474 q 225 377 218 407 q 260 347 232 347 l 306 347 l 364 679 l 324 679 q 274 649 293 679 q 243 551 256 618 l 229 474 z "},"ё":{"ha":536,"x_min":-17,"x_max":514,"o":"m 40 479 q 74 565 49 525 q 135 635 99 606 q 217 683 172 665 q 310 701 263 701 q 396 683 357 701 q 462 635 435 665 q 501 565 489 606 q 506 481 514 525 l 482 346 l 192 346 l 146 90 q 160 22 139 47 q 226 -3 182 -3 q 286 8 256 -3 q 344 37 317 18 q 397 81 372 56 q 435 135 421 106 l 443 132 q 339 24 404 63 q 196 -14 274 -14 q 104 3 146 -14 q 35 50 63 21 q -5 119 7 79 q -8 206 -17 160 l 40 479 m 308 354 l 354 615 q 349 672 361 651 q 311 693 338 693 q 265 672 285 693 q 239 615 246 650 l 193 354 l 308 354 m 190 868 q 214 909 194 893 q 258 925 233 925 q 298 909 283 925 q 308 868 313 893 q 284 826 304 842 q 239 810 264 810 q 200 826 214 810 q 190 868 186 842 m 364 868 q 388 909 368 893 q 432 925 408 925 q 472 909 458 925 q 482 868 486 893 q 458 826 478 842 q 413 810 439 810 q 374 826 389 810 q 364 868 360 842 z "},"ђ":{"ha":564,"x_min":-33,"x_max":539,"o":"m 244 596 q 312 678 279 654 q 390 701 344 701 q 501 659 463 701 q 528 554 539 617 l 442 67 q 414 -22 433 19 q 361 -99 394 -62 q 278 -172 328 -136 q 161 -243 229 -207 l 157 -236 q 186 -208 174 -222 q 207 -178 199 -194 q 222 -139 215 -161 q 233 -86 228 -117 l 358 621 q 343 681 368 681 q 312 668 329 681 q 278 637 294 656 q 250 597 263 618 q 233 556 238 575 l 136 0 l -33 0 l 108 801 l 65 801 l 67 810 l 110 810 l 138 971 l 307 971 l 279 810 l 376 810 l 375 801 l 278 801 l 242 596 l 244 596 z "},"ѓ":{"ha":396,"x_min":-37,"x_max":422,"o":"m 83 688 l 422 688 l 421 679 l 251 679 l 132 0 l -37 0 l 83 688 m 211 743 l 282 901 l 407 901 l 219 743 l 211 743 z "},"ґ":{"ha":396,"x_min":-36,"x_max":447,"o":"m 85 688 l 314 688 l 336 821 l 447 821 l 422 679 l 253 679 l 133 0 l -36 0 l 85 688 z "},"є":{"ha":471,"x_min":-14,"x_max":481,"o":"m 39 468 q 72 561 47 518 q 133 635 97 604 q 215 684 169 667 q 310 701 260 701 q 408 682 363 701 q 481 628 453 663 l 474 622 q 413 669 453 650 q 338 689 374 689 q 271 666 297 689 q 238 603 244 643 l 192 347 l 368 347 l 367 339 l 190 339 l 147 92 q 162 24 140 50 q 228 -1 183 -1 q 280 7 253 -1 q 333 31 307 15 q 381 66 358 46 q 417 108 403 86 l 424 106 q 326 18 388 50 q 194 -14 265 -14 q 101 3 142 -14 q 33 52 60 21 q -3 126 7 83 q -6 219 -14 168 l 39 468 z "},"ѕ":{"ha":422,"x_min":-47,"x_max":414,"o":"m 407 636 q 356 673 385 660 q 300 686 328 686 q 235 660 260 686 q 210 594 210 635 q 224 531 210 564 l 339 228 q 350 171 350 197 q 331 101 350 135 q 278 42 311 68 q 202 1 244 17 q 114 -14 160 -14 q 22 5 63 -14 q -47 58 -19 24 l -42 64 q 17 16 -18 33 q 86 -1 51 -1 q 149 23 126 -1 q 171 92 171 47 q 149 192 171 135 l 54 432 q 38 511 38 476 q 56 585 38 550 q 105 645 74 619 q 177 686 136 671 q 264 701 218 701 q 414 642 357 701 l 407 636 z "},"і":{"ha":297,"x_min":-22,"x_max":321,"o":"m 121 867 q 160 934 128 907 q 233 961 192 961 q 298 934 275 961 q 314 867 321 907 q 274 799 307 826 q 200 771 242 771 q 136 799 158 771 q 121 867 114 826 m 268 688 l 147 0 l -22 0 l 99 688 l 268 688 z "},"ї":{"ha":296,"x_min":-22,"x_max":365,"o":"m 268 688 l 147 0 l -22 0 l 99 688 l 268 688 m 69 868 q 93 909 74 893 q 138 925 113 925 q 177 909 163 925 q 188 868 192 893 q 163 826 183 842 q 118 810 143 810 q 79 826 93 810 q 69 868 65 842 m 243 868 q 267 909 247 893 q 311 925 288 925 q 351 909 338 925 q 361 868 365 893 q 338 826 357 842 q 292 810 318 810 q 253 826 268 810 q 243 868 239 842 z "},"ј":{"ha":336,"x_min":-79,"x_max":361,"o":"m 164 867 q 203 934 171 907 q 275 961 235 961 q 338 934 315 961 q 354 867 361 907 q 314 799 347 826 q 240 771 281 771 q 178 799 200 771 q 164 867 157 826 m 201 67 q 174 -22 193 19 q 122 -99 154 -62 q 40 -172 89 -136 q -75 -243 -8 -207 l -79 -237 q -51 -213 -64 -225 q -26 -185 -37 -201 q -7 -146 -15 -169 q 8 -86 1 -122 l 144 688 l 311 688 l 201 67 z "},"љ":{"ha":985,"x_min":-81,"x_max":901,"o":"m 732 386 q 802 374 769 386 q 858 338 835 361 q 891 285 881 315 q 894 218 901 254 l 885 164 q 858 99 879 129 q 807 47 838 69 q 740 13 776 25 q 665 0 703 0 l 400 0 l 519 679 l 390 679 l 308 306 q 203 68 274 150 q 36 -14 133 -14 q -81 21 -29 -14 l -75 28 q 3 3 -37 3 q 68 38 42 3 q 113 163 94 72 l 221 688 l 690 688 l 638 386 l 732 386 m 732 257 q 734 349 743 319 q 693 378 725 378 l 636 378 l 571 8 l 638 8 q 681 33 667 8 q 708 125 696 57 l 732 257 z "},"њ":{"ha":858,"x_min":-36,"x_max":775,"o":"m 254 688 l 201 386 l 343 386 l 396 688 l 565 688 l 513 386 l 606 386 q 676 374 643 386 q 731 338 708 361 q 765 285 754 315 q 768 218 775 254 l 758 164 q 732 99 753 129 q 681 47 711 69 q 614 13 650 25 q 540 0 578 0 l 275 0 l 342 378 l 200 378 l 133 0 l -36 0 l 85 688 l 254 688 m 606 257 q 608 349 617 319 q 568 378 599 378 l 511 378 l 446 8 l 513 8 q 556 33 542 8 q 583 125 571 57 l 606 257 z "},"ћ":{"ha":558,"x_min":-32,"x_max":538,"o":"m 244 596 q 313 678 281 654 q 392 701 346 701 q 499 659 460 701 q 526 554 538 617 l 429 0 l 249 0 l 358 621 q 343 681 371 681 q 312 668 329 681 q 278 637 294 656 q 250 597 263 618 q 235 556 238 575 l 138 0 l -32 0 l 139 971 l 308 971 l 242 596 l 244 596 z "},"ќ":{"ha":526,"x_min":-36,"x_max":490,"o":"m 236 299 q 222 345 232 333 q 199 357 211 357 l 194 357 l 132 0 l -36 0 l 85 689 l 253 689 l 196 367 l 231 367 l 451 689 l 465 689 l 243 367 l 268 367 q 308 363 285 367 q 351 347 331 358 q 389 316 372 336 q 410 264 406 296 l 446 0 l 271 0 l 236 299 m 294 743 l 365 901 l 490 901 l 303 743 l 294 743 z "},"ў":{"ha":481,"x_min":-54,"x_max":497,"o":"m 229 689 l 286 265 l 289 265 l 486 689 l 497 689 l 107 -150 q -15 -242 64 -242 q -54 -237 -33 -242 l -50 -228 q -14 -232 -32 -232 q 96 -147 56 -232 l 149 -33 l 51 689 l 229 689 m 463 933 l 471 933 q 417 833 460 872 q 319 794 375 794 q 235 833 264 794 q 217 933 206 872 l 225 933 q 251 885 219 906 q 332 864 283 864 q 419 884 381 864 q 463 933 457 904 z "},"џ":{"ha":558,"x_min":-36,"x_max":551,"o":"m 85 688 l 254 688 l 135 8 l 263 8 l 382 688 l 551 688 l 431 0 l 249 0 l 222 -151 l 119 -151 l 146 0 l -36 0 l 85 688 z "},"Ѐ":{"ha":481,"x_min":-22,"x_max":535,"o":"m 535 971 l 533 963 l 328 963 l 246 500 l 422 500 l 421 492 l 244 492 l 160 8 l 365 8 l 364 0 l -22 0 l 149 971 l 535 971 m 369 1026 l 238 1185 l 363 1185 l 378 1026 l 369 1026 z "},"Ѝ":{"ha":569,"x_min":-29,"x_max":597,"o":"m 597 971 l 426 0 l 417 0 l 575 897 l 572 897 l 13 0 l -29 0 l 142 971 l 150 971 l 43 361 l 46 361 l 79 417 l 425 971 l 597 971 m 368 1026 l 236 1185 l 361 1185 l 376 1026 l 368 1026 z "},"ѐ":{"ha":536,"x_min":-17,"x_max":514,"o":"m 40 479 q 74 565 49 525 q 135 635 99 606 q 217 683 172 665 q 310 701 263 701 q 396 683 357 701 q 462 635 435 665 q 501 565 489 606 q 506 481 514 525 l 482 346 l 192 346 l 146 90 q 160 22 139 47 q 226 -3 182 -3 q 286 8 256 -3 q 344 37 317 18 q 397 81 372 56 q 435 135 421 106 l 443 132 q 339 24 404 63 q 196 -14 274 -14 q 104 3 146 -14 q 35 50 63 21 q -5 119 7 79 q -8 206 -17 160 l 40 479 m 308 354 l 354 615 q 349 672 361 651 q 311 693 338 693 q 265 672 285 693 q 239 615 246 650 l 193 354 l 308 354 m 338 792 l 206 950 l 331 950 l 346 792 l 338 792 z "},"ѝ":{"ha":504,"x_min":-36,"x_max":496,"o":"m 496 686 l 375 0 l 367 0 l 471 593 l 479 633 l 476 633 l -1 0 l -36 0 l 85 686 l 94 686 l 19 264 l 22 264 l 50 303 l 338 686 l 496 686 m 310 792 l 178 950 l 303 950 l 318 792 l 310 792 z "},"Ҋ":{"ha":586,"x_min":-29,"x_max":597,"o":"m 597 971 l 426 0 l 417 0 l 575 897 l 572 897 l 13 0 l -29 0 l 142 971 l 150 971 l 43 361 l 46 361 l 79 417 l 425 971 l 597 971 m 493 1168 l 501 1168 q 448 1068 490 1107 q 350 1029 406 1029 q 265 1068 294 1029 q 247 1168 236 1107 l 256 1168 q 282 1119 250 1140 q 363 1099 314 1099 q 449 1119 411 1099 q 493 1168 488 1139 m 363 -151 l 435 0 l 418 0 l 419 8 l 542 8 l 465 -151 l 363 -151 z "},"ҋ":{"ha":550,"x_min":-36,"x_max":496,"o":"m 496 686 l 375 0 l 367 0 l 471 593 l 479 633 l 476 633 l -1 0 l -36 0 l 85 686 l 94 686 l 19 264 l 22 264 l 50 303 l 338 686 l 496 686 m 313 -151 l 385 0 l 368 0 l 369 8 l 492 8 l 415 -151 l 313 -151 m 435 933 l 443 933 q 390 833 432 872 q 292 794 347 794 q 207 833 236 794 q 189 933 178 872 l 197 933 q 224 885 192 906 q 304 864 256 864 q 391 884 353 864 q 435 933 429 904 z "},"Ҍ":{"ha":601,"x_min":-22,"x_max":547,"o":"m 329 546 q 426 528 383 546 q 497 478 468 510 q 536 402 525 446 q 539 307 547 358 l 525 232 q 492 141 517 183 q 433 67 468 99 q 355 18 397 36 q 267 0 313 0 l -22 0 l 149 971 l 329 971 l 254 546 l 329 546 m 368 367 q 371 497 383 456 q 314 538 358 538 l 253 538 l 160 8 l 235 8 q 270 16 256 8 q 296 42 285 24 q 316 93 307 61 q 333 172 325 125 l 368 367 m 58 810 l 381 810 l 379 801 l 57 801 l 58 810 z "},"ҍ":{"ha":547,"x_min":-37,"x_max":464,"o":"m 294 386 q 365 374 332 386 q 420 338 397 361 q 453 284 443 315 q 457 217 464 253 l 447 164 q 421 99 442 129 q 369 47 400 69 q 302 13 339 25 q 228 0 265 0 l -37 0 l 83 686 l 253 688 l 200 386 l 294 386 m 294 257 q 297 349 306 319 q 256 378 288 378 l 199 378 l 133 8 l 200 8 q 244 33 229 8 q 271 125 258 57 l 294 257 m 6 590 l 328 590 l 326 582 l 4 582 l 6 590 z "},"Ҏ":{"ha":599,"x_min":-24,"x_max":615,"o":"m 406 971 q 499 951 458 971 q 567 899 540 932 q 604 824 593 867 q 607 733 615 781 l 603 706 q 569 615 594 658 q 506 539 543 572 q 421 486 468 506 q 321 467 374 467 l 239 467 l 157 0 l -24 0 l 147 971 l 406 971 m 435 783 q 440 920 451 878 q 385 963 428 963 l 328 963 l 242 475 l 307 475 q 372 518 347 475 q 413 654 396 561 l 435 783 m 319 588 l 397 390 l 386 385 l 308 582 l 319 588 z "},"ҏ":{"ha":549,"x_min":-74,"x_max":515,"o":"m 247 624 l 250 624 q 300 684 274 667 q 363 701 326 701 q 430 685 400 701 q 480 642 460 669 q 508 578 500 615 q 508 501 515 542 l 456 201 q 426 119 447 158 q 373 50 404 79 q 305 3 342 21 q 231 -14 268 -14 q 177 3 197 -14 q 150 60 157 19 l 147 60 l 96 -233 l -74 -233 l 89 688 l 258 688 l 247 624 m 157 111 q 165 35 150 69 q 204 1 179 1 q 237 19 222 1 q 257 65 251 38 l 354 617 q 351 664 360 644 q 324 683 342 683 q 298 674 311 683 q 273 649 285 664 q 252 616 261 635 q 239 579 243 597 l 157 111 m 200 121 l 278 -76 l 267 -82 l 189 115 l 200 121 z "},"Ғ":{"ha":428,"x_min":-24,"x_max":525,"o":"m 147 971 l 525 971 l 524 963 l 326 963 l 157 0 l -24 0 l 147 971 m 7 521 l 329 521 l 328 513 l 6 513 l 7 521 z "},"ғ":{"ha":396,"x_min":-37,"x_max":422,"o":"m 83 688 l 422 688 l 421 679 l 251 679 l 132 0 l -37 0 l 83 688 m -31 382 l 292 382 l 290 374 l -32 374 l -31 382 z "},"Ҕ":{"ha":633,"x_min":-22,"x_max":553,"o":"m 328 964 l 250 522 l 253 521 q 301 535 276 529 q 351 540 325 540 q 442 523 403 540 q 508 474 482 506 q 543 400 533 443 q 544 307 553 357 l 503 71 q 469 -23 494 19 q 405 -97 443 -65 q 319 -145 367 -128 q 217 -162 271 -162 l 217 -156 q 270 -128 249 -154 q 299 -65 292 -101 l 388 442 q 376 505 394 482 q 318 528 358 528 q 285 524 303 528 q 249 514 268 521 l 158 0 l -22 0 l 149 972 l 538 972 l 536 964 l 328 964 z "},"ҕ":{"ha":550,"x_min":-36,"x_max":468,"o":"m 251 681 l 203 394 l 194 353 l 196 350 q 233 360 214 356 q 281 364 253 364 q 424 314 381 364 q 456 189 468 264 l 424 11 q 346 -115 410 -65 q 169 -164 282 -164 l 171 -156 q 210 -134 194 -154 q 231 -87 226 -114 l 297 289 q 244 353 308 353 q 193 342 222 353 l 133 -1 l -36 -1 l 86 688 l 450 688 l 449 681 l 251 681 z "},"Җ":{"ha":1067,"x_min":-99,"x_max":994,"o":"m 704 0 l 635 419 q 615 487 628 468 q 583 506 601 506 l 576 506 l 486 0 l 306 0 l 394 506 l 389 506 q 351 487 371 506 q 306 419 331 468 l 89 0 l -99 0 l 104 372 q 151 444 128 417 q 199 488 175 472 q 247 509 224 503 q 296 515 271 515 l 336 515 l 164 971 l 176 971 l 349 515 l 396 515 l 476 971 l 658 971 l 578 515 l 626 515 l 958 971 l 972 971 l 639 515 l 679 515 q 726 509 704 515 q 765 488 747 503 q 798 444 783 472 q 821 372 813 417 l 892 0 l 704 0 m 858 8 l 994 8 l 967 -151 l 864 -151 l 890 0 l 857 0 l 858 8 z "},"җ":{"ha":911,"x_min":-92,"x_max":808,"o":"m 494 299 q 480 344 490 333 q 457 357 469 356 l 453 357 l 390 0 l 222 0 l 285 357 l 281 357 q 253 344 268 356 q 222 299 239 333 l 83 0 l -92 0 l 38 264 q 76 315 53 296 q 125 346 100 335 q 174 361 150 357 q 215 365 197 365 l 240 365 l 132 688 l 144 688 l 253 365 l 286 365 l 343 688 l 511 688 l 454 365 l 489 365 l 710 688 l 724 688 l 501 365 l 526 365 q 566 361 543 365 q 610 346 589 357 q 647 315 631 335 q 668 264 664 296 l 704 0 l 529 0 l 494 299 m 672 8 l 808 8 l 781 -151 l 678 -151 l 704 0 l 671 0 l 672 8 z "},"Ҙ":{"ha":668,"x_min":-22,"x_max":678,"o":"m 218 -14 q 83 3 146 -14 q -22 50 21 19 l -17 57 q 65 17 22 31 q 153 4 108 4 q 326 68 256 4 q 417 240 397 132 l 426 299 q 407 445 443 390 q 294 500 371 500 l 267 500 l 267 508 l 296 508 q 417 562 367 508 q 483 710 467 615 l 490 750 q 467 905 507 846 q 343 964 426 964 q 156 889 250 964 l 150 894 q 271 961 201 938 q 415 985 340 985 q 531 967 481 985 q 616 919 582 950 q 664 844 650 888 q 669 749 678 801 l 664 718 q 580 571 647 625 q 406 510 513 517 l 372 507 l 372 501 l 404 499 q 567 433 514 489 q 604 285 619 376 l 597 249 q 555 140 588 189 q 472 58 522 92 q 358 5 422 24 q 218 -14 293 -14 m 99 -114 q 119 -156 106 -143 q 150 -168 133 -168 q 179 -159 165 -168 q 203 -135 193 -150 q 220 -103 214 -121 q 226 -71 226 -86 q 218 -36 226 -54 q 188 -3 210 -18 l 201 -3 q 262 -52 240 -22 q 283 -112 283 -82 q 274 -148 283 -132 q 251 -176 265 -164 q 219 -196 238 -189 q 183 -203 201 -203 q 126 -181 150 -203 q 92 -118 101 -158 l 99 -114 z "},"Қ":{"ha":739,"x_min":-22,"x_max":667,"o":"m 375 0 l 307 419 q 285 487 299 468 q 254 506 272 506 l 249 506 l 160 0 l -22 0 l 149 971 l 331 971 l 250 515 l 299 515 l 631 971 l 644 971 l 311 515 l 351 515 q 398 509 376 515 q 438 488 419 503 q 469 444 456 472 q 492 372 483 417 l 563 0 l 375 0 m 531 8 l 667 8 l 639 -151 l 536 -151 l 563 0 l 529 0 l 531 8 z "},"қ":{"ha":628,"x_min":-36,"x_max":549,"o":"m 236 299 q 222 345 232 333 q 199 357 211 357 l 194 357 l 132 0 l -36 0 l 85 689 l 253 689 l 196 367 l 231 367 l 451 689 l 465 689 l 243 367 l 268 367 q 308 363 285 367 q 351 347 331 358 q 389 316 372 336 q 410 264 406 296 l 446 0 l 271 0 l 236 299 m 413 8 l 549 8 l 521 -151 l 418 -151 l 444 0 l 411 0 l 413 8 z "},"Ҝ":{"ha":690,"x_min":-22,"x_max":699,"o":"m 431 0 l 361 419 q 341 487 354 468 q 311 506 328 506 l 308 506 l 289 403 l 281 403 l 300 506 l 249 507 l 158 0 l -22 0 l 149 971 l 331 971 l 250 515 l 301 515 l 322 639 l 331 639 l 310 515 l 353 515 l 685 971 l 699 971 l 365 515 l 406 515 q 453 509 431 515 q 493 488 475 503 q 525 444 511 472 q 547 372 539 417 l 618 0 l 431 0 z "},"ҝ":{"ha":582,"x_min":-36,"x_max":521,"o":"m 293 299 q 278 344 289 333 q 254 357 268 356 l 249 357 l 231 253 l 222 253 l 240 357 l 194 357 l 132 0 l -36 0 l 85 688 l 253 688 l 196 365 l 243 365 l 264 489 l 272 489 l 251 365 l 286 365 l 507 688 l 521 688 l 299 365 l 324 365 q 365 361 342 365 q 408 346 388 357 q 445 315 429 335 q 465 264 461 296 l 501 0 l 328 0 l 293 299 z "},"Ҟ":{"ha":635,"x_min":-22,"x_max":644,"o":"m 375 0 l 307 419 q 285 487 299 468 q 254 506 272 506 l 249 506 l 160 0 l -22 0 l 149 971 l 331 971 l 250 515 l 299 515 l 631 971 l 644 971 l 311 515 l 351 515 q 398 509 376 515 q 438 488 419 503 q 469 444 456 472 q 492 372 483 417 l 563 0 l 375 0 m 65 842 l 388 842 l 386 833 l 64 833 l 65 842 z "},"ҟ":{"ha":526,"x_min":-37,"x_max":464,"o":"m 236 299 q 222 344 232 333 q 199 357 211 356 l 194 357 l 132 0 l -37 0 l 104 801 l 43 801 l 44 810 l 106 810 l 133 971 l 301 971 l 274 810 l 367 810 l 365 801 l 272 801 l 196 365 l 229 365 l 450 688 l 464 688 l 242 365 l 267 365 q 308 361 285 365 q 351 346 331 357 q 388 315 372 335 q 408 264 404 296 l 444 0 l 271 0 l 236 299 z "},"Ҡ":{"ha":750,"x_min":71,"x_max":760,"o":"m 490 0 l 422 419 q 401 487 414 468 q 369 506 388 506 l 364 506 l 275 0 l 93 0 l 264 971 l 446 971 l 365 515 l 414 515 l 746 971 l 760 971 l 426 515 l 467 515 q 513 509 492 515 q 553 488 535 503 q 585 444 571 472 q 607 372 599 417 l 678 0 l 490 0 m 72 971 l 267 971 l 265 963 l 71 963 l 72 971 z "},"ҡ":{"ha":642,"x_min":35,"x_max":581,"o":"m 351 299 q 337 345 347 333 q 314 357 326 357 l 310 357 l 247 0 l 79 0 l 200 689 l 368 689 l 311 367 l 346 367 l 567 689 l 581 689 l 358 367 l 383 367 q 423 363 400 367 q 467 347 446 358 q 504 316 488 336 q 525 264 521 296 l 561 0 l 386 0 l 351 299 m 36 688 l 203 688 l 201 679 l 35 679 l 36 688 z "},"Ң":{"ha":694,"x_min":-22,"x_max":689,"o":"m 329 971 l 244 489 l 424 489 l 508 971 l 689 971 l 518 0 l 339 0 l 422 481 l 243 481 l 158 0 l -22 0 l 149 971 l 329 971 m 500 8 l 636 8 l 608 -151 l 506 -151 l 532 0 l 499 0 l 500 8 z "},"ң":{"ha":615,"x_min":-36,"x_max":564,"o":"m 254 688 l 194 349 l 335 349 l 394 688 l 564 688 l 443 0 l 274 0 l 333 340 l 193 340 l 133 0 l -36 0 l 85 688 l 254 688 m 426 8 l 563 8 l 535 -151 l 432 -151 l 458 0 l 425 0 l 426 8 z "},"Ҥ":{"ha":783,"x_min":-22,"x_max":882,"o":"m 329 971 l 244 489 l 424 489 l 508 971 l 689 971 l 518 0 l 339 0 l 422 481 l 243 481 l 158 0 l -22 0 l 149 971 l 329 971 m 688 971 l 882 971 l 881 963 l 686 963 l 688 971 z "},"ҥ":{"ha":701,"x_min":-36,"x_max":729,"o":"m 254 688 l 194 349 l 335 349 l 394 688 l 564 688 l 443 0 l 274 0 l 333 340 l 193 340 l 133 0 l -36 0 l 85 688 l 254 688 m 563 688 l 729 688 l 728 679 l 561 679 l 563 688 z "},"Ҧ":{"ha":994,"x_min":-22,"x_max":914,"o":"m 690 971 l 611 522 l 614 521 q 662 535 638 529 q 713 540 686 540 q 803 523 764 540 q 869 474 843 506 q 904 400 894 443 q 906 307 914 357 l 864 71 q 830 -23 856 19 q 766 -97 804 -65 q 680 -145 728 -128 q 578 -162 632 -162 l 578 -156 q 631 -128 610 -154 q 660 -65 653 -101 l 749 442 q 738 505 756 482 q 679 528 719 528 q 647 524 664 528 q 610 514 629 521 l 519 0 l 339 0 l 508 964 l 328 964 l 158 0 l -22 0 l 149 971 l 690 971 z "},"ҧ":{"ha":846,"x_min":-36,"x_max":764,"o":"m 550 688 l 492 351 l 492 350 q 529 360 510 357 q 576 364 549 364 q 720 315 676 364 q 751 189 764 265 l 719 13 q 642 -115 706 -65 q 465 -164 578 -164 l 467 -154 q 506 -134 490 -154 q 526 -87 522 -114 l 593 289 q 540 353 604 353 q 490 343 515 353 l 429 0 l 260 0 l 381 679 l 253 679 l 133 0 l -36 0 l 86 688 l 550 688 z "},"Ҩ":{"ha":763,"x_min":10,"x_max":744,"o":"m 179 157 q 201 36 165 78 q 321 -6 236 -6 q 397 7 367 -6 q 287 89 322 38 q 263 208 251 140 l 331 592 q 413 760 350 697 q 568 822 476 822 q 701 758 658 822 q 725 585 744 693 l 658 210 q 450 3 631 47 q 522 -17 479 -12 q 618 -22 565 -22 l 617 -31 q 422 -3 506 -31 q 297 -14 363 -14 q 167 8 224 -14 q 74 71 111 31 q 24 167 38 111 q 22 292 10 224 l 93 693 q 133 813 104 758 q 206 905 163 867 q 303 964 249 943 q 419 985 357 985 q 553 951 499 985 l 547 944 q 433 976 496 976 q 342 940 374 976 q 296 817 311 904 l 179 157 m 425 21 q 456 49 444 32 q 471 88 467 67 l 583 722 q 588 792 592 771 q 568 814 585 814 q 540 792 551 814 q 519 721 529 769 l 407 88 q 425 21 399 44 z "}}}
